<svg width="569" height="114" viewBox="0 0 569 114" fill="none" xmlns="http://www.w3.org/2000/svg">
<path d="M552.3 113.4H16.6C7.4 113.4 0 105.9 0 96.8V16.6C0 7.4 7.4 0 16.6 0H552.3C561.5 0 568.9 7.4 568.9 16.6V96.8C568.9 105.9 561.5 113.4 552.3 113.4Z" fill="black"/>
<path d="M38.7 37V76.1H44.4V47.8H44.7999L56.4 76H61.0999L72.8 47.8H73.1999V76.1H78.9V37H71.6999L59 67.4H58.5L45.9 37H38.7Z" fill="white"/>
<path d="M100.8 76.7C107.3 76.7 111.8 73.6 113.2 68.8L107.7 67.8C106.7 70.6 104.1 72 100.9 72C96 72 92.6 68.8 92.5 63.2H113.6V61.2C113.6 50.6 107.2 46.5 100.5 46.5C92.2 46.5 86.8 52.7 86.8 61.7C86.7 70.7 92 76.7 100.8 76.7ZM92.5 58.9C92.7 54.7 95.8 51.1 100.5 51.1C105 51.1 107.9 54.4 107.9 58.9H92.5Z" fill="white"/>
<path d="M142.2 53.9C141 49.3 137.4 46.4 131 46.4C124.3 46.4 119.5 49.9 119.5 55.1C119.5 59.3 122 62 127.6 63.2L132.6 64.3C135.5 64.9 136.8 66.2 136.8 68C136.8 70.3 134.3 72 130.6 72C127.1 72 124.9 70.5 124.2 67.6L118.6 68.4C119.6 73.6 123.9 76.5 130.6 76.5C137.8 76.5 142.7 72.7 142.7 67.4C142.7 63.3 140 60.7 134.6 59.5L129.9 58.4C126.6 57.6 125.2 56.5 125.2 54.6C125.2 52.3 127.7 50.7 130.9 50.7C134.5 50.7 136.2 52.7 136.8 54.6L142.2 53.9Z" fill="white"/>
<path d="M162.9 46.8H156.8V39.8H151V46.8H146.7V51.4H151V68.7C151 74 155.1 76.6 159.7 76.5C161.5 76.5 162.8 76.1 163.4 75.9L162.4 71.2C162 71.3 161.3 71.4 160.4 71.4C158.5 71.4 156.8 70.8 156.8 67.5V51.4H162.9V46.8Z" fill="white"/>
<path d="M181.5 76.7C189.9 76.7 195.3 70.7 195.3 61.6C195.3 52.5 189.8 46.4 181.5 46.4C173.1 46.4 167.7 52.4 167.7 61.6C167.7 70.6 173.1 76.7 181.5 76.7ZM181.5 71.9C176 71.9 173.5 67.2 173.5 61.6C173.5 56 176 51.2 181.5 51.2C186.9 51.2 189.5 56 189.5 61.6C189.5 67.2 186.9 71.9 181.5 71.9Z" fill="white"/>
<path d="M200.6 40.3H202.2V35.2H205.1C205.2 35.2 205.3 35.2 205.4 35.2L208.2 40.3H210.1L207.1 34.9C208.8 34.3 209.6 33 209.6 31.2C209.6 28.9 208.2 27.2 205.1 27.2H200.6V40.3ZM202.2 33.8V28.7H205C207.1 28.7 208 29.7 208 31.3C208 32.9 207.2 33.8 205.1 33.8H202.2Z" fill="white"/>
<path d="M218.2 36.3C218.2 38.1 216.8 39 215.7 39C214.4 39 213.5 38.1 213.5 36.7V30.6H212V36.8C212 39.3 213.3 40.5 215.2 40.5C216.7 40.5 217.7 39.7 218.1 38.7H218.2V40.4H219.7V30.6H218.2V36.3Z" fill="white"/>
<path d="M229.5 32.7C229 31.3 228 30.4 226 30.4C223.9 30.4 222.4 31.6 222.4 33.2C222.4 34.5 223.2 35.5 225 35.9L226.6 36.3C227.6 36.5 228.1 37 228.1 37.7C228.1 38.5 227.2 39.2 225.8 39.2C224.6 39.2 223.8 38.7 223.5 37.6L222.1 38C222.5 39.7 223.8 40.5 225.9 40.5C228.2 40.5 229.8 39.3 229.8 37.6C229.8 36.2 228.9 35.4 227.2 35L225.7 34.6C224.5 34.3 224 33.9 224 33.2C224 32.4 224.9 31.7 226.1 31.7C227.4 31.7 228 32.4 228.2 33.1L229.5 32.7Z" fill="white"/>
<path d="M239 32.7C238.5 31.3 237.5 30.4 235.5 30.4C233.4 30.4 231.9 31.6 231.9 33.2C231.9 34.5 232.7 35.5 234.5 35.9L236.1 36.3C237.1 36.5 237.6 37 237.6 37.7C237.6 38.5 236.7 39.2 235.3 39.2C234.1 39.2 233.3 38.7 233 37.6L231.6 38C232 39.7 233.3 40.5 235.4 40.5C237.7 40.5 239.3 39.3 239.3 37.6C239.3 36.2 238.4 35.4 236.7 35L235.2 34.6C234 34.3 233.5 33.9 233.5 33.2C233.5 32.4 234.4 31.7 235.6 31.7C236.9 31.7 237.5 32.4 237.7 33.1L239 32.7Z" fill="white"/>
<path d="M241.4 40.3H242.9V30.5H241.4V40.3ZM242.2 28.9C242.8 28.9 243.3 28.4 243.3 27.9C243.3 27.3 242.8 26.9 242.2 26.9C241.6 26.9 241.1 27.4 241.1 27.9C241.1 28.4 241.6 28.9 242.2 28.9Z" fill="white"/>
<path d="M248.7 40.5C250.4 40.5 251.3 39.6 251.6 38.9H251.7V40.2H253.2V33.8C253.2 30.7 250.8 30.3 249.5 30.3C248 30.3 246.3 30.8 245.5 32.6L246.9 33.1C247.2 32.4 248 31.6 249.5 31.6C250.9 31.6 251.6 32.3 251.6 33.6V33.7C251.6 34.4 250.9 34.4 249.1 34.6C247.3 34.8 245.3 35.2 245.3 37.5C245.3 39.4 246.8 40.5 248.7 40.5ZM248.9 39.2C247.7 39.2 246.8 38.7 246.8 37.6C246.8 36.5 247.9 36.1 249 35.9C249.6 35.8 251.4 35.6 251.6 35.3V36.7C251.7 38 250.7 39.2 248.9 39.2Z" fill="white"/>
</svg>
