<svg width="500" height="80" viewBox="0 0 500 80" fill="none" xmlns="http://www.w3.org/2000/svg">
<path d="M485.41 80H14.5896C6.50378 80 0 74.709 0 68.2892V11.7108C0 5.22046 6.50378 0 14.5896 0H485.41C493.496 0 500 5.22046 500 11.7108V68.2892C500 74.709 493.496 80 485.41 80Z" fill="black"/>
<path d="M355.51 37.27C354.91 37.27 354.43 37.11 354.07 36.79C353.71 36.47 353.53 36.03 353.53 35.47V24.97C353.53 22.07 354.36 19.8 356.02 18.16C357.68 16.52 359.99 15.7 362.95 15.7C364.89 15.7 366.57 16.07 367.99 16.81C369.41 17.55 370.49 18.62 371.23 20.02C371.99 21.42 372.37 23.07 372.37 24.97V35.47C372.37 36.03 372.19 36.47 371.83 36.79C371.47 37.11 370.99 37.27 370.39 37.27C369.79 37.27 369.3 37.11 368.92 36.79C368.56 36.45 368.38 36.01 368.38 35.47V30.58H357.52V35.47C357.52 36.01 357.33 36.45 356.95 36.79C356.59 37.11 356.11 37.27 355.51 37.27ZM368.38 27.49V24.88C368.38 22.88 367.92 21.38 367 20.38C366.1 19.36 364.75 18.85 362.95 18.85C359.33 18.85 357.52 20.86 357.52 24.88V27.49H368.38ZM377.844 37.3C377.224 37.3 376.744 37.14 376.404 36.82C376.064 36.5 375.894 36.06 375.894 35.5V16.03C375.894 15.47 376.064 15.03 376.404 14.71C376.744 14.39 377.224 14.23 377.844 14.23C378.444 14.23 378.924 14.39 379.284 14.71C379.644 15.03 379.824 15.47 379.824 16.03V35.5C379.824 36.06 379.644 36.5 379.284 36.82C378.924 37.14 378.444 37.3 377.844 37.3ZM391.365 37.3C389.645 37.3 388.145 36.99 386.865 36.37C385.585 35.75 384.595 34.88 383.895 33.76C383.215 32.62 382.875 31.29 382.875 29.77C382.875 27.31 383.585 25.4 385.005 24.04C386.445 22.68 388.465 22 391.065 22C392.665 22 394.075 22.25 395.295 22.75C396.535 23.25 397.495 23.95 398.175 24.85C398.875 25.73 399.225 26.74 399.225 27.88C399.225 28.84 398.915 29.58 398.295 30.1C397.695 30.62 396.835 30.88 395.715 30.88H386.685C386.685 32 387.075 32.85 387.855 33.43C388.655 33.99 389.825 34.27 391.365 34.27C392.985 34.27 394.365 33.91 395.505 33.19C396.145 32.79 396.645 32.59 397.005 32.59C397.345 32.59 397.675 32.75 397.995 33.07C398.335 33.41 398.505 33.78 398.505 34.18C398.505 34.66 398.305 35.04 397.905 35.32C397.065 35.96 396.085 36.45 394.965 36.79C393.845 37.13 392.645 37.3 391.365 37.3ZM394.515 28.12C394.855 28.12 395.095 28.06 395.235 27.94C395.375 27.8 395.445 27.58 395.445 27.28C395.445 26.58 395.045 26.03 394.245 25.63C393.465 25.23 392.405 25.03 391.065 25.03C389.725 25.03 388.665 25.31 387.885 25.87C387.125 26.43 386.745 27.18 386.745 28.12H394.515ZM415.179 34.51C415.499 34.83 415.659 35.21 415.659 35.65C415.659 36.13 415.459 36.54 415.059 36.88C414.739 37.14 414.379 37.27 413.979 37.27C413.439 37.27 412.939 37.04 412.479 36.58L408.159 31.96L403.809 36.58C403.349 37.04 402.849 37.27 402.309 37.27C401.909 37.27 401.549 37.14 401.229 36.88C400.829 36.54 400.629 36.13 400.629 35.65C400.629 35.21 400.789 34.83 401.109 34.51L405.819 29.5L401.499 24.91C401.119 24.49 400.929 24.06 400.929 23.62C400.929 23.14 401.129 22.73 401.529 22.39C401.809 22.13 402.159 22 402.579 22C403.119 22 403.649 22.26 404.169 22.78L408.159 27.01L412.119 22.78C412.639 22.26 413.169 22 413.709 22C414.129 22 414.479 22.13 414.759 22.39C415.159 22.73 415.359 23.14 415.359 23.62C415.359 24.06 415.169 24.49 414.789 24.91L410.469 29.5L415.179 34.51ZM423.071 37.3C421.831 37.3 420.731 37.09 419.771 36.67C418.831 36.25 418.091 35.67 417.551 34.93C417.031 34.17 416.771 33.3 416.771 32.32C416.771 30.84 417.381 29.66 418.601 28.78C419.841 27.9 421.511 27.46 423.611 27.46C425.431 27.46 426.891 27.85 427.991 28.63V27.91C427.991 26.97 427.701 26.25 427.121 25.75C426.541 25.25 425.701 25 424.601 25C422.961 25 421.551 25.35 420.371 26.05C419.871 26.33 419.441 26.47 419.081 26.47C418.641 26.47 418.251 26.27 417.911 25.87C417.691 25.59 417.581 25.3 417.581 25C417.581 24.5 417.841 24.06 418.361 23.68C419.081 23.16 419.991 22.75 421.091 22.45C422.191 22.15 423.351 22 424.571 22C426.891 22 428.711 22.53 430.031 23.59C431.371 24.63 432.041 26.07 432.041 27.91V35.62C432.041 36.14 431.861 36.55 431.501 36.85C431.161 37.15 430.691 37.3 430.091 37.3C429.471 37.3 428.991 37.16 428.651 36.88C428.311 36.6 428.141 36.2 428.141 35.68V35.35C427.001 36.65 425.311 37.3 423.071 37.3ZM424.001 34.54C425.261 34.54 426.241 34.35 426.941 33.97C427.661 33.57 428.021 33.02 428.021 32.32C428.021 31.66 427.661 31.13 426.941 30.73C426.221 30.33 425.261 30.13 424.061 30.13C422.981 30.13 422.141 30.32 421.541 30.7C420.961 31.08 420.671 31.62 420.671 32.32C420.671 33.02 420.961 33.57 421.541 33.97C422.121 34.35 422.941 34.54 424.001 34.54ZM436.6 37.3C435.98 37.3 435.5 37.14 435.16 36.82C434.82 36.5 434.65 36.06 434.65 35.5V23.8C434.65 23.22 434.81 22.78 435.13 22.48C435.47 22.16 435.94 22 436.54 22C437.14 22 437.61 22.16 437.95 22.48C438.29 22.8 438.46 23.24 438.46 23.8V24.67C439.88 22.89 441.82 22 444.28 22C446.2 22 447.71 22.61 448.81 23.83C449.93 25.03 450.49 26.67 450.49 28.75V35.5C450.49 36.06 450.31 36.5 449.95 36.82C449.59 37.14 449.11 37.3 448.51 37.3C447.89 37.3 447.41 37.14 447.07 36.82C446.73 36.5 446.56 36.06 446.56 35.5V28.75C446.56 27.61 446.28 26.72 445.72 26.08C445.16 25.44 444.38 25.12 443.38 25.12C441.86 25.12 440.68 25.57 439.84 26.47C439 27.35 438.58 28.59 438.58 30.19V35.5C438.58 36.06 438.4 36.5 438.04 36.82C437.68 37.14 437.2 37.3 436.6 37.3ZM460.817 37.3C459.257 37.3 457.867 37 456.647 36.4C455.447 35.78 454.507 34.89 453.827 33.73C453.147 32.57 452.807 31.21 452.807 29.65C452.807 28.09 453.127 26.74 453.767 25.6C454.427 24.44 455.367 23.55 456.587 22.93C457.807 22.31 459.247 22 460.907 22C462.127 22 463.157 22.2 463.997 22.6C464.837 22.98 465.627 23.56 466.367 24.34L466.397 16.03C466.397 15.47 466.577 15.03 466.937 14.71C467.297 14.39 467.777 14.23 468.377 14.23C468.977 14.23 469.447 14.39 469.787 14.71C470.147 15.01 470.327 15.45 470.327 16.03V35.5C470.327 36.08 470.147 36.53 469.787 36.85C469.447 37.15 468.977 37.3 468.377 37.3C467.777 37.3 467.297 37.14 466.937 36.82C466.577 36.5 466.397 36.06 466.397 35.5V34.9C465.057 36.5 463.197 37.3 460.817 37.3ZM461.417 34.18C462.977 34.18 464.197 33.78 465.077 32.98C465.957 32.18 466.397 31.07 466.397 29.65C466.397 28.23 465.957 27.12 465.077 26.32C464.197 25.52 462.977 25.12 461.417 25.12C459.957 25.12 458.817 25.52 457.997 26.32C457.177 27.12 456.767 28.23 456.767 29.65C456.767 31.07 457.177 32.18 457.997 32.98C458.817 33.78 459.957 34.18 461.417 34.18ZM475.037 37.3C474.417 37.3 473.937 37.14 473.597 36.82C473.257 36.5 473.087 36.06 473.087 35.5V23.8C473.087 23.22 473.247 22.78 473.567 22.48C473.907 22.16 474.377 22 474.977 22C475.577 22 476.047 22.16 476.387 22.48C476.727 22.8 476.897 23.24 476.897 23.8V24.79C477.517 23.99 478.237 23.38 479.057 22.96C479.897 22.52 480.797 22.3 481.757 22.3H482.417C483.057 22.3 483.547 22.44 483.887 22.72C484.247 22.98 484.427 23.36 484.427 23.86C484.427 24.36 484.247 24.75 483.887 25.03C483.547 25.29 483.057 25.42 482.417 25.42H481.397C480.057 25.42 478.987 25.85 478.187 26.71C477.407 27.55 477.017 28.71 477.017 30.19V35.5C477.017 36.06 476.837 36.5 476.477 36.82C476.117 37.14 475.637 37.3 475.037 37.3Z" fill="white"/>
<path d="M400.16 61C398.867 61 398.22 60.4333 398.22 59.3C398.22 58.8333 398.307 58.4533 398.48 58.16C398.653 57.8667 398.967 57.5333 399.42 57.16L407.84 50.14C408.12 49.9 408.313 49.6733 408.42 49.46C408.54 49.2467 408.6 48.9933 408.6 48.7C408.6 48.46 408.533 48.2733 408.4 48.14C408.28 48.0067 408.053 47.94 407.72 47.94H399.22C398.82 47.94 398.62 47.7867 398.62 47.48C398.62 47.16 398.82 47 399.22 47H407.76C409.053 47 409.7 47.5667 409.7 48.7C409.7 49.1667 409.613 49.5467 409.44 49.84C409.267 50.12 408.953 50.4467 408.5 50.82L400.08 57.86C399.8 58.1 399.6 58.3267 399.48 58.54C399.373 58.7533 399.32 59.0067 399.32 59.3C399.32 59.8067 399.613 60.06 400.2 60.06H409.24C409.64 60.06 409.84 60.2133 409.84 60.52C409.84 60.84 409.64 61 409.24 61H400.16ZM413.183 61.2C412.849 61.2 412.683 60.9867 412.683 60.56V46.46C412.683 46.0333 412.849 45.82 413.183 45.82C413.529 45.82 413.702 46.0333 413.702 46.46V53.06C414.196 52.3933 414.796 51.8867 415.503 51.54C416.223 51.18 417.009 51 417.863 51C419.143 51 420.109 51.3333 420.763 52C421.429 52.6667 421.763 53.6467 421.763 54.94V60.56C421.763 60.9867 421.589 61.2 421.243 61.2C420.909 61.2 420.743 60.9867 420.743 60.56V54.94C420.743 53.9133 420.509 53.16 420.043 52.68C419.576 52.2 418.849 51.96 417.863 51.96C417.036 51.96 416.309 52.1267 415.683 52.46C415.056 52.78 414.569 53.24 414.223 53.84C413.876 54.44 413.702 55.1267 413.702 55.9V60.56C413.702 60.9867 413.529 61.2 413.183 61.2ZM429.649 61.2C427.969 61.2 426.656 60.7533 425.709 59.86C424.776 58.9667 424.309 57.74 424.309 56.18C424.309 55.2067 424.516 54.3333 424.929 53.56C425.342 52.7733 425.949 52.1533 426.749 51.7C427.562 51.2333 428.542 51 429.689 51C430.702 51 431.562 51.2 432.269 51.6C432.976 51.9867 433.602 52.5267 434.149 53.22L434.169 46.46C434.169 46.0333 434.342 45.82 434.689 45.82C435.022 45.82 435.189 46.0333 435.189 46.46V60.56C435.189 60.9867 435.022 61.2 434.689 61.2C434.342 61.2 434.169 60.9867 434.169 60.56V58.94C433.689 59.6867 433.062 60.2533 432.289 60.64C431.516 61.0133 430.636 61.2 429.649 61.2ZM429.649 60.24C431.062 60.24 432.169 59.8733 432.969 59.14C433.769 58.3933 434.169 57.38 434.169 56.1C434.169 55.2467 433.956 54.5067 433.529 53.88C433.116 53.2533 432.562 52.78 431.869 52.46C431.189 52.1267 430.462 51.96 429.689 51.96C428.316 51.96 427.249 52.3467 426.489 53.12C425.729 53.8933 425.349 54.9133 425.349 56.18C425.349 57.5533 425.716 58.5733 426.449 59.24C427.196 59.9067 428.262 60.24 429.649 60.24ZM442.025 61.2C440.691 61.2 439.658 60.9133 438.925 60.34C438.191 59.7667 437.825 58.9667 437.825 57.94C437.825 56.9133 438.205 56.1067 438.965 55.52C439.725 54.9333 440.778 54.64 442.125 54.64C442.951 54.64 443.698 54.7533 444.365 54.98C445.031 55.2067 445.525 55.52 445.845 55.92V54.46C445.845 53.6333 445.571 53.0133 445.025 52.6C444.491 52.1733 443.698 51.96 442.645 51.96C441.391 51.96 440.258 52.2733 439.245 52.9C439.071 53.0067 438.938 53.06 438.845 53.06C438.765 53.06 438.671 53.0267 438.565 52.96C438.445 52.88 438.385 52.7533 438.385 52.58C438.385 52.4333 438.431 52.32 438.525 52.24C439.018 51.8533 439.625 51.5533 440.345 51.34C441.078 51.1133 441.831 51 442.605 51C443.965 51 445.011 51.3067 445.745 51.92C446.491 52.5333 446.865 53.4067 446.865 54.54V60.56C446.865 60.9867 446.698 61.2 446.365 61.2C446.031 61.2 445.865 60.9867 445.865 60.56V59.66C445.451 60.1533 444.911 60.5333 444.245 60.8C443.591 61.0667 442.851 61.2 442.025 61.2ZM442.025 60.24C443.185 60.24 444.111 60.02 444.805 59.58C445.511 59.1267 445.865 58.5333 445.865 57.8C445.865 57.1067 445.531 56.5667 444.865 56.18C444.198 55.7933 443.265 55.6 442.065 55.6C441.025 55.6 440.231 55.8 439.685 56.2C439.138 56.6 438.865 57.18 438.865 57.94C438.865 59.4733 439.918 60.24 442.025 60.24ZM450.507 61.2C450.173 61.2 450.007 60.9867 450.007 60.56V51.64C450.007 51.2133 450.173 51 450.507 51C450.853 51 451.027 51.2133 451.027 51.64V53.06C451.52 52.3933 452.12 51.8867 452.827 51.54C453.547 51.18 454.333 51 455.187 51C456.467 51 457.433 51.3333 458.087 52C458.753 52.6667 459.087 53.6467 459.087 54.94V60.56C459.087 60.9867 458.913 61.2 458.567 61.2C458.233 61.2 458.067 60.9867 458.067 60.56V54.94C458.067 53.9133 457.833 53.16 457.367 52.68C456.9 52.2 456.173 51.96 455.187 51.96C454.36 51.96 453.633 52.1267 453.007 52.46C452.38 52.78 451.893 53.24 451.547 53.84C451.2 54.44 451.027 55.1267 451.027 55.9V60.56C451.027 60.9867 450.853 61.2 450.507 61.2ZM462.733 61.2C462.4 61.2 462.233 60.9867 462.233 60.56V46.46C462.233 46.0333 462.4 45.82 462.733 45.82C463.08 45.82 463.253 46.0333 463.253 46.46V55.66L469.833 51.08C469.9 51.0267 469.987 51 470.093 51C470.28 51 470.413 51.0733 470.493 51.22C470.547 51.3267 470.573 51.4067 470.573 51.46C470.573 51.6067 470.487 51.7467 470.313 51.88L466.773 54.36C469.027 55.8267 470.4 57.9 470.893 60.58C470.92 60.7667 470.893 60.9133 470.813 61.02C470.733 61.14 470.613 61.2 470.453 61.2C470.133 61.2 469.947 61.06 469.893 60.78C469.587 59.3533 469.14 58.2133 468.553 57.36C467.967 56.5067 467.073 55.7067 465.873 54.96L463.253 56.8V60.56C463.253 60.9867 463.08 61.2 462.733 61.2ZM477.734 61.2C476.574 61.2 475.594 60.96 474.794 60.48C474.007 59.9867 473.42 59.3533 473.034 58.58C472.647 57.8067 472.454 56.98 472.454 56.1C472.454 55.22 472.647 54.3933 473.034 53.62C473.42 52.8467 474.007 52.22 474.794 51.74C475.594 51.2467 476.574 51 477.734 51C478.894 51 479.867 51.2467 480.654 51.74C481.454 52.22 482.047 52.8467 482.434 53.62C482.82 54.3933 483.014 55.22 483.014 56.1C483.014 56.98 482.82 57.8067 482.434 58.58C482.047 59.3533 481.454 59.9867 480.654 60.48C479.867 60.96 478.894 61.2 477.734 61.2ZM477.734 60.24C479.014 60.24 480.04 59.88 480.814 59.16C481.587 58.4267 481.974 57.4067 481.974 56.1C481.974 54.7933 481.587 53.78 480.814 53.06C480.04 52.3267 479.014 51.96 477.734 51.96C476.454 51.96 475.427 52.3267 474.654 53.06C473.88 53.78 473.494 54.7933 473.494 56.1C473.494 57.4067 473.88 58.4267 474.654 59.16C475.427 59.88 476.454 60.24 477.734 60.24Z" fill="white"/>
<path d="M29.26 47.06C29.46 47.22 29.56 47.4133 29.56 47.64C29.56 47.8267 29.4933 47.9933 29.36 48.14C29.2133 48.3267 29.04 48.42 28.84 48.42C28.68 48.42 28.4667 48.3467 28.2 48.2C27.6667 47.9467 27.1467 47.82 26.64 47.82C26.1867 47.82 25.84 47.9467 25.6 48.2C25.36 48.4533 25.24 48.82 25.24 49.3V51.2H27.9C28.54 51.2 28.86 51.4533 28.86 51.96C28.86 52.1867 28.7733 52.3667 28.6 52.5C28.44 52.6333 28.2067 52.7 27.9 52.7H25.24V60.26C25.24 60.5667 25.16 60.8 25 60.96C24.8533 61.12 24.6333 61.2 24.34 61.2C24.0467 61.2 23.8133 61.12 23.64 60.96C23.48 60.7867 23.4 60.5533 23.4 60.26V52.7H22.62C22.3133 52.7 22.0733 52.6333 21.9 52.5C21.7267 52.3667 21.64 52.1867 21.64 51.96C21.64 51.72 21.72 51.5333 21.88 51.4C22.0533 51.2667 22.3 51.2 22.62 51.2H23.4V49.38C23.4 48.4467 23.68 47.6933 24.24 47.12C24.8133 46.5467 25.5667 46.26 26.5 46.26C27.66 46.26 28.58 46.5267 29.26 47.06ZM31.4803 61.2C31.187 61.2 30.9603 61.12 30.8003 60.96C30.6536 60.7867 30.5803 60.5533 30.5803 60.26V51.94C30.5803 51.3133 30.8803 51 31.4803 51C31.7603 51 31.9803 51.0867 32.1403 51.26C32.3003 51.42 32.3803 51.6467 32.3803 51.94V52.96C33.2603 51.7867 34.4536 51.2 35.9603 51.2H36.4403C36.7603 51.2 37.007 51.2667 37.1803 51.4C37.3536 51.5333 37.4403 51.7267 37.4403 51.98C37.4403 52.22 37.347 52.4067 37.1603 52.54C36.987 52.6733 36.747 52.74 36.4403 52.74H35.8403C34.787 52.74 33.9536 53.0533 33.3403 53.68C32.727 54.2933 32.4203 55.1333 32.4203 56.2V60.26C32.4203 60.5533 32.3336 60.7867 32.1603 60.96C32.0003 61.12 31.7736 61.2 31.4803 61.2ZM43.5933 61.2C42.4333 61.2 41.4266 60.9733 40.5733 60.52C39.7199 60.0667 39.0666 59.4533 38.6133 58.68C38.1733 57.9067 37.9533 57.0467 37.9533 56.1C37.9533 55.1533 38.1733 54.2933 38.6133 53.52C39.0666 52.7467 39.7199 52.1333 40.5733 51.68C41.4266 51.2267 42.4333 51 43.5933 51C44.7533 51 45.7533 51.2267 46.5933 51.68C47.4466 52.1333 48.0933 52.7467 48.5333 53.52C48.9866 54.2933 49.2133 55.1533 49.2133 56.1C49.2133 57.0467 48.9866 57.9067 48.5333 58.68C48.0933 59.4533 47.4466 60.0667 46.5933 60.52C45.7533 60.9733 44.7533 61.2 43.5933 61.2ZM43.5933 59.66C44.7399 59.66 45.6533 59.3467 46.3333 58.72C47.0133 58.0933 47.3533 57.22 47.3533 56.1C47.3533 54.98 47.0133 54.1067 46.3333 53.48C45.6533 52.8533 44.7399 52.54 43.5933 52.54C42.4466 52.54 41.5266 52.8533 40.8333 53.48C40.1533 54.1067 39.8133 54.98 39.8133 56.1C39.8133 57.22 40.1533 58.0933 40.8333 58.72C41.5266 59.3467 42.4466 59.66 43.5933 59.66ZM51.9295 61.2C51.6362 61.2 51.4095 61.12 51.2495 60.96C51.1029 60.7867 51.0295 60.5533 51.0295 60.26V51.94C51.0295 51.3133 51.3295 51 51.9295 51C52.2095 51 52.4295 51.0867 52.5895 51.26C52.7495 51.42 52.8295 51.6467 52.8295 51.94V52.92C53.8162 51.64 55.1562 51 56.8495 51C58.1295 51 59.1162 51.3733 59.8095 52.12C60.5162 52.8533 60.8695 53.8933 60.8695 55.24V60.26C60.8695 60.5533 60.7829 60.7867 60.6095 60.96C60.4495 61.12 60.2295 61.2 59.9495 61.2C59.6562 61.2 59.4295 61.12 59.2695 60.96C59.1095 60.7867 59.0295 60.5533 59.0295 60.26V55.24C59.0295 54.3467 58.8162 53.6733 58.3895 53.22C57.9762 52.7667 57.3562 52.54 56.5295 52.54C55.4095 52.54 54.5162 52.8733 53.8495 53.54C53.1962 54.1933 52.8695 55.08 52.8695 56.2V60.26C52.8695 60.5533 52.7829 60.7867 52.6095 60.96C52.4495 61.12 52.2229 61.2 51.9295 61.2ZM70.4356 58.82C70.609 58.9667 70.6956 59.1333 70.6956 59.32C70.6956 59.48 70.6223 59.6733 70.4756 59.9C70.1956 60.3 69.8023 60.62 69.2956 60.86C68.789 61.0867 68.249 61.2 67.6756 61.2C66.729 61.2 65.9823 60.9333 65.4356 60.4C64.9023 59.8533 64.6356 59.1067 64.6356 58.16V52.7H63.6356C63.329 52.7 63.089 52.6333 62.9156 52.5C62.7556 52.3667 62.6756 52.18 62.6756 51.94C62.6756 51.7133 62.7556 51.5333 62.9156 51.4C63.089 51.2667 63.329 51.2 63.6356 51.2H64.6356V47.92C64.6356 47.6267 64.7156 47.4 64.8756 47.24C65.049 47.0667 65.2823 46.98 65.5756 46.98C65.869 46.98 66.089 47.06 66.2356 47.22C66.3956 47.38 66.4756 47.6133 66.4756 47.92V51.2H68.9356C69.2423 51.2 69.4756 51.2667 69.6356 51.4C69.809 51.52 69.8956 51.7 69.8956 51.94C69.8956 52.18 69.809 52.3667 69.6356 52.5C69.4756 52.6333 69.2423 52.7 68.9356 52.7H66.4756V58.32C66.4756 58.7467 66.589 59.08 66.8156 59.32C67.0423 59.5467 67.3623 59.66 67.7756 59.66C68.069 59.66 68.329 59.6133 68.5556 59.52C68.7823 59.4133 69.009 59.24 69.2356 59C69.489 58.7467 69.7223 58.62 69.9356 58.62C70.1223 58.62 70.289 58.6867 70.4356 58.82ZM73.2316 56.9C72.9249 56.9 72.6849 56.8333 72.5116 56.7C72.3516 56.5667 72.2716 56.38 72.2716 56.14C72.2716 55.8867 72.3516 55.6933 72.5116 55.56C72.6849 55.4267 72.9249 55.36 73.2316 55.36H79.1716C79.4782 55.36 79.7116 55.4267 79.8716 55.56C80.0449 55.6933 80.1316 55.8867 80.1316 56.14C80.1316 56.38 80.0449 56.5667 79.8716 56.7C79.7116 56.8333 79.4782 56.9 79.1716 56.9H73.2316ZM87.3786 61.2C85.6453 61.2 84.2919 60.7533 83.3186 59.86C82.3586 58.9533 81.8786 57.7 81.8786 56.1C81.8786 54.5133 82.3519 53.2667 83.2986 52.36C84.2586 51.4533 85.5853 51 87.2786 51C88.3186 51 89.2386 51.1667 90.0386 51.5C90.8519 51.82 91.4853 52.28 91.9386 52.88C92.3919 53.4667 92.6186 54.14 92.6186 54.9C92.6186 55.4867 92.4453 55.94 92.0986 56.26C91.7653 56.58 91.2853 56.74 90.6586 56.74H83.7186C83.7186 57.6733 84.0319 58.4 84.6586 58.92C85.2986 59.4267 86.2053 59.68 87.3786 59.68C88.0719 59.68 88.6719 59.6067 89.1786 59.46C89.6986 59.3133 90.1853 59.0733 90.6386 58.74C90.9719 58.5133 91.2253 58.4 91.3986 58.4C91.5586 58.4 91.7053 58.4667 91.8386 58.6C92.0253 58.7867 92.1186 58.98 92.1186 59.18C92.1186 59.38 92.0253 59.5667 91.8386 59.74C90.7453 60.7133 89.2586 61.2 87.3786 61.2ZM90.0986 55.34C90.3386 55.34 90.5119 55.2933 90.6186 55.2C90.7253 55.1067 90.7786 54.94 90.7786 54.7C90.7786 54.06 90.4519 53.54 89.7986 53.14C89.1586 52.7267 88.3186 52.52 87.2786 52.52C86.1986 52.52 85.3386 52.7733 84.6986 53.28C84.0719 53.7867 83.7586 54.4733 83.7586 55.34H90.0986ZM95.5819 61.2C95.2885 61.2 95.0619 61.12 94.9019 60.96C94.7552 60.7867 94.6819 60.5533 94.6819 60.26V51.94C94.6819 51.3133 94.9819 51 95.5819 51C95.8619 51 96.0819 51.0867 96.2419 51.26C96.4019 51.42 96.4819 51.6467 96.4819 51.94V52.92C97.4685 51.64 98.8085 51 100.502 51C101.782 51 102.769 51.3733 103.462 52.12C104.169 52.8533 104.522 53.8933 104.522 55.24V60.26C104.522 60.5533 104.435 60.7867 104.262 60.96C104.102 61.12 103.882 61.2 103.602 61.2C103.309 61.2 103.082 61.12 102.922 60.96C102.762 60.7867 102.682 60.5533 102.682 60.26V55.24C102.682 54.3467 102.469 53.6733 102.042 53.22C101.629 52.7667 101.009 52.54 100.182 52.54C99.0619 52.54 98.1685 52.8733 97.5019 53.54C96.8485 54.1933 96.5219 55.08 96.5219 56.2V60.26C96.5219 60.5533 96.4352 60.7867 96.2619 60.96C96.1019 61.12 95.8752 61.2 95.5819 61.2ZM111.828 61.2C110.748 61.2 109.808 61 109.008 60.6C108.208 60.1867 107.588 59.6 107.148 58.84C106.708 58.08 106.488 57.18 106.488 56.14C106.488 55.14 106.695 54.2533 107.108 53.48C107.535 52.6933 108.155 52.0867 108.968 51.66C109.781 51.22 110.748 51 111.868 51C112.775 51 113.541 51.1667 114.168 51.5C114.808 51.82 115.388 52.28 115.908 52.88L115.928 46.76C115.928 46.4667 116.008 46.24 116.168 46.08C116.341 45.9067 116.575 45.82 116.868 45.82C117.148 45.82 117.368 45.9067 117.528 46.08C117.688 46.24 117.768 46.4667 117.768 46.76V60.26C117.768 60.5533 117.688 60.7867 117.528 60.96C117.368 61.12 117.148 61.2 116.868 61.2C116.575 61.2 116.341 61.12 116.168 60.96C116.008 60.7867 115.928 60.5533 115.928 60.26V59.28C114.995 60.56 113.628 61.2 111.828 61.2ZM112.028 59.66C113.241 59.66 114.195 59.3467 114.888 58.72C115.581 58.08 115.928 57.2067 115.928 56.1C115.928 55.0067 115.561 54.14 114.828 53.5C114.095 52.86 113.168 52.54 112.048 52.54C110.888 52.54 109.981 52.8667 109.328 53.52C108.675 54.1733 108.348 55.0467 108.348 56.14C108.348 57.2867 108.668 58.16 109.308 58.76C109.961 59.36 110.868 59.66 112.028 59.66ZM130.519 61.2C129.439 61.2 128.499 61 127.699 60.6C126.899 60.1867 126.279 59.6 125.839 58.84C125.399 58.08 125.179 57.18 125.179 56.14C125.179 55.14 125.386 54.2533 125.799 53.48C126.226 52.6933 126.846 52.0867 127.659 51.66C128.473 51.22 129.439 51 130.559 51C131.466 51 132.233 51.1667 132.859 51.5C133.499 51.82 134.079 52.28 134.599 52.88L134.619 46.76C134.619 46.4667 134.699 46.24 134.859 46.08C135.033 45.9067 135.266 45.82 135.559 45.82C135.839 45.82 136.059 45.9067 136.219 46.08C136.379 46.24 136.459 46.4667 136.459 46.76V60.26C136.459 60.5533 136.379 60.7867 136.219 60.96C136.059 61.12 135.839 61.2 135.559 61.2C135.266 61.2 135.033 61.12 134.859 60.96C134.699 60.7867 134.619 60.5533 134.619 60.26V59.28C133.686 60.56 132.319 61.2 130.519 61.2ZM130.719 59.66C131.933 59.66 132.886 59.3467 133.579 58.72C134.273 58.08 134.619 57.2067 134.619 56.1C134.619 55.0067 134.253 54.14 133.519 53.5C132.786 52.86 131.859 52.54 130.739 52.54C129.579 52.54 128.673 52.8667 128.019 53.52C127.366 54.1733 127.039 55.0467 127.039 56.14C127.039 57.2867 127.359 58.16 127.999 58.76C128.653 59.36 129.559 59.66 130.719 59.66ZM144.019 61.2C142.286 61.2 140.933 60.7533 139.959 59.86C138.999 58.9533 138.519 57.7 138.519 56.1C138.519 54.5133 138.993 53.2667 139.939 52.36C140.899 51.4533 142.226 51 143.919 51C144.959 51 145.879 51.1667 146.679 51.5C147.493 51.82 148.126 52.28 148.579 52.88C149.033 53.4667 149.259 54.14 149.259 54.9C149.259 55.4867 149.086 55.94 148.739 56.26C148.406 56.58 147.926 56.74 147.299 56.74H140.359C140.359 57.6733 140.673 58.4 141.299 58.92C141.939 59.4267 142.846 59.68 144.019 59.68C144.713 59.68 145.313 59.6067 145.819 59.46C146.339 59.3133 146.826 59.0733 147.279 58.74C147.613 58.5133 147.866 58.4 148.039 58.4C148.199 58.4 148.346 58.4667 148.479 58.6C148.666 58.7867 148.759 58.98 148.759 59.18C148.759 59.38 148.666 59.5667 148.479 59.74C147.386 60.7133 145.899 61.2 144.019 61.2ZM146.739 55.34C146.979 55.34 147.153 55.2933 147.259 55.2C147.366 55.1067 147.419 54.94 147.419 54.7C147.419 54.06 147.093 53.54 146.439 53.14C145.799 52.7267 144.959 52.52 143.919 52.52C142.839 52.52 141.979 52.7733 141.339 53.28C140.713 53.7867 140.399 54.4733 140.399 55.34H146.739ZM155.715 61.2C154.341 61.2 153.368 60.3733 152.795 58.72L150.435 52.12C150.395 52.0133 150.375 51.92 150.375 51.84C150.375 51.6667 150.435 51.5133 150.555 51.38C150.675 51.2333 150.835 51.1267 151.035 51.06C151.155 51.02 151.275 51 151.395 51C151.595 51 151.768 51.0533 151.915 51.16C152.061 51.2533 152.161 51.3867 152.215 51.56L154.635 58.34C154.808 58.8333 154.975 59.18 155.135 59.38C155.295 59.58 155.488 59.68 155.715 59.68C155.941 59.68 156.135 59.5867 156.295 59.4C156.455 59.2 156.621 58.86 156.795 58.38L159.215 51.56C159.281 51.3867 159.381 51.2533 159.515 51.16C159.661 51.0667 159.835 51.02 160.035 51.02C160.341 51.02 160.588 51.1067 160.775 51.28C160.961 51.44 161.055 51.6333 161.055 51.86C161.055 51.98 161.041 52.0667 161.015 52.12L158.635 58.76C158.328 59.5867 157.935 60.2 157.455 60.6C156.988 61 156.408 61.2 155.715 61.2ZM167.3 61.2C165.567 61.2 164.214 60.7533 163.24 59.86C162.28 58.9533 161.8 57.7 161.8 56.1C161.8 54.5133 162.274 53.2667 163.22 52.36C164.18 51.4533 165.507 51 167.2 51C168.24 51 169.16 51.1667 169.96 51.5C170.774 51.82 171.407 52.28 171.86 52.88C172.314 53.4667 172.54 54.14 172.54 54.9C172.54 55.4867 172.367 55.94 172.02 56.26C171.687 56.58 171.207 56.74 170.58 56.74H163.64C163.64 57.6733 163.954 58.4 164.58 58.92C165.22 59.4267 166.127 59.68 167.3 59.68C167.994 59.68 168.594 59.6067 169.1 59.46C169.62 59.3133 170.107 59.0733 170.56 58.74C170.894 58.5133 171.147 58.4 171.32 58.4C171.48 58.4 171.627 58.4667 171.76 58.6C171.947 58.7867 172.04 58.98 172.04 59.18C172.04 59.38 171.947 59.5667 171.76 59.74C170.667 60.7133 169.18 61.2 167.3 61.2ZM170.02 55.34C170.26 55.34 170.434 55.2933 170.54 55.2C170.647 55.1067 170.7 54.94 170.7 54.7C170.7 54.06 170.374 53.54 169.72 53.14C169.08 52.7267 168.24 52.52 167.2 52.52C166.12 52.52 165.26 52.7733 164.62 53.28C163.994 53.7867 163.68 54.4733 163.68 55.34H170.02ZM175.904 61.2C175.61 61.2 175.384 61.12 175.224 60.96C175.077 60.7867 175.004 60.5533 175.004 60.26V46.76C175.004 46.4533 175.077 46.22 175.224 46.06C175.384 45.9 175.61 45.82 175.904 45.82C176.197 45.82 176.424 45.9067 176.584 46.08C176.757 46.24 176.844 46.4667 176.844 46.76V60.26C176.844 60.5533 176.757 60.7867 176.584 60.96C176.424 61.12 176.197 61.2 175.904 61.2ZM184.98 61.2C183.82 61.2 182.813 60.9733 181.96 60.52C181.107 60.0667 180.453 59.4533 180 58.68C179.56 57.9067 179.34 57.0467 179.34 56.1C179.34 55.1533 179.56 54.2933 180 53.52C180.453 52.7467 181.107 52.1333 181.96 51.68C182.813 51.2267 183.82 51 184.98 51C186.14 51 187.14 51.2267 187.98 51.68C188.833 52.1333 189.48 52.7467 189.92 53.52C190.373 54.2933 190.6 55.1533 190.6 56.1C190.6 57.0467 190.373 57.9067 189.92 58.68C189.48 59.4533 188.833 60.0667 187.98 60.52C187.14 60.9733 186.14 61.2 184.98 61.2ZM184.98 59.66C186.127 59.66 187.04 59.3467 187.72 58.72C188.4 58.0933 188.74 57.22 188.74 56.1C188.74 54.98 188.4 54.1067 187.72 53.48C187.04 52.8533 186.127 52.54 184.98 52.54C183.833 52.54 182.913 52.8533 182.22 53.48C181.54 54.1067 181.2 54.98 181.2 56.1C181.2 57.22 181.54 58.0933 182.22 58.72C182.913 59.3467 183.833 59.66 184.98 59.66ZM193.589 66.98C193.296 66.98 193.069 66.8933 192.909 66.72C192.749 66.56 192.669 66.3333 192.669 66.04V51.94C192.669 51.6467 192.749 51.42 192.909 51.26C193.069 51.0867 193.296 51 193.589 51C193.883 51 194.109 51.0867 194.269 51.26C194.443 51.42 194.529 51.6467 194.529 51.94V52.92C195.063 52.28 195.669 51.8 196.349 51.48C197.043 51.16 197.856 51 198.789 51C200.389 51 201.649 51.4533 202.569 52.36C203.503 53.2533 203.969 54.48 203.969 56.04C203.969 57.08 203.756 57.9933 203.329 58.78C202.903 59.5533 202.289 60.1533 201.489 60.58C200.703 60.9933 199.776 61.2 198.709 61.2C197.843 61.2 197.069 61.0533 196.389 60.76C195.723 60.4533 195.109 59.9733 194.549 59.32L194.529 66.04C194.529 66.3333 194.443 66.56 194.269 66.72C194.109 66.8933 193.883 66.98 193.589 66.98ZM198.469 59.66C199.616 59.66 200.509 59.34 201.149 58.7C201.789 58.06 202.109 57.1667 202.109 56.02C202.109 54.9 201.789 54.04 201.149 53.44C200.523 52.84 199.623 52.54 198.449 52.54C197.236 52.54 196.276 52.8533 195.569 53.48C194.876 54.1067 194.529 54.96 194.529 56.04C194.529 57.1467 194.883 58.0267 195.589 58.68C196.309 59.3333 197.269 59.66 198.469 59.66ZM211.109 61.2C209.376 61.2 208.022 60.7533 207.049 59.86C206.089 58.9533 205.609 57.7 205.609 56.1C205.609 54.5133 206.082 53.2667 207.029 52.36C207.989 51.4533 209.316 51 211.009 51C212.049 51 212.969 51.1667 213.769 51.5C214.582 51.82 215.216 52.28 215.669 52.88C216.122 53.4667 216.349 54.14 216.349 54.9C216.349 55.4867 216.176 55.94 215.829 56.26C215.496 56.58 215.016 56.74 214.389 56.74H207.449C207.449 57.6733 207.762 58.4 208.389 58.92C209.029 59.4267 209.936 59.68 211.109 59.68C211.802 59.68 212.402 59.6067 212.909 59.46C213.429 59.3133 213.916 59.0733 214.369 58.74C214.702 58.5133 214.956 58.4 215.129 58.4C215.289 58.4 215.436 58.4667 215.569 58.6C215.756 58.7867 215.849 58.98 215.849 59.18C215.849 59.38 215.756 59.5667 215.569 59.74C214.476 60.7133 212.989 61.2 211.109 61.2ZM213.829 55.34C214.069 55.34 214.242 55.2933 214.349 55.2C214.456 55.1067 214.509 54.94 214.509 54.7C214.509 54.06 214.182 53.54 213.529 53.14C212.889 52.7267 212.049 52.52 211.009 52.52C209.929 52.52 209.069 52.7733 208.429 53.28C207.802 53.7867 207.489 54.4733 207.489 55.34H213.829ZM219.312 61.2C219.019 61.2 218.792 61.12 218.632 60.96C218.486 60.7867 218.412 60.5533 218.412 60.26V51.94C218.412 51.3133 218.712 51 219.312 51C219.592 51 219.812 51.0867 219.972 51.26C220.132 51.42 220.212 51.6467 220.212 51.94V52.96C221.092 51.7867 222.286 51.2 223.792 51.2H224.272C224.592 51.2 224.839 51.2667 225.012 51.4C225.186 51.5333 225.272 51.7267 225.272 51.98C225.272 52.22 225.179 52.4067 224.992 52.54C224.819 52.6733 224.579 52.74 224.272 52.74H223.672C222.619 52.74 221.786 53.0533 221.172 53.68C220.559 54.2933 220.252 55.1333 220.252 56.2V60.26C220.252 60.5533 220.166 60.7867 219.992 60.96C219.832 61.12 219.606 61.2 219.312 61.2Z" fill="#2A2A2A"/>
</svg>
