<svg width="105" height="44" viewBox="0 0 105 44" fill="none" xmlns="http://www.w3.org/2000/svg">
<rect x="0.347168" y="0.636963" width="103.747" height="43.1158" rx="8" fill="black"/>
<path d="M53.2869 26.9032C52.2322 26.9032 51.3175 26.7025 50.5429 26.3012C49.7682 25.8999 49.1755 25.3212 48.7649 24.5652C48.3542 23.8092 48.1489 22.9132 48.1489 21.8772C48.1489 20.8412 48.3542 19.9452 48.7649 19.1892C49.1755 18.4238 49.7635 17.8405 50.5289 17.4392C51.3035 17.0285 52.2135 16.8232 53.2589 16.8232C54.1269 16.8232 54.9295 16.9725 55.6669 17.2712C56.4042 17.5698 56.9502 17.9665 57.3049 18.4612C57.4169 18.6105 57.4729 18.7645 57.4729 18.9232C57.4729 19.1565 57.3469 19.3665 57.0949 19.5532C56.9829 19.6372 56.8429 19.6792 56.6749 19.6792C56.5349 19.6792 56.3949 19.6512 56.2549 19.5952C56.1149 19.5298 55.9982 19.4412 55.9049 19.3292C55.5876 18.9652 55.2189 18.7038 54.7989 18.5452C54.3789 18.3772 53.8655 18.2932 53.2589 18.2932C52.2415 18.2932 51.4482 18.6105 50.8789 19.2452C50.3095 19.8705 50.0249 20.7478 50.0249 21.8772C50.0249 22.9972 50.3095 23.8699 50.8789 24.4952C51.4575 25.1205 52.2602 25.4332 53.2869 25.4332C54.4629 25.4332 55.4009 25.0879 56.1009 24.3972C56.3902 24.1265 56.6562 23.9912 56.8989 23.9912C57.0669 23.9912 57.2209 24.0472 57.3609 24.1592C57.5756 24.3459 57.6829 24.5512 57.6829 24.7752C57.6829 24.9432 57.6222 25.1065 57.5009 25.2652C57.0995 25.7785 56.5255 26.1799 55.7789 26.4692C55.0415 26.7585 54.2109 26.9032 53.2869 26.9032ZM63.849 26.9032C62.9343 26.9032 62.0757 26.7539 61.273 26.4552C60.4703 26.1472 59.775 25.7085 59.187 25.1392C59.047 24.9992 58.977 24.8405 58.977 24.6632C58.977 24.4579 59.0703 24.2619 59.257 24.0752C59.4063 23.9259 59.5697 23.8512 59.747 23.8512C59.9337 23.8512 60.1577 23.9585 60.419 24.1732C60.8577 24.5745 61.3757 24.8872 61.973 25.1112C62.5797 25.3259 63.205 25.4332 63.849 25.4332C64.465 25.4332 64.9457 25.3305 65.291 25.1252C65.6363 24.9105 65.809 24.6119 65.809 24.2292C65.809 23.8279 65.6223 23.5059 65.249 23.2632C64.8757 23.0112 64.241 22.7872 63.345 22.5912C61.9357 22.2832 60.909 21.8772 60.265 21.3732C59.6303 20.8692 59.313 20.2205 59.313 19.4272C59.313 18.9232 59.481 18.4752 59.817 18.0832C60.153 17.6818 60.6197 17.3738 61.217 17.1592C61.8237 16.9352 62.5143 16.8232 63.289 16.8232C64.157 16.8232 64.927 16.9678 65.599 17.2572C66.2803 17.5372 66.7983 17.9338 67.153 18.4472C67.2743 18.6432 67.335 18.8112 67.335 18.9512C67.3257 19.1845 67.209 19.3852 66.985 19.5532C66.8637 19.6372 66.7237 19.6792 66.565 19.6792C66.2757 19.6792 66.0377 19.5672 65.851 19.3432C65.5803 19.0165 65.2163 18.7599 64.759 18.5732C64.311 18.3865 63.821 18.2932 63.289 18.2932C62.6263 18.2932 62.1083 18.3959 61.735 18.6012C61.371 18.7972 61.189 19.0725 61.189 19.4272C61.189 19.7818 61.3663 20.0758 61.721 20.3092C62.085 20.5332 62.7103 20.7479 63.597 20.9532C64.577 21.1865 65.3657 21.4525 65.963 21.7512C66.5603 22.0405 66.9943 22.3859 67.265 22.7872C67.545 23.1885 67.685 23.6692 67.685 24.2292C67.685 24.7612 67.5263 25.2325 67.209 25.6432C66.8917 26.0445 66.4437 26.3572 65.865 26.5812C65.2863 26.7959 64.6143 26.9032 63.849 26.9032ZM73.8431 26.9032C72.9285 26.9032 72.0698 26.7539 71.2671 26.4552C70.4645 26.1472 69.7691 25.7085 69.1811 25.1392C69.0411 24.9992 68.9711 24.8405 68.9711 24.6632C68.9711 24.4579 69.0645 24.2619 69.2511 24.0752C69.4005 23.9259 69.5638 23.8512 69.7411 23.8512C69.9278 23.8512 70.1518 23.9585 70.4131 24.1732C70.8518 24.5745 71.3698 24.8872 71.9671 25.1112C72.5738 25.3259 73.1991 25.4332 73.8431 25.4332C74.4591 25.4332 74.9398 25.3305 75.2851 25.1252C75.6305 24.9105 75.8031 24.6119 75.8031 24.2292C75.8031 23.8279 75.6165 23.5059 75.2431 23.2632C74.8698 23.0112 74.2351 22.7872 73.3391 22.5912C71.9298 22.2832 70.9031 21.8772 70.2591 21.3732C69.6245 20.8692 69.3071 20.2205 69.3071 19.4272C69.3071 18.9232 69.4751 18.4752 69.8111 18.0832C70.1471 17.6818 70.6138 17.3738 71.2111 17.1592C71.8178 16.9352 72.5085 16.8232 73.2831 16.8232C74.1511 16.8232 74.9211 16.9678 75.5931 17.2572C76.2745 17.5372 76.7925 17.9338 77.1471 18.4472C77.2685 18.6432 77.3291 18.8112 77.3291 18.9512C77.3198 19.1845 77.2031 19.3852 76.9791 19.5532C76.8578 19.6372 76.7178 19.6792 76.5591 19.6792C76.2698 19.6792 76.0318 19.5672 75.8451 19.3432C75.5745 19.0165 75.2105 18.7599 74.7531 18.5732C74.3051 18.3865 73.8151 18.2932 73.2831 18.2932C72.6205 18.2932 72.1025 18.3959 71.7291 18.6012C71.3651 18.7972 71.1831 19.0725 71.1831 19.4272C71.1831 19.7818 71.3605 20.0758 71.7151 20.3092C72.0791 20.5332 72.7045 20.7479 73.5911 20.9532C74.5711 21.1865 75.3598 21.4525 75.9571 21.7512C76.5545 22.0405 76.9885 22.3859 77.2591 22.7872C77.5391 23.1885 77.6791 23.6692 77.6791 24.2292C77.6791 24.7612 77.5205 25.2325 77.2031 25.6432C76.8858 26.0445 76.4378 26.3572 75.8591 26.5812C75.2805 26.7959 74.6085 26.9032 73.8431 26.9032ZM83.0813 26.9032C82.26 26.9032 81.504 26.7539 80.8133 26.4552C80.1226 26.1565 79.5533 25.7319 79.1053 25.1812C78.956 25.0039 78.8813 24.8125 78.8813 24.6072C78.8813 24.3365 79.0073 24.1172 79.2593 23.9492C79.4086 23.8372 79.5673 23.7812 79.7353 23.7812C79.9966 23.7812 80.23 23.9212 80.4353 24.2012C80.7433 24.6025 81.1213 24.9105 81.5693 25.1252C82.0266 25.3305 82.5306 25.4332 83.0813 25.4332C83.8 25.4332 84.3553 25.3072 84.7473 25.0552C85.1393 24.8032 85.3353 24.4485 85.3353 23.9912C85.3353 23.4219 85.2093 23.0065 84.9573 22.7452C84.7053 22.4839 84.3086 22.3532 83.7673 22.3532H82.2413C81.9613 22.3532 81.7373 22.2878 81.5693 22.1572C81.4106 22.0265 81.3313 21.8538 81.3313 21.6392C81.3313 21.4058 81.4106 21.2285 81.5693 21.1072C81.728 20.9765 81.952 20.9112 82.2413 20.9112H83.7673C84.178 20.9112 84.5 20.7945 84.7333 20.5612C84.976 20.3185 85.0973 19.9825 85.0973 19.5532C85.0973 19.1425 84.9246 18.8299 84.5793 18.6152C84.234 18.4005 83.7346 18.2932 83.0813 18.2932C82.1293 18.2932 81.3686 18.6198 80.7993 19.2732C80.5566 19.5438 80.3186 19.6792 80.0853 19.6792C79.9266 19.6792 79.7726 19.6232 79.6233 19.5112C79.3713 19.3432 79.2453 19.1239 79.2453 18.8532C79.2453 18.6385 79.3293 18.4472 79.4973 18.2792C79.9453 17.8125 80.4773 17.4532 81.0933 17.2012C81.7093 16.9492 82.372 16.8232 83.0813 16.8232C83.8466 16.8232 84.5186 16.9398 85.0973 17.1732C85.6853 17.3972 86.1426 17.7192 86.4693 18.1392C86.796 18.5498 86.9593 19.0212 86.9593 19.5532C86.9593 19.9638 86.8426 20.3419 86.6093 20.6872C86.3853 21.0325 86.054 21.3265 85.6153 21.5692V21.5972C86.1566 21.8585 86.5533 22.1852 86.8053 22.5772C87.0666 22.9692 87.1973 23.4405 87.1973 23.9912C87.1973 24.9152 86.838 25.6339 86.1193 26.1472C85.4006 26.6512 84.388 26.9032 83.0813 26.9032Z" fill="white"/>
<path d="M13.8208 11.416H31.3952L29.7967 29.5743L22.5887 31.6265L15.4209 29.5735L13.8208 11.416ZM28.123 15.1322L17.093 15.1297L17.2712 17.3377L25.7446 17.3394L25.5312 19.6265H19.9743L20.1752 21.7933H25.3487L25.0425 24.76L22.6071 25.4371L20.1333 24.755L19.976 22.9781H17.7918L18.0345 26.2244L22.608 27.6585L27.1045 26.3701L28.123 15.1322Z" fill="white"/>
</svg>
