<svg width="77" height="32" viewBox="0 0 77 32" fill="none" xmlns="http://www.w3.org/2000/svg">
<rect width="77" height="32" rx="8" fill="black"/>
<path d="M39.543 20.11C38.7143 20.11 37.9957 19.9523 37.387 19.637C36.7783 19.3217 36.3127 18.867 35.99 18.273C35.6673 17.679 35.506 16.975 35.506 16.161C35.506 15.347 35.6673 14.643 35.99 14.049C36.3127 13.4477 36.7747 12.9893 37.376 12.674C37.9847 12.3513 38.6997 12.19 39.521 12.19C40.203 12.19 40.8337 12.3073 41.413 12.542C41.9923 12.7767 42.4213 13.0883 42.7 13.477C42.788 13.5943 42.832 13.7153 42.832 13.84C42.832 14.0233 42.733 14.1883 42.535 14.335C42.447 14.401 42.337 14.434 42.205 14.434C42.095 14.434 41.985 14.412 41.875 14.368C41.765 14.3167 41.6733 14.247 41.6 14.159C41.3507 13.873 41.061 13.6677 40.731 13.543C40.401 13.411 39.9977 13.345 39.521 13.345C38.7217 13.345 38.0983 13.5943 37.651 14.093C37.2037 14.5843 36.98 15.2737 36.98 16.161C36.98 17.041 37.2037 17.7267 37.651 18.218C38.1057 18.7093 38.7363 18.955 39.543 18.955C40.467 18.955 41.204 18.6837 41.754 18.141C41.9813 17.9283 42.1903 17.822 42.381 17.822C42.513 17.822 42.634 17.866 42.744 17.954C42.9127 18.1007 42.997 18.262 42.997 18.438C42.997 18.57 42.9493 18.6983 42.854 18.823C42.5387 19.2263 42.0877 19.5417 41.501 19.769C40.9217 19.9963 40.269 20.11 39.543 20.11ZM47.8418 20.11C47.1231 20.11 46.4485 19.9927 45.8178 19.758C45.1871 19.516 44.6408 19.1713 44.1788 18.724C44.0688 18.614 44.0138 18.4893 44.0138 18.35C44.0138 18.1887 44.0871 18.0347 44.2338 17.888C44.3511 17.7707 44.4795 17.712 44.6188 17.712C44.7655 17.712 44.9415 17.7963 45.1468 17.965C45.4915 18.2803 45.8985 18.526 46.3678 18.702C46.8445 18.8707 47.3358 18.955 47.8418 18.955C48.3258 18.955 48.7035 18.8743 48.9748 18.713C49.2461 18.5443 49.3818 18.3097 49.3818 18.009C49.3818 17.6937 49.2351 17.4407 48.9418 17.25C48.6485 17.052 48.1498 16.876 47.4458 16.722C46.3385 16.48 45.5318 16.161 45.0258 15.765C44.5271 15.369 44.2778 14.8593 44.2778 14.236C44.2778 13.84 44.4098 13.488 44.6738 13.18C44.9378 12.8647 45.3045 12.6227 45.7738 12.454C46.2505 12.278 46.7931 12.19 47.4018 12.19C48.0838 12.19 48.6888 12.3037 49.2168 12.531C49.7521 12.751 50.1591 13.0627 50.4378 13.466C50.5331 13.62 50.5808 13.752 50.5808 13.862C50.5735 14.0453 50.4818 14.203 50.3058 14.335C50.2105 14.401 50.1005 14.434 49.9758 14.434C49.7485 14.434 49.5615 14.346 49.4148 14.17C49.2021 13.9133 48.9161 13.7117 48.5568 13.565C48.2048 13.4183 47.8198 13.345 47.4018 13.345C46.8811 13.345 46.4741 13.4257 46.1808 13.587C45.8948 13.741 45.7518 13.9573 45.7518 14.236C45.7518 14.5147 45.8911 14.7457 46.1698 14.929C46.4558 15.105 46.9471 15.2737 47.6438 15.435C48.4138 15.6183 49.0335 15.8273 49.5028 16.062C49.9721 16.2893 50.3131 16.5607 50.5258 16.876C50.7458 17.1913 50.8558 17.569 50.8558 18.009C50.8558 18.427 50.7311 18.7973 50.4818 19.12C50.2325 19.4353 49.8805 19.681 49.4258 19.857C48.9711 20.0257 48.4431 20.11 47.8418 20.11ZM55.6944 20.11C54.9757 20.11 54.301 19.9927 53.6704 19.758C53.0397 19.516 52.4934 19.1713 52.0314 18.724C51.9214 18.614 51.8664 18.4893 51.8664 18.35C51.8664 18.1887 51.9397 18.0347 52.0864 17.888C52.2037 17.7707 52.332 17.712 52.4714 17.712C52.618 17.712 52.794 17.7963 52.9994 17.965C53.344 18.2803 53.751 18.526 54.2204 18.702C54.697 18.8707 55.1884 18.955 55.6944 18.955C56.1784 18.955 56.556 18.8743 56.8274 18.713C57.0987 18.5443 57.2344 18.3097 57.2344 18.009C57.2344 17.6937 57.0877 17.4407 56.7944 17.25C56.501 17.052 56.0024 16.876 55.2984 16.722C54.191 16.48 53.3844 16.161 52.8784 15.765C52.3797 15.369 52.1304 14.8593 52.1304 14.236C52.1304 13.84 52.2624 13.488 52.5264 13.18C52.7904 12.8647 53.157 12.6227 53.6264 12.454C54.103 12.278 54.6457 12.19 55.2544 12.19C55.9364 12.19 56.5414 12.3037 57.0694 12.531C57.6047 12.751 58.0117 13.0627 58.2904 13.466C58.3857 13.62 58.4334 13.752 58.4334 13.862C58.426 14.0453 58.3344 14.203 58.1584 14.335C58.063 14.401 57.953 14.434 57.8284 14.434C57.601 14.434 57.414 14.346 57.2674 14.17C57.0547 13.9133 56.7687 13.7117 56.4094 13.565C56.0574 13.4183 55.6724 13.345 55.2544 13.345C54.7337 13.345 54.3267 13.4257 54.0334 13.587C53.7474 13.741 53.6044 13.9573 53.6044 14.236C53.6044 14.5147 53.7437 14.7457 54.0224 14.929C54.3084 15.105 54.7997 15.2737 55.4964 15.435C56.2664 15.6183 56.886 15.8273 57.3554 16.062C57.8247 16.2893 58.1657 16.5607 58.3784 16.876C58.5984 17.1913 58.7084 17.569 58.7084 18.009C58.7084 18.427 58.5837 18.7973 58.3344 19.12C58.085 19.4353 57.733 19.681 57.2784 19.857C56.8237 20.0257 56.2957 20.11 55.6944 20.11ZM62.9529 20.11C62.3076 20.11 61.7136 19.9927 61.1709 19.758C60.6282 19.5233 60.1809 19.1897 59.8289 18.757C59.7116 18.6177 59.6529 18.4673 59.6529 18.306C59.6529 18.0933 59.7519 17.921 59.9499 17.789C60.0672 17.701 60.1919 17.657 60.3239 17.657C60.5292 17.657 60.7126 17.767 60.8739 17.987C61.1159 18.3023 61.4129 18.5443 61.7649 18.713C62.1242 18.8743 62.5202 18.955 62.9529 18.955C63.5176 18.955 63.9539 18.856 64.2619 18.658C64.5699 18.46 64.7239 18.1813 64.7239 17.822C64.7239 17.3747 64.6249 17.0483 64.4269 16.843C64.2289 16.6377 63.9172 16.535 63.4919 16.535H62.2929C62.0729 16.535 61.8969 16.4837 61.7649 16.381C61.6402 16.2783 61.5779 16.1427 61.5779 15.974C61.5779 15.7907 61.6402 15.6513 61.7649 15.556C61.8896 15.4533 62.0656 15.402 62.2929 15.402H63.4919C63.8146 15.402 64.0676 15.3103 64.2509 15.127C64.4416 14.9363 64.5369 14.6723 64.5369 14.335C64.5369 14.0123 64.4012 13.7667 64.1299 13.598C63.8586 13.4293 63.4662 13.345 62.9529 13.345C62.2049 13.345 61.6072 13.6017 61.1599 14.115C60.9692 14.3277 60.7822 14.434 60.5989 14.434C60.4742 14.434 60.3532 14.39 60.2359 14.302C60.0379 14.17 59.9389 13.9977 59.9389 13.785C59.9389 13.6163 60.0049 13.466 60.1369 13.334C60.4889 12.9673 60.9069 12.685 61.3909 12.487C61.8749 12.289 62.3956 12.19 62.9529 12.19C63.5542 12.19 64.0822 12.2817 64.5369 12.465C64.9989 12.641 65.3582 12.894 65.6149 13.224C65.8716 13.5467 65.9999 13.917 65.9999 14.335C65.9999 14.6577 65.9082 14.9547 65.7249 15.226C65.5489 15.4973 65.2886 15.7283 64.9439 15.919V15.941C65.3692 16.1463 65.6809 16.403 65.8789 16.711C66.0842 17.019 66.1869 17.3893 66.1869 17.822C66.1869 18.548 65.9046 19.1127 65.3399 19.516C64.7752 19.912 63.9796 20.11 62.9529 20.11Z" fill="white"/>
<path d="M10 8H23.0435L21.8571 21.4769L16.5075 23L11.1876 21.4763L10 8ZM20.6149 10.7581L12.4286 10.7562L12.5609 12.395L18.8497 12.3962L18.6913 14.0938H14.5671L14.7161 15.7019H18.5559L18.3286 17.9037L16.5211 18.4062L14.6851 17.9L14.5683 16.5812H12.9472L13.1273 18.9906L16.5217 20.055L19.859 19.0987L20.6149 10.7581Z" fill="white"/>
</svg>
