<svg width="127" height="44" viewBox="0 0 127 44" fill="none" xmlns="http://www.w3.org/2000/svg">
<rect x="0.347168" y="0.42627" width="126.653" height="43.1158" rx="8" fill="black"/>
<path d="M55.9185 25.2053C55.2092 25.2053 54.6585 25.0187 54.2665 24.6453C53.8745 24.272 53.6785 23.7493 53.6785 23.0773V17.4773C53.6785 16.824 53.8652 16.3153 54.2385 15.9513C54.6212 15.5873 55.1485 15.4053 55.8205 15.4053H60.1745C60.4545 15.4053 60.6692 15.4707 60.8185 15.6013C60.9679 15.7227 61.0425 15.9 61.0425 16.1333C61.0425 16.3573 60.9632 16.5347 60.8045 16.6653C60.6552 16.7867 60.4452 16.8473 60.1745 16.8473H56.1425C55.9559 16.8473 55.8065 16.908 55.6945 17.0293C55.5919 17.1507 55.5405 17.3187 55.5405 17.5333V19.4793H59.1105C59.3905 19.4793 59.6052 19.5447 59.7545 19.6753C59.9039 19.7967 59.9785 19.974 59.9785 20.2073C59.9785 20.4313 59.8992 20.6087 59.7405 20.7393C59.5912 20.8607 59.3812 20.9213 59.1105 20.9213H55.5405V23.0773C55.5405 23.292 55.5919 23.46 55.6945 23.5813C55.8065 23.7027 55.9559 23.7633 56.1425 23.7633H60.4825C60.7625 23.7633 60.9772 23.8287 61.1265 23.9593C61.2759 24.0807 61.3505 24.258 61.3505 24.4913C61.3505 24.7153 61.2712 24.8927 61.1125 25.0233C60.9632 25.1447 60.7532 25.2053 60.4825 25.2053H55.9185ZM68.8018 24.0433C68.9511 24.1927 69.0258 24.37 69.0258 24.5753C69.0258 24.7993 68.9325 24.9907 68.7458 25.1493C68.5965 25.2707 68.4285 25.3313 68.2418 25.3313C67.9898 25.3313 67.7565 25.224 67.5418 25.0093L65.5258 22.8533L63.4958 25.0093C63.2811 25.224 63.0478 25.3313 62.7958 25.3313C62.6091 25.3313 62.4411 25.2707 62.2918 25.1493C62.1051 24.9907 62.0118 24.7993 62.0118 24.5753C62.0118 24.37 62.0865 24.1927 62.2358 24.0433L64.4338 21.7053L62.4178 19.5633C62.2405 19.3673 62.1518 19.1667 62.1518 18.9613C62.1518 18.7373 62.2451 18.546 62.4318 18.3873C62.5625 18.266 62.7258 18.2053 62.9218 18.2053C63.1738 18.2053 63.4211 18.3267 63.6638 18.5693L65.5258 20.5433L67.3738 18.5693C67.6165 18.3267 67.8638 18.2053 68.1158 18.2053C68.3118 18.2053 68.4751 18.266 68.6058 18.3873C68.7925 18.546 68.8858 18.7373 68.8858 18.9613C68.8858 19.1667 68.7971 19.3673 68.6198 19.5633L66.6038 21.7053L68.8018 24.0433ZM71.0872 29.3913C70.7979 29.3913 70.5739 29.3167 70.4152 29.1673C70.2565 29.018 70.1772 28.8127 70.1772 28.5513V19.0453C70.1772 18.784 70.2565 18.5787 70.4152 18.4293C70.5739 18.28 70.7979 18.2053 71.0872 18.2053C71.3672 18.2053 71.5912 18.28 71.7592 18.4293C71.9272 18.5787 72.0112 18.784 72.0112 19.0453V19.3253C72.4125 18.9333 72.8279 18.6487 73.2572 18.4713C73.6959 18.294 74.1905 18.2053 74.7412 18.2053C75.4692 18.2053 76.1039 18.35 76.6452 18.6393C77.1959 18.9287 77.6159 19.344 77.9052 19.8853C78.2039 20.4173 78.3532 21.0473 78.3532 21.7753C78.3532 22.494 78.2039 23.124 77.9052 23.6653C77.6065 24.2067 77.1819 24.622 76.6312 24.9113C76.0805 25.2007 75.4319 25.3453 74.6852 25.3453C74.1252 25.3453 73.6352 25.2613 73.2152 25.0933C72.7952 24.916 72.3985 24.636 72.0252 24.2533L72.0112 28.5513C72.0112 28.8127 71.9272 29.018 71.7592 29.1673C71.5912 29.3167 71.3672 29.3913 71.0872 29.3913ZM74.3072 23.8893C74.9979 23.8893 75.5345 23.7073 75.9172 23.3433C76.3092 22.97 76.5052 22.4473 76.5052 21.7753C76.5052 21.1033 76.3092 20.5853 75.9172 20.2213C75.5345 19.848 74.9979 19.6613 74.3072 19.6613C73.5885 19.6613 73.0239 19.8527 72.6132 20.2353C72.2119 20.6087 72.0112 21.122 72.0112 21.7753C72.0112 22.4287 72.2119 22.9467 72.6132 23.3293C73.0239 23.7027 73.5885 23.8893 74.3072 23.8893ZM80.4114 25.3453C80.1221 25.3453 79.8981 25.2707 79.7394 25.1213C79.5808 24.972 79.5014 24.7667 79.5014 24.5053V19.0453C79.5014 18.7747 79.5761 18.5693 79.7254 18.4293C79.8841 18.28 80.1034 18.2053 80.3834 18.2053C80.6634 18.2053 80.8828 18.28 81.0414 18.4293C81.2001 18.5787 81.2794 18.784 81.2794 19.0453V19.5073C81.5688 19.134 81.9048 18.8493 82.2874 18.6533C82.6794 18.448 83.0994 18.3453 83.5474 18.3453H83.8554C84.1541 18.3453 84.3828 18.4107 84.5414 18.5413C84.7094 18.6627 84.7934 18.84 84.7934 19.0733C84.7934 19.3067 84.7094 19.4887 84.5414 19.6193C84.3828 19.7407 84.1541 19.8013 83.8554 19.8013H83.3794C82.7541 19.8013 82.2548 20.002 81.8814 20.4033C81.5174 20.7953 81.3354 21.3367 81.3354 22.0273V24.5053C81.3354 24.7667 81.2514 24.972 81.0834 25.1213C80.9154 25.2707 80.6914 25.3453 80.4114 25.3453ZM88.8605 25.3453C88.0579 25.3453 87.3579 25.2007 86.7605 24.9113C86.1632 24.622 85.7012 24.216 85.3745 23.6933C85.0572 23.1613 84.8985 22.5407 84.8985 21.8313C84.8985 20.6833 85.2299 19.792 85.8925 19.1573C86.5645 18.5227 87.5072 18.2053 88.7205 18.2053C89.4672 18.2053 90.1252 18.322 90.6945 18.5553C91.2732 18.7887 91.7212 19.1153 92.0385 19.5353C92.3652 19.946 92.5285 20.4173 92.5285 20.9493C92.5285 21.3973 92.3839 21.7427 92.0945 21.9853C91.8145 22.228 91.4132 22.3493 90.8905 22.3493H86.6765C86.6765 22.872 86.8585 23.2687 87.2225 23.5393C87.5959 23.8007 88.1419 23.9313 88.8605 23.9313C89.6165 23.9313 90.2605 23.7633 90.7925 23.4273C91.0912 23.2407 91.3245 23.1473 91.4925 23.1473C91.6512 23.1473 91.8052 23.222 91.9545 23.3713C92.1132 23.53 92.1925 23.7027 92.1925 23.8893C92.1925 24.1133 92.0992 24.2907 91.9125 24.4213C91.5205 24.72 91.0632 24.9487 90.5405 25.1073C90.0179 25.266 89.4579 25.3453 88.8605 25.3453ZM90.3305 21.0613C90.4892 21.0613 90.6012 21.0333 90.6665 20.9773C90.7319 20.912 90.7645 20.8093 90.7645 20.6693C90.7645 20.3427 90.5779 20.086 90.2045 19.8993C89.8405 19.7127 89.3459 19.6193 88.7205 19.6193C88.0952 19.6193 87.6005 19.75 87.2365 20.0113C86.8819 20.2727 86.7045 20.6227 86.7045 21.0613H90.3305ZM97.0812 25.3453C95.5785 25.3453 94.4725 24.9113 93.7632 24.0433C93.6138 23.8473 93.5392 23.67 93.5392 23.5113C93.5392 23.2873 93.6558 23.0913 93.8892 22.9233C94.0478 22.8207 94.2018 22.7693 94.3512 22.7693C94.5565 22.7693 94.7478 22.858 94.9252 23.0353C95.2425 23.3527 95.5505 23.5813 95.8492 23.7213C96.1572 23.852 96.5352 23.9173 96.9832 23.9173C97.3658 23.9173 97.6878 23.866 97.9492 23.7633C98.2105 23.6607 98.3412 23.5347 98.3412 23.3853C98.3412 23.1987 98.2338 23.04 98.0192 22.9093C97.8045 22.7787 97.3705 22.6107 96.7172 22.4053C95.6905 22.088 94.9625 21.7567 94.5332 21.4113C94.1038 21.0567 93.8892 20.618 93.8892 20.0953C93.8892 19.5073 94.1412 19.0453 94.6452 18.7093C95.1492 18.3733 95.8445 18.2053 96.7312 18.2053C97.4125 18.2053 98.0285 18.308 98.5792 18.5133C99.1298 18.7187 99.5312 18.994 99.7832 19.3393C99.9045 19.498 99.9652 19.6567 99.9652 19.8153C99.9652 20.0393 99.8532 20.2213 99.6292 20.3613C99.4705 20.464 99.3072 20.5153 99.1392 20.5153C98.8685 20.5153 98.6212 20.4033 98.3972 20.1793C98.2105 20.002 97.9678 19.8667 97.6692 19.7733C97.3798 19.68 97.0625 19.6333 96.7172 19.6333C96.0638 19.6333 95.7372 19.7873 95.7372 20.0953C95.7372 20.2167 95.7885 20.324 95.8912 20.4173C95.9938 20.5107 96.1758 20.6087 96.4372 20.7113C96.7078 20.814 97.1278 20.954 97.6972 21.1313C98.6118 21.4113 99.2512 21.7193 99.6152 22.0553C99.9885 22.3913 100.175 22.8347 100.175 23.3853C100.175 23.9733 99.9045 24.4493 99.3632 24.8133C98.8218 25.168 98.0612 25.3453 97.0812 25.3453ZM104.724 25.3453C103.221 25.3453 102.115 24.9113 101.406 24.0433C101.256 23.8473 101.182 23.67 101.182 23.5113C101.182 23.2873 101.298 23.0913 101.532 22.9233C101.69 22.8207 101.844 22.7693 101.994 22.7693C102.199 22.7693 102.39 22.858 102.568 23.0353C102.885 23.3527 103.193 23.5813 103.492 23.7213C103.8 23.852 104.178 23.9173 104.626 23.9173C105.008 23.9173 105.33 23.866 105.592 23.7633C105.853 23.6607 105.984 23.5347 105.984 23.3853C105.984 23.1987 105.876 23.04 105.662 22.9093C105.447 22.7787 105.013 22.6107 104.36 22.4053C103.333 22.088 102.605 21.7567 102.176 21.4113C101.746 21.0567 101.532 20.618 101.532 20.0953C101.532 19.5073 101.784 19.0453 102.288 18.7093C102.792 18.3733 103.487 18.2053 104.374 18.2053C105.055 18.2053 105.671 18.308 106.222 18.5133C106.772 18.7187 107.174 18.994 107.426 19.3393C107.547 19.498 107.608 19.6567 107.608 19.8153C107.608 20.0393 107.496 20.2213 107.272 20.3613C107.113 20.464 106.95 20.5153 106.782 20.5153C106.511 20.5153 106.264 20.4033 106.04 20.1793C105.853 20.002 105.61 19.8667 105.312 19.7733C105.022 19.68 104.705 19.6333 104.36 19.6333C103.706 19.6333 103.38 19.7873 103.38 20.0953C103.38 20.2167 103.431 20.324 103.534 20.4173C103.636 20.5107 103.818 20.6087 104.08 20.7113C104.35 20.814 104.77 20.954 105.34 21.1313C106.254 21.4113 106.894 21.7193 107.258 22.0553C107.631 22.3913 107.818 22.8347 107.818 23.3853C107.818 23.9733 107.547 24.4493 107.006 24.8133C106.464 25.168 105.704 25.3453 104.724 25.3453Z" fill="white"/>
<path d="M43.4629 29.5974C43.0315 29.7635 42.5553 29.7632 42.1241 29.5963C41.6929 29.4295 41.3366 29.1077 41.1224 28.6917L36.8614 22.6908L36.2438 21.8519L31.2998 28.6993C31.0984 29.0978 30.7615 29.408 30.3518 29.5719C29.9422 29.7358 29.488 29.7422 29.0741 29.5898L35.4447 20.8859L29.5188 13.0234C29.9449 12.867 30.4109 12.865 30.8383 13.0175C31.2657 13.1701 31.6285 13.468 31.8654 13.8611L36.2821 19.9362L40.7235 13.8863C40.9264 13.4948 41.2634 13.1929 41.6706 13.038C42.0777 12.8831 42.5266 12.886 42.9318 13.0461L40.6321 16.1541L37.5172 20.2834C37.4307 20.362 37.3615 20.4583 37.3141 20.566C37.2667 20.6738 37.2422 20.7905 37.2422 20.9085C37.2422 21.0266 37.2667 21.1433 37.3141 21.251C37.3615 21.3587 37.4307 21.4551 37.5172 21.5336L43.4506 29.5986L43.4629 29.5974ZM13.8233 20.7777L14.342 18.1678C15.7673 13.0071 21.5772 10.86 25.5739 14.0548C27.9144 15.9277 28.4986 18.5791 28.3837 21.5676H15.1992C14.9855 26.9044 18.7673 30.1269 23.6027 28.4804C24.3866 28.1931 25.0882 27.7122 25.6447 27.0809C26.2013 26.4496 26.5954 25.6875 26.7917 24.863C27.0474 24.0253 27.4685 23.8819 28.2417 24.1234C28.1129 25.1452 27.7582 26.124 27.2043 26.9861C26.6505 27.8481 25.9118 28.5711 25.0441 29.1005C23.6106 29.899 21.966 30.2155 20.3453 30.0047C18.7246 29.7939 17.2109 29.0667 16.0205 27.927C14.8435 26.5779 14.1322 24.8737 13.995 23.0744C13.995 22.7789 13.8962 22.5021 13.8295 22.2368C13.8234 21.7508 13.8206 21.2649 13.8208 20.779L13.8233 20.7777ZM15.2152 20.418H27.1388C27.0647 16.549 24.6674 13.8045 21.4697 13.7793C17.9102 13.729 15.3634 16.4132 15.2066 20.4004L15.2152 20.418Z" fill="white"/>
</svg>
