<svg width="94" height="32" viewBox="0 0 94 32" fill="none" xmlns="http://www.w3.org/2000/svg">
<rect width="94" height="32" rx="8" fill="black"/>
<path d="M41.376 19C40.8187 19 40.386 18.8533 40.078 18.56C39.77 18.2667 39.616 17.856 39.616 17.328V12.928C39.616 12.4147 39.7627 12.015 40.056 11.729C40.3567 11.443 40.771 11.3 41.299 11.3H44.72C44.94 11.3 45.1087 11.3513 45.226 11.454C45.3433 11.5493 45.402 11.6887 45.402 11.872C45.402 12.048 45.3397 12.1873 45.215 12.29C45.0977 12.3853 44.9327 12.433 44.72 12.433H41.552C41.4053 12.433 41.288 12.4807 41.2 12.576C41.1193 12.6713 41.079 12.8033 41.079 12.972V14.501H43.884C44.104 14.501 44.2727 14.5523 44.39 14.655C44.5073 14.7503 44.566 14.8897 44.566 15.073C44.566 15.249 44.5037 15.3883 44.379 15.491C44.2617 15.5863 44.0967 15.634 43.884 15.634H41.079V17.328C41.079 17.4967 41.1193 17.6287 41.2 17.724C41.288 17.8193 41.4053 17.867 41.552 17.867H44.962C45.182 17.867 45.3507 17.9183 45.468 18.021C45.5853 18.1163 45.644 18.2557 45.644 18.439C45.644 18.615 45.5817 18.7543 45.457 18.857C45.3397 18.9523 45.1747 19 44.962 19H41.376ZM51.4986 18.087C51.6159 18.2043 51.6746 18.3437 51.6746 18.505C51.6746 18.681 51.6012 18.8313 51.4546 18.956C51.3372 19.0513 51.2052 19.099 51.0586 19.099C50.8606 19.099 50.6772 19.0147 50.5086 18.846L48.9246 17.152L47.3296 18.846C47.1609 19.0147 46.9776 19.099 46.7796 19.099C46.6329 19.099 46.5009 19.0513 46.3836 18.956C46.2369 18.8313 46.1636 18.681 46.1636 18.505C46.1636 18.3437 46.2222 18.2043 46.3396 18.087L48.0666 16.25L46.4826 14.567C46.3432 14.413 46.2736 14.2553 46.2736 14.094C46.2736 13.918 46.3469 13.7677 46.4936 13.643C46.5962 13.5477 46.7246 13.5 46.8786 13.5C47.0766 13.5 47.2709 13.5953 47.4616 13.786L48.9246 15.337L50.3766 13.786C50.5672 13.5953 50.7616 13.5 50.9596 13.5C51.1136 13.5 51.2419 13.5477 51.3446 13.643C51.4912 13.7677 51.5646 13.918 51.5646 14.094C51.5646 14.2553 51.4949 14.413 51.3556 14.567L49.7716 16.25L51.4986 18.087ZM53.2942 22.289C53.0669 22.289 52.8909 22.2303 52.7662 22.113C52.6416 21.9957 52.5792 21.8343 52.5792 21.629V14.16C52.5792 13.9547 52.6416 13.7933 52.7662 13.676C52.8909 13.5587 53.0669 13.5 53.2942 13.5C53.5142 13.5 53.6902 13.5587 53.8222 13.676C53.9542 13.7933 54.0202 13.9547 54.0202 14.16V14.38C54.3356 14.072 54.6619 13.8483 54.9992 13.709C55.3439 13.5697 55.7326 13.5 56.1652 13.5C56.7372 13.5 57.2359 13.6137 57.6612 13.841C58.0939 14.0683 58.4239 14.3947 58.6512 14.82C58.8859 15.238 59.0032 15.733 59.0032 16.305C59.0032 16.8697 58.8859 17.3647 58.6512 17.79C58.4166 18.2153 58.0829 18.5417 57.6502 18.769C57.2176 18.9963 56.7079 19.11 56.1212 19.11C55.6812 19.11 55.2962 19.044 54.9662 18.912C54.6362 18.7727 54.3246 18.5527 54.0312 18.252L54.0202 21.629C54.0202 21.8343 53.9542 21.9957 53.8222 22.113C53.6902 22.2303 53.5142 22.289 53.2942 22.289ZM55.8242 17.966C56.3669 17.966 56.7886 17.823 57.0892 17.537C57.3972 17.2437 57.5512 16.833 57.5512 16.305C57.5512 15.777 57.3972 15.37 57.0892 15.084C56.7886 14.7907 56.3669 14.644 55.8242 14.644C55.2596 14.644 54.8159 14.7943 54.4932 15.095C54.1779 15.3883 54.0202 15.7917 54.0202 16.305C54.0202 16.8183 54.1779 17.2253 54.4932 17.526C54.8159 17.8193 55.2596 17.966 55.8242 17.966ZM60.6204 19.11C60.3931 19.11 60.2171 19.0513 60.0924 18.934C59.9677 18.8167 59.9054 18.6553 59.9054 18.45V14.16C59.9054 13.9473 59.9641 13.786 60.0814 13.676C60.2061 13.5587 60.3784 13.5 60.5984 13.5C60.8184 13.5 60.9907 13.5587 61.1154 13.676C61.2401 13.7933 61.3024 13.9547 61.3024 14.16V14.523C61.5297 14.2297 61.7937 14.006 62.0944 13.852C62.4024 13.6907 62.7324 13.61 63.0844 13.61H63.3264C63.5611 13.61 63.7407 13.6613 63.8654 13.764C63.9974 13.8593 64.0634 13.9987 64.0634 14.182C64.0634 14.3653 63.9974 14.5083 63.8654 14.611C63.7407 14.7063 63.5611 14.754 63.3264 14.754H62.9524C62.4611 14.754 62.0687 14.9117 61.7754 15.227C61.4894 15.535 61.3464 15.9603 61.3464 16.503V18.45C61.3464 18.6553 61.2804 18.8167 61.1484 18.934C61.0164 19.0513 60.8404 19.11 60.6204 19.11ZM67.259 19.11C66.6283 19.11 66.0783 18.9963 65.609 18.769C65.1397 18.5417 64.7767 18.2227 64.52 17.812C64.2707 17.394 64.146 16.9063 64.146 16.349C64.146 15.447 64.4063 14.7467 64.927 14.248C65.455 13.7493 66.1957 13.5 67.149 13.5C67.7357 13.5 68.2527 13.5917 68.7 13.775C69.1547 13.9583 69.5067 14.215 69.756 14.545C70.0127 14.8677 70.141 15.238 70.141 15.656C70.141 16.008 70.0273 16.2793 69.8 16.47C69.58 16.6607 69.2647 16.756 68.854 16.756H65.543C65.543 17.1667 65.686 17.4783 65.972 17.691C66.2653 17.8963 66.6943 17.999 67.259 17.999C67.853 17.999 68.359 17.867 68.777 17.603C69.0117 17.4563 69.195 17.383 69.327 17.383C69.4517 17.383 69.5727 17.4417 69.69 17.559C69.8147 17.6837 69.877 17.8193 69.877 17.966C69.877 18.142 69.8037 18.2813 69.657 18.384C69.349 18.6187 68.9897 18.7983 68.579 18.923C68.1683 19.0477 67.7283 19.11 67.259 19.11ZM68.414 15.744C68.5387 15.744 68.6267 15.722 68.678 15.678C68.7293 15.6267 68.755 15.546 68.755 15.436C68.755 15.1793 68.6083 14.9777 68.315 14.831C68.029 14.6843 67.6403 14.611 67.149 14.611C66.6577 14.611 66.269 14.7137 65.983 14.919C65.7043 15.1243 65.565 15.3993 65.565 15.744H68.414ZM73.7181 19.11C72.5374 19.11 71.6684 18.769 71.1111 18.087C70.9937 17.933 70.9351 17.7937 70.9351 17.669C70.9351 17.493 71.0267 17.339 71.2101 17.207C71.3347 17.1263 71.4557 17.086 71.5731 17.086C71.7344 17.086 71.8847 17.1557 72.0241 17.295C72.2734 17.5443 72.5154 17.724 72.7501 17.834C72.9921 17.9367 73.2891 17.988 73.6411 17.988C73.9417 17.988 74.1947 17.9477 74.4001 17.867C74.6054 17.7863 74.7081 17.6873 74.7081 17.57C74.7081 17.4233 74.6237 17.2987 74.4551 17.196C74.2864 17.0933 73.9454 16.9613 73.4321 16.8C72.6254 16.5507 72.0534 16.2903 71.7161 16.019C71.3787 15.7403 71.2101 15.3957 71.2101 14.985C71.2101 14.523 71.4081 14.16 71.8041 13.896C72.2001 13.632 72.7464 13.5 73.4431 13.5C73.9784 13.5 74.4624 13.5807 74.8951 13.742C75.3277 13.9033 75.6431 14.1197 75.8411 14.391C75.9364 14.5157 75.9841 14.6403 75.9841 14.765C75.9841 14.941 75.8961 15.084 75.7201 15.194C75.5954 15.2747 75.4671 15.315 75.3351 15.315C75.1224 15.315 74.9281 15.227 74.7521 15.051C74.6054 14.9117 74.4147 14.8053 74.1801 14.732C73.9527 14.6587 73.7034 14.622 73.4321 14.622C72.9187 14.622 72.6621 14.743 72.6621 14.985C72.6621 15.0803 72.7024 15.1647 72.7831 15.238C72.8637 15.3113 73.0067 15.3883 73.2121 15.469C73.4247 15.5497 73.7547 15.6597 74.2021 15.799C74.9207 16.019 75.4231 16.261 75.7091 16.525C76.0024 16.789 76.1491 17.1373 76.1491 17.57C76.1491 18.032 75.9364 18.406 75.5111 18.692C75.0857 18.9707 74.4881 19.11 73.7181 19.11ZM79.7229 19.11C78.5423 19.11 77.6733 18.769 77.1159 18.087C76.9986 17.933 76.9399 17.7937 76.9399 17.669C76.9399 17.493 77.0316 17.339 77.2149 17.207C77.3396 17.1263 77.4606 17.086 77.5779 17.086C77.7393 17.086 77.8896 17.1557 78.0289 17.295C78.2783 17.5443 78.5203 17.724 78.7549 17.834C78.9969 17.9367 79.2939 17.988 79.6459 17.988C79.9466 17.988 80.1996 17.9477 80.4049 17.867C80.6103 17.7863 80.7129 17.6873 80.7129 17.57C80.7129 17.4233 80.6286 17.2987 80.4599 17.196C80.2913 17.0933 79.9503 16.9613 79.4369 16.8C78.6303 16.5507 78.0583 16.2903 77.7209 16.019C77.3836 15.7403 77.2149 15.3957 77.2149 14.985C77.2149 14.523 77.4129 14.16 77.8089 13.896C78.2049 13.632 78.7513 13.5 79.4479 13.5C79.9833 13.5 80.4673 13.5807 80.8999 13.742C81.3326 13.9033 81.6479 14.1197 81.8459 14.391C81.9413 14.5157 81.9889 14.6403 81.9889 14.765C81.9889 14.941 81.9009 15.084 81.7249 15.194C81.6003 15.2747 81.4719 15.315 81.3399 15.315C81.1273 15.315 80.9329 15.227 80.7569 15.051C80.6103 14.9117 80.4196 14.8053 80.1849 14.732C79.9576 14.6587 79.7083 14.622 79.4369 14.622C78.9236 14.622 78.6669 14.743 78.6669 14.985C78.6669 15.0803 78.7073 15.1647 78.7879 15.238C78.8686 15.3113 79.0116 15.3883 79.2169 15.469C79.4296 15.5497 79.7596 15.6597 80.2069 15.799C80.9256 16.019 81.4279 16.261 81.7139 16.525C82.0073 16.789 82.1539 17.1373 82.1539 17.57C82.1539 18.032 81.9413 18.406 81.5159 18.692C81.0906 18.9707 80.4929 19.11 79.7229 19.11Z" fill="white"/>
<path d="M32 21.6505C31.6798 21.7738 31.3264 21.7735 31.0064 21.6497C30.6864 21.5259 30.4219 21.2871 30.2629 20.9784L27.1004 16.5245L26.6421 15.9019L22.9727 20.984C22.8232 21.2797 22.5731 21.51 22.2691 21.6316C21.9651 21.7533 21.628 21.758 21.3208 21.6449L26.049 15.1849L21.6508 9.34951C21.9671 9.23345 22.3129 9.23191 22.6302 9.34515C22.9474 9.4584 23.2166 9.6795 23.3925 9.97123L26.6705 14.4801L29.9668 9.98991C30.1174 9.69938 30.3676 9.47534 30.6698 9.36037C30.9719 9.24539 31.3051 9.24751 31.6058 9.36631L29.899 11.673L27.5872 14.7378C27.523 14.7961 27.4716 14.8676 27.4364 14.9475C27.4012 15.0275 27.3831 15.1141 27.3831 15.2017C27.3831 15.2894 27.4012 15.376 27.4364 15.4559C27.4716 15.5359 27.523 15.6074 27.5872 15.6657L31.9908 21.6514L32 21.6505ZM10.0018 15.1047L10.3868 13.1676C11.4447 9.33738 15.7567 7.74386 18.723 10.115C20.4601 11.505 20.8937 13.4729 20.8084 15.6909H11.023C10.8644 19.6518 13.6713 22.0435 17.26 20.8215C17.8418 20.6083 18.3625 20.2514 18.7756 19.7828C19.1886 19.3143 19.4811 18.7487 19.6268 18.1367C19.8166 17.515 20.1292 17.4086 20.703 17.5878C20.6074 18.3462 20.3441 19.0726 19.9331 19.7124C19.522 20.3522 18.9738 20.8888 18.3298 21.2817C17.2659 21.8744 16.0453 22.1093 14.8424 21.9528C13.6396 21.7964 12.5161 21.2567 11.6326 20.4108C10.759 19.4095 10.2311 18.1447 10.1293 16.8093C10.1293 16.5899 10.0559 16.3845 10.0064 16.1875C10.002 15.8269 9.99983 15.4662 10 15.1056L10.0018 15.1047ZM11.0349 14.8377H19.8844C19.8294 11.9662 18.0502 9.92923 15.6769 9.91056C13.0351 9.87322 11.1449 11.8653 11.0285 14.8246L11.0349 14.8377Z" fill="white"/>
</svg>
