<svg width="117" height="44" viewBox="0 0 117 44" fill="none" xmlns="http://www.w3.org/2000/svg">
<rect x="0.347168" y="0.479004" width="115.874" height="43.1158" rx="8" fill="black"/>
<path d="M16.5156 12.6052H34.0314L32.4383 30.7635L25.2543 32.8157L18.1112 30.7627L16.5156 12.6052ZM22.3801 20.8158L22.1866 18.5269L30.5766 18.5294L30.7685 16.3214L19.7786 16.3189L20.3608 23.0642H27.9726L27.7007 25.9492L25.2735 26.6263L22.8088 25.9442L22.652 24.1673H20.4759L20.7511 27.6797L25.2735 28.9008L29.7601 27.6856L30.3806 20.8166H22.3801V20.8158Z" fill="white"/>
<path d="M49.2129 28.0926C48.9329 28.0926 48.7089 28.018 48.5409 27.8686C48.3729 27.7193 48.2889 27.514 48.2889 27.2526V18.8526C48.2889 18.5913 48.3729 18.386 48.5409 18.2366C48.7089 18.0873 48.9329 18.0126 49.2129 18.0126C49.4929 18.0126 49.7169 18.092 49.8849 18.2506C50.0622 18.4 50.1509 18.6006 50.1509 18.8526V22.1986H55.1769V18.8526C55.1769 18.6006 55.2609 18.4 55.4289 18.2506C55.6062 18.092 55.8349 18.0126 56.1149 18.0126C56.3949 18.0126 56.6189 18.0873 56.7869 18.2366C56.9549 18.386 57.0389 18.5913 57.0389 18.8526V27.2526C57.0389 27.514 56.9549 27.7193 56.7869 27.8686C56.6189 28.018 56.3949 28.0926 56.1149 28.0926C55.8349 28.0926 55.6062 28.018 55.4289 27.8686C55.2609 27.71 55.1769 27.5046 55.1769 27.2526V23.6406H50.1509V27.2526C50.1509 27.5046 50.0622 27.71 49.8849 27.8686C49.7169 28.018 49.4929 28.0926 49.2129 28.0926ZM62.6851 28.0926C62.4051 28.0926 62.1811 28.018 62.0131 27.8686C61.8451 27.7193 61.7611 27.514 61.7611 27.2526V19.5946H59.0591C58.7885 19.5946 58.5738 19.534 58.4151 19.4126C58.2658 19.282 58.1911 19.1046 58.1911 18.8806C58.1911 18.6473 58.2658 18.47 58.4151 18.3486C58.5645 18.218 58.7791 18.1526 59.0591 18.1526H66.3251C66.6051 18.1526 66.8198 18.218 66.9691 18.3486C67.1185 18.47 67.1931 18.6473 67.1931 18.8806C67.1931 19.1046 67.1138 19.282 66.9551 19.4126C66.8058 19.534 66.5958 19.5946 66.3251 19.5946H63.6231V27.2526C63.6231 27.5046 63.5345 27.71 63.3571 27.8686C63.1891 28.018 62.9651 28.0926 62.6851 28.0926ZM68.6406 28.0926C68.3606 28.0926 68.1366 28.018 67.9686 27.8686C67.8006 27.7193 67.7166 27.514 67.7166 27.2526V21.4846C67.7166 20.402 68.0246 19.5526 68.6406 18.9366C69.2566 18.3206 70.106 18.0126 71.1886 18.0126C71.7113 18.0126 72.2013 18.1433 72.6586 18.4046C73.1253 18.6566 73.5266 19.0206 73.8626 19.4966C74.1893 19.0113 74.5813 18.6426 75.0386 18.3906C75.5053 18.1386 76.0093 18.0126 76.5506 18.0126C77.6333 18.0126 78.4826 18.3206 79.0986 18.9366C79.7146 19.5526 80.0226 20.402 80.0226 21.4846V27.2526C80.0226 27.5046 79.934 27.71 79.7566 27.8686C79.5886 28.018 79.3646 28.0926 79.0846 28.0926C78.8046 28.0926 78.5806 28.018 78.4126 27.8686C78.2446 27.7193 78.1606 27.514 78.1606 27.2526V21.4846C78.1606 20.7753 78.03 20.2666 77.7686 19.9586C77.5073 19.6413 77.078 19.4826 76.4806 19.4826C75.9393 19.4826 75.5193 19.6553 75.2206 20.0006C74.9313 20.346 74.7866 20.8406 74.7866 21.4846V27.2526C74.7866 27.514 74.7026 27.7193 74.5346 27.8686C74.3666 28.018 74.1426 28.0926 73.8626 28.0926C73.5826 28.0926 73.3586 28.018 73.1906 27.8686C73.032 27.7193 72.9526 27.514 72.9526 27.2526V21.4846C72.9526 20.8593 72.8033 20.3693 72.5046 20.0146C72.206 19.66 71.7906 19.4826 71.2586 19.4826C70.6613 19.4826 70.232 19.6413 69.9706 19.9586C69.7093 20.2666 69.5786 20.7753 69.5786 21.4846V27.2526C69.5786 27.5046 69.49 27.71 69.3126 27.8686C69.1446 28.018 68.9206 28.0926 68.6406 28.0926ZM83.8336 27.9526C83.1242 27.9526 82.5736 27.766 82.1816 27.3926C81.7896 27.0193 81.5936 26.4966 81.5936 25.8246V18.8526C81.5936 18.5913 81.6776 18.386 81.8456 18.2366C82.0136 18.0873 82.2376 18.0126 82.5176 18.0126C82.7976 18.0126 83.0216 18.092 83.1896 18.2506C83.3669 18.4 83.4556 18.6006 83.4556 18.8526V25.8246C83.4556 26.0393 83.5069 26.2073 83.6096 26.3286C83.7216 26.45 83.8709 26.5106 84.0576 26.5106H88.5376C88.8176 26.5106 89.0322 26.576 89.1816 26.7066C89.3309 26.828 89.4056 27.0053 89.4056 27.2386C89.4056 27.4626 89.3262 27.64 89.1676 27.7706C89.0182 27.892 88.8082 27.9526 88.5376 27.9526H83.8336ZM94.5386 28.0926C93.736 28.0926 92.98 27.9433 92.2706 27.6446C91.5613 27.3366 90.9873 26.912 90.5486 26.3706C90.3993 26.1746 90.3246 25.9786 90.3246 25.7826C90.3246 25.5213 90.4506 25.3066 90.7026 25.1386C90.852 25.0266 91.0106 24.9706 91.1786 24.9706C91.4493 24.9706 91.6826 25.1106 91.8786 25.3906C92.168 25.7826 92.546 26.086 93.0126 26.3006C93.4793 26.5153 93.9833 26.6226 94.5246 26.6226C95.346 26.6226 95.9666 26.4406 96.3866 26.0766C96.816 25.7126 97.0306 25.1993 97.0306 24.5366C97.0306 23.8833 96.8346 23.3793 96.4426 23.0246C96.0506 22.6606 95.4766 22.4786 94.7206 22.4786C94.282 22.4786 93.876 22.5533 93.5026 22.7026C93.1386 22.8426 92.8493 23.0386 92.6346 23.2906C92.4946 23.4586 92.336 23.5893 92.1586 23.6826C91.9906 23.776 91.8226 23.8226 91.6546 23.8226C91.5613 23.8226 91.4726 23.8086 91.3886 23.7806C91.1646 23.706 90.992 23.594 90.8706 23.4446C90.7586 23.2953 90.7166 23.118 90.7446 22.9126L91.2906 19.3006C91.3466 18.9366 91.5146 18.6566 91.7946 18.4606C92.0746 18.2553 92.434 18.1526 92.8726 18.1526H97.5486C97.8193 18.1526 98.0293 18.2133 98.1786 18.3346C98.3373 18.456 98.4166 18.638 98.4166 18.8806C98.4166 19.114 98.3373 19.2913 98.1786 19.4126C98.02 19.534 97.81 19.5946 97.5486 19.5946H93.4466C93.316 19.5946 93.204 19.6366 93.1106 19.7206C93.0266 19.7953 92.9753 19.9026 92.9566 20.0426L92.7046 21.7086C93.0406 21.4846 93.4093 21.312 93.8106 21.1906C94.2213 21.0693 94.632 21.0086 95.0426 21.0086C95.836 21.0086 96.522 21.1533 97.1006 21.4426C97.6793 21.7226 98.1226 22.1286 98.4306 22.6606C98.7386 23.1926 98.8926 23.8133 98.8926 24.5226C98.8926 25.2413 98.72 25.8713 98.3746 26.4126C98.0293 26.9446 97.53 27.36 96.8766 27.6586C96.2233 27.948 95.444 28.0926 94.5386 28.0926Z" fill="white"/>
</svg>
