<svg width="86" height="32" viewBox="0 0 86 32" fill="none" xmlns="http://www.w3.org/2000/svg">
<rect width="86" height="32" rx="8" fill="black"/>
<path d="M12 9H25L23.8176 22.4769L18.4858 24L13.1842 22.4763L12 9ZM16.3525 15.0938L16.2089 13.395L22.4359 13.3969L22.5783 11.7581L14.4217 11.7562L14.8538 16.7625H20.5032L20.3014 18.9037L18.5 19.4062L16.6707 18.9L16.5543 17.5812H14.9392L15.1435 20.1881L18.5 21.0944L21.8299 20.1925L22.2904 15.0944H16.3525V15.0938Z" fill="white"/>
<path d="M36.342 21.11C36.122 21.11 35.946 21.0513 35.814 20.934C35.682 20.8167 35.616 20.6553 35.616 20.45V13.85C35.616 13.6447 35.682 13.4833 35.814 13.366C35.946 13.2487 36.122 13.19 36.342 13.19C36.562 13.19 36.738 13.2523 36.87 13.377C37.0093 13.4943 37.079 13.652 37.079 13.85V16.479H41.028V13.85C41.028 13.652 41.094 13.4943 41.226 13.377C41.3653 13.2523 41.545 13.19 41.765 13.19C41.985 13.19 42.161 13.2487 42.293 13.366C42.425 13.4833 42.491 13.6447 42.491 13.85V20.45C42.491 20.6553 42.425 20.8167 42.293 20.934C42.161 21.0513 41.985 21.11 41.765 21.11C41.545 21.11 41.3653 21.0513 41.226 20.934C41.094 20.8093 41.028 20.648 41.028 20.45V17.612H37.079V20.45C37.079 20.648 37.0093 20.8093 36.87 20.934C36.738 21.0513 36.562 21.11 36.342 21.11ZM46.9274 21.11C46.7074 21.11 46.5314 21.0513 46.3994 20.934C46.2674 20.8167 46.2014 20.6553 46.2014 20.45V14.433H44.0784C43.8657 14.433 43.697 14.3853 43.5724 14.29C43.455 14.1873 43.3964 14.048 43.3964 13.872C43.3964 13.6887 43.455 13.5493 43.5724 13.454C43.6897 13.3513 43.8584 13.3 44.0784 13.3H49.7874C50.0074 13.3 50.176 13.3513 50.2934 13.454C50.4107 13.5493 50.4694 13.6887 50.4694 13.872C50.4694 14.048 50.407 14.1873 50.2824 14.29C50.165 14.3853 50 14.433 49.7874 14.433H47.6644V20.45C47.6644 20.648 47.5947 20.8093 47.4554 20.934C47.3234 21.0513 47.1474 21.11 46.9274 21.11ZM51.6066 21.11C51.3866 21.11 51.2106 21.0513 51.0786 20.934C50.9466 20.8167 50.8806 20.6553 50.8806 20.45V15.918C50.8806 15.0673 51.1226 14.4 51.6066 13.916C52.0906 13.432 52.758 13.19 53.6086 13.19C54.0193 13.19 54.4043 13.2927 54.7636 13.498C55.1303 13.696 55.4456 13.982 55.7096 14.356C55.9663 13.9747 56.2743 13.685 56.6336 13.487C57.0003 13.289 57.3963 13.19 57.8216 13.19C58.6723 13.19 59.3396 13.432 59.8236 13.916C60.3076 14.4 60.5496 15.0673 60.5496 15.918V20.45C60.5496 20.648 60.48 20.8093 60.3406 20.934C60.2086 21.0513 60.0326 21.11 59.8126 21.11C59.5926 21.11 59.4166 21.0513 59.2846 20.934C59.1526 20.8167 59.0866 20.6553 59.0866 20.45V15.918C59.0866 15.3607 58.984 14.961 58.7786 14.719C58.5733 14.4697 58.236 14.345 57.7666 14.345C57.3413 14.345 57.0113 14.4807 56.7766 14.752C56.5493 15.0233 56.4356 15.412 56.4356 15.918V20.45C56.4356 20.6553 56.3696 20.8167 56.2376 20.934C56.1056 21.0513 55.9296 21.11 55.7096 21.11C55.4896 21.11 55.3136 21.0513 55.1816 20.934C55.057 20.8167 54.9946 20.6553 54.9946 20.45V15.918C54.9946 15.4267 54.8773 15.0417 54.6426 14.763C54.408 14.4843 54.0816 14.345 53.6636 14.345C53.1943 14.345 52.857 14.4697 52.6516 14.719C52.4463 14.961 52.3436 15.3607 52.3436 15.918V20.45C52.3436 20.648 52.274 20.8093 52.1346 20.934C52.0026 21.0513 51.8266 21.11 51.6066 21.11ZM63.544 21C62.9866 21 62.554 20.8533 62.246 20.56C61.938 20.2667 61.784 19.856 61.784 19.328V13.85C61.784 13.6447 61.85 13.4833 61.982 13.366C62.114 13.2487 62.29 13.19 62.51 13.19C62.73 13.19 62.906 13.2523 63.038 13.377C63.1773 13.4943 63.247 13.652 63.247 13.85V19.328C63.247 19.4967 63.2873 19.6287 63.368 19.724C63.456 19.8193 63.5733 19.867 63.72 19.867H67.24C67.46 19.867 67.6286 19.9183 67.746 20.021C67.8633 20.1163 67.922 20.2557 67.922 20.439C67.922 20.615 67.8596 20.7543 67.735 20.857C67.6176 20.9523 67.4526 21 67.24 21H63.544ZM71.9551 21.11C71.3244 21.11 70.7304 20.9927 70.1731 20.758C69.6158 20.516 69.1648 20.1823 68.8201 19.757C68.7028 19.603 68.6441 19.449 68.6441 19.295C68.6441 19.0897 68.7431 18.921 68.9411 18.789C69.0584 18.701 69.1831 18.657 69.3151 18.657C69.5278 18.657 69.7111 18.767 69.8651 18.987C70.0924 19.295 70.3894 19.5333 70.7561 19.702C71.1228 19.8707 71.5188 19.955 71.9441 19.955C72.5894 19.955 73.0771 19.812 73.4071 19.526C73.7444 19.24 73.9131 18.8367 73.9131 18.316C73.9131 17.8027 73.7591 17.4067 73.4511 17.128C73.1431 16.842 72.6921 16.699 72.0981 16.699C71.7534 16.699 71.4344 16.7577 71.1411 16.875C70.8551 16.985 70.6278 17.139 70.4591 17.337C70.3491 17.469 70.2244 17.5717 70.0851 17.645C69.9531 17.7183 69.8211 17.755 69.6891 17.755C69.6158 17.755 69.5461 17.744 69.4801 17.722C69.3041 17.6633 69.1684 17.5753 69.0731 17.458C68.9851 17.3407 68.9521 17.2013 68.9741 17.04L69.4031 14.202C69.4471 13.916 69.5791 13.696 69.7991 13.542C70.0191 13.3807 70.3014 13.3 70.6461 13.3H74.3201C74.5328 13.3 74.6978 13.3477 74.8151 13.443C74.9398 13.5383 75.0021 13.6813 75.0021 13.872C75.0021 14.0553 74.9398 14.1947 74.8151 14.29C74.6904 14.3853 74.5254 14.433 74.3201 14.433H71.0971C70.9944 14.433 70.9064 14.466 70.8331 14.532C70.7671 14.5907 70.7268 14.675 70.7121 14.785L70.5141 16.094C70.7781 15.918 71.0678 15.7823 71.3831 15.687C71.7058 15.5917 72.0284 15.544 72.3511 15.544C72.9744 15.544 73.5134 15.6577 73.9681 15.885C74.4228 16.105 74.7711 16.424 75.0131 16.842C75.2551 17.26 75.3761 17.7477 75.3761 18.305C75.3761 18.8697 75.2404 19.3647 74.9691 19.79C74.6978 20.208 74.3054 20.5343 73.7921 20.769C73.2788 20.9963 72.6664 21.11 71.9551 21.11Z" fill="white"/>
</svg>
