<svg width="95" height="32" viewBox="0 0 95 32" fill="none" xmlns="http://www.w3.org/2000/svg">
<rect width="95" height="32" rx="8" fill="black"/>
<path d="M17.5443 13.9719C16.7627 10.4844 14.9151 9.33813 14.7166 8.9C14.5435 8.65375 14.3889 8.30375 14.2621 8C14.2399 8.30938 14.2281 8.42813 13.9387 8.74C13.4917 9.09375 11.1945 11.0413 11.0078 15.0025C10.8334 18.6975 13.6481 20.8994 14.0303 21.18L14.0735 21.2113C14.1531 21.8061 14.2211 22.4025 14.2776 23H14.575C14.6455 22.355 14.7506 21.715 14.8904 21.0813C15.1482 20.8963 15.2639 20.7919 15.416 20.6481C16.1363 19.9746 16.7088 19.1557 17.0964 18.2445C17.484 17.3332 17.6781 16.3499 17.6661 15.3581C17.6723 14.8494 17.6025 14.3194 17.5443 13.9719ZM14.2448 19.0938C14.2448 19.0938 14.2448 13.9119 14.4149 13.9125C14.5466 13.9125 14.7179 20.5969 14.7179 20.5969C14.4823 20.5688 14.2448 19.4969 14.2448 19.0938Z" fill="white"/>
<path d="M28.342 20.11C28.122 20.11 27.946 20.0513 27.814 19.934C27.682 19.8167 27.616 19.6553 27.616 19.45V14.918C27.616 14.0673 27.858 13.4 28.342 12.916C28.826 12.432 29.4933 12.19 30.344 12.19C30.7547 12.19 31.1397 12.2927 31.499 12.498C31.8657 12.696 32.181 12.982 32.445 13.356C32.7017 12.9747 33.0097 12.685 33.369 12.487C33.7357 12.289 34.1317 12.19 34.557 12.19C35.4077 12.19 36.075 12.432 36.559 12.916C37.043 13.4 37.285 14.0673 37.285 14.918V19.45C37.285 19.648 37.2153 19.8093 37.076 19.934C36.944 20.0513 36.768 20.11 36.548 20.11C36.328 20.11 36.152 20.0513 36.02 19.934C35.888 19.8167 35.822 19.6553 35.822 19.45V14.918C35.822 14.3607 35.7193 13.961 35.514 13.719C35.3087 13.4697 34.9713 13.345 34.502 13.345C34.0767 13.345 33.7467 13.4807 33.512 13.752C33.2847 14.0233 33.171 14.412 33.171 14.918V19.45C33.171 19.6553 33.105 19.8167 32.973 19.934C32.841 20.0513 32.665 20.11 32.445 20.11C32.225 20.11 32.049 20.0513 31.917 19.934C31.7923 19.8167 31.73 19.6553 31.73 19.45V14.918C31.73 14.4267 31.6127 14.0417 31.378 13.763C31.1433 13.4843 30.817 13.345 30.399 13.345C29.9297 13.345 29.5923 13.4697 29.387 13.719C29.1817 13.961 29.079 14.3607 29.079 14.918V19.45C29.079 19.648 29.0093 19.8093 28.87 19.934C28.738 20.0513 28.562 20.11 28.342 20.11ZM41.5773 20.11C40.9393 20.11 40.371 19.9963 39.8723 19.769C39.381 19.5343 38.996 19.2043 38.7173 18.779C38.4387 18.3537 38.2993 17.8623 38.2993 17.305C38.2993 16.7477 38.4387 16.2563 38.7173 15.831C38.996 15.4057 39.381 15.0793 39.8723 14.852C40.371 14.6173 40.9393 14.5 41.5773 14.5C42.2153 14.5 42.78 14.6173 43.2713 14.852C43.77 15.0793 44.1587 15.4057 44.4373 15.831C44.716 16.2563 44.8553 16.7477 44.8553 17.305C44.8553 17.8623 44.716 18.3537 44.4373 18.779C44.1587 19.2043 43.77 19.5343 43.2713 19.769C42.78 19.9963 42.2153 20.11 41.5773 20.11ZM41.5773 18.966C42.142 18.966 42.5857 18.8193 42.9083 18.526C43.2383 18.2327 43.4033 17.8257 43.4033 17.305C43.4033 16.7843 43.2383 16.3773 42.9083 16.084C42.5857 15.7907 42.142 15.644 41.5773 15.644C41.0127 15.644 40.5653 15.7907 40.2353 16.084C39.9127 16.3773 39.7513 16.7843 39.7513 17.305C39.7513 17.8257 39.9127 18.2327 40.2353 18.526C40.5653 18.8193 41.0127 18.966 41.5773 18.966ZM46.3108 20.11C46.0835 20.11 45.9075 20.0513 45.7828 19.934C45.6582 19.8167 45.5958 19.6553 45.5958 19.45V15.16C45.5958 14.9473 45.6545 14.786 45.7718 14.676C45.8965 14.5587 46.0688 14.5 46.2888 14.5C46.5088 14.5 46.6812 14.5587 46.8058 14.676C46.9305 14.7933 46.9928 14.9547 46.9928 15.16V15.479C47.5135 14.8263 48.2248 14.5 49.1268 14.5C49.8308 14.5 50.3845 14.7237 50.7878 15.171C51.1985 15.611 51.4038 16.2123 51.4038 16.975V19.45C51.4038 19.6553 51.3378 19.8167 51.2058 19.934C51.0738 20.0513 50.8978 20.11 50.6778 20.11C50.4505 20.11 50.2745 20.0513 50.1498 19.934C50.0252 19.8167 49.9628 19.6553 49.9628 19.45V16.975C49.9628 16.557 49.8602 16.2307 49.6548 15.996C49.4495 15.7613 49.1635 15.644 48.7968 15.644C48.2395 15.644 47.8068 15.809 47.4988 16.139C47.1908 16.4617 47.0368 16.9163 47.0368 17.503V19.45C47.0368 19.6553 46.9708 19.8167 46.8388 19.934C46.7068 20.0513 46.5308 20.11 46.3108 20.11ZM55.5314 22.75C54.9594 22.75 54.4314 22.6657 53.9474 22.497C53.4708 22.3283 53.0968 22.0973 52.8254 21.804C52.7228 21.694 52.6714 21.5693 52.6714 21.43C52.6714 21.2467 52.7594 21.0817 52.9354 20.935C53.0454 20.847 53.1628 20.803 53.2874 20.803C53.4781 20.803 53.6908 20.9093 53.9254 21.122C54.1014 21.2833 54.3214 21.408 54.5854 21.496C54.8568 21.5913 55.1464 21.639 55.4544 21.639C56.0264 21.639 56.4701 21.4667 56.7854 21.122C57.1008 20.7773 57.2511 20.3007 57.2364 19.692L57.2254 19.252C56.9761 19.5453 56.6828 19.7617 56.3454 19.901C56.0154 20.0403 55.6084 20.11 55.1244 20.11C54.2224 20.11 53.5184 19.8643 53.0124 19.373C52.5064 18.8743 52.2534 18.185 52.2534 17.305C52.2534 16.425 52.5101 15.7393 53.0234 15.248C53.5441 14.7493 54.2664 14.5 55.1904 14.5C55.5718 14.5 55.9384 14.577 56.2904 14.731C56.6424 14.885 56.9578 15.1013 57.2364 15.38V15.16C57.2364 14.9547 57.3024 14.7933 57.4344 14.676C57.5664 14.5587 57.7424 14.5 57.9624 14.5C58.1824 14.5 58.3548 14.5587 58.4794 14.676C58.6114 14.786 58.6774 14.9473 58.6774 15.16V19.692C58.6774 20.2787 58.5491 20.803 58.2924 21.265C58.0431 21.727 57.6801 22.09 57.2034 22.354C56.7341 22.618 56.1768 22.75 55.5314 22.75ZM55.4104 18.966C55.9824 18.966 56.4298 18.8193 56.7524 18.526C57.0751 18.2327 57.2364 17.8257 57.2364 17.305C57.2364 16.7843 57.0751 16.3773 56.7524 16.084C56.4298 15.7907 55.9824 15.644 55.4104 15.644C54.8751 15.644 54.4571 15.7907 54.1564 16.084C53.8558 16.3773 53.7054 16.7843 53.7054 17.305C53.7054 17.8257 53.8558 18.2327 54.1564 18.526C54.4571 18.8193 54.8751 18.966 55.4104 18.966ZM62.8576 20.11C62.2196 20.11 61.6513 19.9963 61.1526 19.769C60.6613 19.5343 60.2763 19.2043 59.9976 18.779C59.7189 18.3537 59.5796 17.8623 59.5796 17.305C59.5796 16.7477 59.7189 16.2563 59.9976 15.831C60.2763 15.4057 60.6613 15.0793 61.1526 14.852C61.6513 14.6173 62.2196 14.5 62.8576 14.5C63.4956 14.5 64.0603 14.6173 64.5516 14.852C65.0503 15.0793 65.4389 15.4057 65.7176 15.831C65.9963 16.2563 66.1356 16.7477 66.1356 17.305C66.1356 17.8623 65.9963 18.3537 65.7176 18.779C65.4389 19.2043 65.0503 19.5343 64.5516 19.769C64.0603 19.9963 63.4956 20.11 62.8576 20.11ZM62.8576 18.966C63.4223 18.966 63.8659 18.8193 64.1886 18.526C64.5186 18.2327 64.6836 17.8257 64.6836 17.305C64.6836 16.7843 64.5186 16.3773 64.1886 16.084C63.8659 15.7907 63.4223 15.644 62.8576 15.644C62.2929 15.644 61.8456 15.7907 61.5156 16.084C61.1929 16.3773 61.0316 16.7843 61.0316 17.305C61.0316 17.8257 61.1929 18.2327 61.5156 18.526C61.8456 18.8193 62.2929 18.966 62.8576 18.966ZM68.9073 20C68.3499 20 67.9173 19.8533 67.6093 19.56C67.3013 19.2667 67.1473 18.856 67.1473 18.328V13.928C67.1473 13.4147 67.2939 13.015 67.5873 12.729C67.8879 12.443 68.3023 12.3 68.8303 12.3H70.3703C71.2136 12.3 71.9433 12.454 72.5593 12.762C73.1753 13.07 73.6446 13.5137 73.9673 14.093C74.2973 14.6723 74.4623 15.3617 74.4623 16.161C74.4623 16.9603 74.2973 17.6497 73.9673 18.229C73.6446 18.801 73.1753 19.241 72.5593 19.549C71.9506 19.8497 71.2209 20 70.3703 20H68.9073ZM70.2603 18.867C71.1769 18.867 71.8589 18.647 72.3063 18.207C72.7536 17.7597 72.9773 17.0777 72.9773 16.161C72.9773 15.2443 72.7499 14.5623 72.2953 14.115C71.8479 13.6603 71.1696 13.433 70.2603 13.433H69.0833C68.9366 13.433 68.8193 13.4807 68.7313 13.576C68.6506 13.6713 68.6103 13.8033 68.6103 13.972V18.328C68.6103 18.4967 68.6506 18.6287 68.7313 18.724C68.8193 18.8193 68.9366 18.867 69.0833 18.867H70.2603ZM77.3399 20C76.7825 20 76.3499 19.8533 76.0419 19.56C75.7339 19.2667 75.5799 18.856 75.5799 18.328V13.928C75.5799 13.4147 75.7265 13.015 76.0199 12.729C76.3205 12.443 76.7349 12.3 77.2629 12.3H79.8039C80.6545 12.3 81.3109 12.4797 81.7729 12.839C82.2349 13.1983 82.4659 13.719 82.4659 14.401C82.4659 14.7383 82.3669 15.0537 82.1689 15.347C81.9709 15.633 81.7142 15.8493 81.3989 15.996V16.007C81.7509 16.1463 82.0369 16.37 82.2569 16.678C82.4842 16.9787 82.5979 17.305 82.5979 17.657C82.5979 18.3903 82.3595 18.966 81.8829 19.384C81.4135 19.7947 80.7645 20 79.9359 20H77.3399ZM79.8039 15.479C80.1779 15.479 80.4675 15.3873 80.6729 15.204C80.8855 15.0207 80.9919 14.7567 80.9919 14.412C80.9919 14.0747 80.8929 13.8253 80.6949 13.664C80.4969 13.5027 80.1999 13.422 79.8039 13.422H77.4939C77.3472 13.422 77.2299 13.4697 77.1419 13.565C77.0612 13.6603 77.0209 13.7923 77.0209 13.961V15.479H79.8039ZM79.8039 18.878C80.6839 18.878 81.1239 18.4783 81.1239 17.679C81.1239 17.3343 81.0065 17.0667 80.7719 16.876C80.5445 16.6853 80.2219 16.59 79.8039 16.59H77.0209V18.339C77.0209 18.5077 77.0612 18.6397 77.1419 18.735C77.2299 18.8303 77.3472 18.878 77.4939 18.878H79.8039Z" fill="white"/>
</svg>
