<svg width="128" height="44" viewBox="0 0 128 44" fill="none" xmlns="http://www.w3.org/2000/svg">
<rect y="0.836914" width="128" height="43.1158" rx="8" fill="black"/>
<path d="M23.6389 19.6623C22.5858 14.9633 20.0964 13.4189 19.829 12.8286C19.5957 12.4968 19.3874 12.0252 19.2166 11.616C19.1866 12.0328 19.1708 12.1928 18.7809 12.613C18.1785 13.0897 15.0834 15.7137 14.8318 21.0509C14.5968 26.0294 18.3893 28.9962 18.9042 29.3743L18.9625 29.4164C19.0697 30.2179 19.1614 31.0214 19.2374 31.8265H19.6382C19.7331 30.9574 19.8748 30.0951 20.0631 29.2412C20.4105 28.992 20.5663 28.8513 20.7712 28.6576C21.7418 27.7501 22.5132 26.6468 23.0354 25.419C23.5576 24.1913 23.8192 22.8664 23.803 21.5301C23.8114 20.8446 23.7172 20.1305 23.6389 19.6623ZM19.1933 26.5633C19.1933 26.5633 19.1933 19.5814 19.4224 19.5823C19.5998 19.5823 19.8306 28.5886 19.8306 28.5886C19.5132 28.5507 19.1933 27.1065 19.1933 26.5633Z" fill="white"/>
<path d="M38.0869 27.1031C37.8069 27.1031 37.5829 27.0285 37.4149 26.8791C37.2469 26.7298 37.1629 26.5245 37.1629 26.2631V20.4951C37.1629 19.4125 37.4709 18.5631 38.0869 17.9471C38.7029 17.3311 39.5522 17.0231 40.6349 17.0231C41.1576 17.0231 41.6476 17.1538 42.1049 17.4151C42.5716 17.6671 42.9729 18.0311 43.3089 18.5071C43.6356 18.0218 44.0276 17.6531 44.4849 17.4011C44.9516 17.1491 45.4556 17.0231 45.9969 17.0231C47.0796 17.0231 47.9289 17.3311 48.5449 17.9471C49.1609 18.5631 49.4689 19.4125 49.4689 20.4951V26.2631C49.4689 26.5151 49.3802 26.7205 49.2029 26.8791C49.0349 27.0285 48.8109 27.1031 48.5309 27.1031C48.2509 27.1031 48.0269 27.0285 47.8589 26.8791C47.6909 26.7298 47.6069 26.5245 47.6069 26.2631V20.4951C47.6069 19.7858 47.4762 19.2771 47.2149 18.9691C46.9536 18.6518 46.5242 18.4931 45.9269 18.4931C45.3856 18.4931 44.9656 18.6658 44.6669 19.0111C44.3776 19.3565 44.2329 19.8511 44.2329 20.4951V26.2631C44.2329 26.5245 44.1489 26.7298 43.9809 26.8791C43.8129 27.0285 43.5889 27.1031 43.3089 27.1031C43.0289 27.1031 42.8049 27.0285 42.6369 26.8791C42.4782 26.7298 42.3989 26.5245 42.3989 26.2631V20.4951C42.3989 19.8698 42.2496 19.3798 41.9509 19.0251C41.6522 18.6705 41.2369 18.4931 40.7049 18.4931C40.1076 18.4931 39.6782 18.6518 39.4169 18.9691C39.1556 19.2771 39.0249 19.7858 39.0249 20.4951V26.2631C39.0249 26.5151 38.9362 26.7205 38.7589 26.8791C38.5909 27.0285 38.3669 27.1031 38.0869 27.1031ZM54.9319 27.1031C54.1199 27.1031 53.3965 26.9585 52.7619 26.6691C52.1365 26.3705 51.6465 25.9505 51.2919 25.4091C50.9372 24.8678 50.7599 24.2425 50.7599 23.5331C50.7599 22.8238 50.9372 22.1985 51.2919 21.6571C51.6465 21.1158 52.1365 20.7005 52.7619 20.4111C53.3965 20.1125 54.1199 19.9631 54.9319 19.9631C55.7439 19.9631 56.4625 20.1125 57.0879 20.4111C57.7225 20.7005 58.2172 21.1158 58.5719 21.6571C58.9265 22.1985 59.1039 22.8238 59.1039 23.5331C59.1039 24.2425 58.9265 24.8678 58.5719 25.4091C58.2172 25.9505 57.7225 26.3705 57.0879 26.6691C56.4625 26.9585 55.7439 27.1031 54.9319 27.1031ZM54.9319 25.6471C55.6505 25.6471 56.2152 25.4605 56.6259 25.0871C57.0459 24.7138 57.2559 24.1958 57.2559 23.5331C57.2559 22.8705 57.0459 22.3525 56.6259 21.9791C56.2152 21.6058 55.6505 21.4191 54.9319 21.4191C54.2132 21.4191 53.6439 21.6058 53.2239 21.9791C52.8132 22.3525 52.6079 22.8705 52.6079 23.5331C52.6079 24.1958 52.8132 24.7138 53.2239 25.0871C53.6439 25.4605 54.2132 25.6471 54.9319 25.6471ZM60.9563 27.1031C60.667 27.1031 60.443 27.0285 60.2843 26.8791C60.1257 26.7298 60.0463 26.5245 60.0463 26.2631V20.8031C60.0463 20.5325 60.121 20.3271 60.2703 20.1871C60.429 20.0378 60.6483 19.9631 60.9283 19.9631C61.2083 19.9631 61.4277 20.0378 61.5863 20.1871C61.745 20.3365 61.8243 20.5418 61.8243 20.8031V21.2091C62.487 20.3785 63.3923 19.9631 64.5403 19.9631C65.4363 19.9631 66.141 20.2478 66.6543 20.8171C67.177 21.3771 67.4383 22.1425 67.4383 23.1131V26.2631C67.4383 26.5245 67.3543 26.7298 67.1863 26.8791C67.0183 27.0285 66.7943 27.1031 66.5143 27.1031C66.225 27.1031 66.001 27.0285 65.8423 26.8791C65.6837 26.7298 65.6043 26.5245 65.6043 26.2631V23.1131C65.6043 22.5811 65.4737 22.1658 65.2123 21.8671C64.951 21.5685 64.587 21.4191 64.1203 21.4191C63.411 21.4191 62.8603 21.6291 62.4683 22.0491C62.0763 22.4598 61.8803 23.0385 61.8803 23.7851V26.2631C61.8803 26.5245 61.7963 26.7298 61.6283 26.8791C61.4603 27.0285 61.2363 27.1031 60.9563 27.1031ZM72.6916 30.4631C71.9636 30.4631 71.2916 30.3558 70.6756 30.1411C70.069 29.9265 69.593 29.6325 69.2476 29.2591C69.117 29.1191 69.0516 28.9605 69.0516 28.7831C69.0516 28.5498 69.1636 28.3398 69.3876 28.1531C69.5276 28.0411 69.677 27.9851 69.8356 27.9851C70.0783 27.9851 70.349 28.1205 70.6476 28.3911C70.8716 28.5965 71.1516 28.7551 71.4876 28.8671C71.833 28.9885 72.2016 29.0491 72.5936 29.0491C73.3216 29.0491 73.8863 28.8298 74.2876 28.3911C74.689 27.9525 74.8803 27.3458 74.8616 26.5711L74.8476 26.0111C74.5303 26.3845 74.157 26.6598 73.7276 26.8371C73.3076 27.0145 72.7896 27.1031 72.1736 27.1031C71.0256 27.1031 70.1296 26.7905 69.4856 26.1651C68.8416 25.5305 68.5196 24.6531 68.5196 23.5331C68.5196 22.4131 68.8463 21.5405 69.4996 20.9151C70.1623 20.2805 71.0816 19.9631 72.2576 19.9631C72.743 19.9631 73.2096 20.0611 73.6576 20.2571C74.1056 20.4531 74.507 20.7285 74.8616 21.0831V20.8031C74.8616 20.5418 74.9456 20.3365 75.1136 20.1871C75.2816 20.0378 75.5056 19.9631 75.7856 19.9631C76.0656 19.9631 76.285 20.0378 76.4436 20.1871C76.6116 20.3271 76.6956 20.5325 76.6956 20.8031V26.5711C76.6956 27.3178 76.5323 27.9851 76.2056 28.5731C75.8883 29.1611 75.4263 29.6231 74.8196 29.9591C74.2223 30.2951 73.513 30.4631 72.6916 30.4631ZM72.5376 25.6471C73.2656 25.6471 73.835 25.4605 74.2456 25.0871C74.6563 24.7138 74.8616 24.1958 74.8616 23.5331C74.8616 22.8705 74.6563 22.3525 74.2456 21.9791C73.835 21.6058 73.2656 21.4191 72.5376 21.4191C71.8563 21.4191 71.3243 21.6058 70.9416 21.9791C70.559 22.3525 70.3676 22.8705 70.3676 23.5331C70.3676 24.1958 70.559 24.7138 70.9416 25.0871C71.3243 25.4605 71.8563 25.6471 72.5376 25.6471ZM82.0158 27.1031C81.2038 27.1031 80.4805 26.9585 79.8458 26.6691C79.2205 26.3705 78.7305 25.9505 78.3758 25.4091C78.0212 24.8678 77.8438 24.2425 77.8438 23.5331C77.8438 22.8238 78.0212 22.1985 78.3758 21.6571C78.7305 21.1158 79.2205 20.7005 79.8458 20.4111C80.4805 20.1125 81.2038 19.9631 82.0158 19.9631C82.8278 19.9631 83.5465 20.1125 84.1718 20.4111C84.8065 20.7005 85.3012 21.1158 85.6558 21.6571C86.0105 22.1985 86.1878 22.8238 86.1878 23.5331C86.1878 24.2425 86.0105 24.8678 85.6558 25.4091C85.3012 25.9505 84.8065 26.3705 84.1718 26.6691C83.5465 26.9585 82.8278 27.1031 82.0158 27.1031ZM82.0158 25.6471C82.7345 25.6471 83.2992 25.4605 83.7098 25.0871C84.1298 24.7138 84.3398 24.1958 84.3398 23.5331C84.3398 22.8705 84.1298 22.3525 83.7098 21.9791C83.2992 21.6058 82.7345 21.4191 82.0158 21.4191C81.2972 21.4191 80.7278 21.6058 80.3078 21.9791C79.8972 22.3525 79.6918 22.8705 79.6918 23.5331C79.6918 24.1958 79.8972 24.7138 80.3078 25.0871C80.7278 25.4605 81.2972 25.6471 82.0158 25.6471ZM89.7154 26.9631C89.0061 26.9631 88.4554 26.7765 88.0634 26.4031C87.6714 26.0298 87.4754 25.5071 87.4754 24.8351V19.2351C87.4754 18.5818 87.6621 18.0731 88.0354 17.7091C88.4181 17.3451 88.9454 17.1631 89.6174 17.1631H91.5774C92.6507 17.1631 93.5794 17.3591 94.3634 17.7511C95.1474 18.1431 95.7447 18.7078 96.1554 19.4451C96.5754 20.1825 96.7854 21.0598 96.7854 22.0771C96.7854 23.0945 96.5754 23.9718 96.1554 24.7091C95.7447 25.4371 95.1474 25.9971 94.3634 26.3891C93.5887 26.7718 92.6601 26.9631 91.5774 26.9631H89.7154ZM91.4374 25.5211C92.6041 25.5211 93.4721 25.2411 94.0414 24.6811C94.6107 24.1118 94.8954 23.2438 94.8954 22.0771C94.8954 20.9105 94.6061 20.0425 94.0274 19.4731C93.4581 18.8945 92.5947 18.6051 91.4374 18.6051H89.9394C89.7527 18.6051 89.6034 18.6658 89.4914 18.7871C89.3887 18.9085 89.3374 19.0765 89.3374 19.2911V24.8351C89.3374 25.0498 89.3887 25.2178 89.4914 25.3391C89.6034 25.4605 89.7527 25.5211 89.9394 25.5211H91.4374ZM100.448 26.9631C99.7385 26.9631 99.1878 26.7765 98.7958 26.4031C98.4038 26.0298 98.2078 25.5071 98.2078 24.8351V19.2351C98.2078 18.5818 98.3945 18.0731 98.7678 17.7091C99.1505 17.3451 99.6778 17.1631 100.35 17.1631H103.584C104.666 17.1631 105.502 17.3918 106.09 17.8491C106.678 18.3065 106.972 18.9691 106.972 19.8371C106.972 20.2665 106.846 20.6678 106.594 21.0411C106.342 21.4051 106.015 21.6805 105.614 21.8671V21.8811C106.062 22.0585 106.426 22.3431 106.706 22.7351C106.995 23.1178 107.14 23.5331 107.14 23.9811C107.14 24.9145 106.836 25.6471 106.23 26.1791C105.632 26.7018 104.806 26.9631 103.752 26.9631H100.448ZM103.584 21.2091C104.06 21.2091 104.428 21.0925 104.69 20.8591C104.96 20.6258 105.096 20.2898 105.096 19.8511C105.096 19.4218 104.97 19.1045 104.718 18.8991C104.466 18.6938 104.088 18.5911 103.584 18.5911H100.644C100.457 18.5911 100.308 18.6518 100.196 18.7731C100.093 18.8945 100.042 19.0625 100.042 19.2771V21.2091H103.584ZM103.584 25.5351C104.704 25.5351 105.264 25.0265 105.264 24.0091C105.264 23.5705 105.114 23.2298 104.816 22.9871C104.526 22.7445 104.116 22.6231 103.584 22.6231H100.042V24.8491C100.042 25.0638 100.093 25.2318 100.196 25.3531C100.308 25.4745 100.457 25.5351 100.644 25.5351H103.584Z" fill="white"/>
</svg>
