<svg width="110" height="44" viewBox="0 0 110 44" fill="none" xmlns="http://www.w3.org/2000/svg">
<rect x="0.347168" y="0.458008" width="109.137" height="43.1158" rx="8" fill="black"/>
<path d="M24.5998 11.2371L16.5156 16.2897V26.395L24.5998 31.4476L32.684 26.395V16.2897L24.5998 11.2371ZM29.266 25.2076C29.266 25.8013 28.7637 26.2939 28.0769 26.2939C27.5862 26.2939 27.0263 26.0792 26.6763 25.6118L22.0101 19.5983V25.2067C22.0101 25.8139 21.5668 26.2931 21.0193 26.2931H20.9602C20.3995 26.2931 19.957 25.7878 19.957 25.2067V17.4771C19.957 16.8834 20.4469 16.3907 21.1235 16.3907C21.6259 16.3907 22.1967 16.6055 22.5467 17.0728L27.1896 23.0863V17.4771C27.1896 16.8699 27.6562 16.3907 28.1928 16.3907H28.2511C28.8111 16.3907 29.2544 16.896 29.2544 17.4771V25.2076H29.266Z" fill="white"/>
<path d="M49.1429 26.7242C48.8629 26.7242 48.6389 26.6496 48.4709 26.5002C48.3029 26.3509 48.2189 26.1456 48.2189 25.8842V20.6062C48.2189 19.3649 48.6062 18.3942 49.3809 17.6942C50.1555 16.9942 51.2289 16.6442 52.6009 16.6442C53.9729 16.6442 55.0462 16.9942 55.8209 17.6942C56.5956 18.3942 56.9829 19.3649 56.9829 20.6062V25.8842C56.9829 26.1456 56.8989 26.3509 56.7309 26.5002C56.5629 26.6496 56.3389 26.7242 56.0589 26.7242C55.7789 26.7242 55.5502 26.6496 55.3729 26.5002C55.2049 26.3416 55.1209 26.1362 55.1209 25.8842V20.5642C55.1209 19.7709 54.9062 19.1642 54.4769 18.7442C54.0475 18.3242 53.4222 18.1142 52.6009 18.1142C51.7795 18.1142 51.1542 18.3242 50.7249 18.7442C50.2955 19.1642 50.0809 19.7709 50.0809 20.5642V25.8842C50.0809 26.1362 49.9922 26.3416 49.8149 26.5002C49.6469 26.6496 49.4229 26.7242 49.1429 26.7242ZM63.3357 26.7242C62.281 26.7242 61.3664 26.5236 60.5917 26.1222C59.817 25.7209 59.2244 25.1422 58.8137 24.3862C58.403 23.6302 58.1977 22.7342 58.1977 21.6982C58.1977 20.6622 58.403 19.7662 58.8137 19.0102C59.2244 18.2449 59.8124 17.6616 60.5777 17.2602C61.3524 16.8496 62.2624 16.6442 63.3077 16.6442C64.1757 16.6442 64.9784 16.7936 65.7157 17.0922C66.453 17.3909 66.999 17.7876 67.3537 18.2822C67.4657 18.4316 67.5217 18.5856 67.5217 18.7442C67.5217 18.9776 67.3957 19.1876 67.1437 19.3742C67.0317 19.4582 66.8917 19.5002 66.7237 19.5002C66.5837 19.5002 66.4437 19.4722 66.3037 19.4162C66.1637 19.3509 66.047 19.2622 65.9537 19.1502C65.6364 18.7862 65.2677 18.5249 64.8477 18.3662C64.4277 18.1982 63.9144 18.1142 63.3077 18.1142C62.2904 18.1142 61.497 18.4316 60.9277 19.0662C60.3584 19.6916 60.0737 20.5689 60.0737 21.6982C60.0737 22.8182 60.3584 23.6909 60.9277 24.3162C61.5064 24.9416 62.309 25.2542 63.3357 25.2542C64.185 25.2542 64.8477 25.0909 65.3237 24.7642C65.809 24.4376 66.0517 23.9849 66.0517 23.4062V23.0982C66.0517 22.9022 66.005 22.7669 65.9117 22.6922C65.8277 22.6176 65.6784 22.5802 65.4637 22.5802H63.6297C63.3684 22.5802 63.163 22.5196 63.0137 22.3982C62.8644 22.2676 62.7897 22.0902 62.7897 21.8662C62.7897 21.6329 62.8597 21.4556 62.9997 21.3342C63.149 21.2036 63.359 21.1382 63.6297 21.1382H66.3457C66.887 21.1382 67.2837 21.2549 67.5357 21.4882C67.7877 21.7122 67.9137 22.0716 67.9137 22.5662V23.1122C67.9137 23.8216 67.7224 24.4516 67.3397 25.0022C66.957 25.5436 66.4157 25.9682 65.7157 26.2762C65.025 26.5749 64.2317 26.7242 63.3357 26.7242ZM70.6876 26.7242C70.4076 26.7242 70.1836 26.6496 70.0156 26.5002C69.8476 26.3509 69.7636 26.1456 69.7636 25.8842V17.4842C69.7636 17.2229 69.8476 17.0176 70.0156 16.8682C70.1836 16.7189 70.4076 16.6442 70.6876 16.6442C70.9582 16.6442 71.1822 16.7189 71.3596 16.8682C71.5369 17.0176 71.6256 17.2229 71.6256 17.4842V25.8842C71.6256 26.1456 71.5369 26.3509 71.3596 26.5002C71.1822 26.6496 70.9582 26.7242 70.6876 26.7242ZM74.4632 26.7242C74.1832 26.7242 73.9592 26.6496 73.7912 26.5002C73.6232 26.3509 73.5392 26.1456 73.5392 25.8842V20.6062C73.5392 19.3649 73.9265 18.3942 74.7012 17.6942C75.4759 16.9942 76.5492 16.6442 77.9212 16.6442C79.2932 16.6442 80.3665 16.9942 81.1412 17.6942C81.9159 18.3942 82.3032 19.3649 82.3032 20.6062V25.8842C82.3032 26.1456 82.2192 26.3509 82.0512 26.5002C81.8832 26.6496 81.6592 26.7242 81.3792 26.7242C81.0992 26.7242 80.8705 26.6496 80.6932 26.5002C80.5252 26.3416 80.4412 26.1362 80.4412 25.8842V20.5642C80.4412 19.7709 80.2265 19.1642 79.7972 18.7442C79.3679 18.3242 78.7425 18.1142 77.9212 18.1142C77.0999 18.1142 76.4745 18.3242 76.0452 18.7442C75.6159 19.1642 75.4012 19.7709 75.4012 20.5642V25.8842C75.4012 26.1362 75.3125 26.3416 75.1352 26.5002C74.9672 26.6496 74.7432 26.7242 74.4632 26.7242ZM92.2087 25.3942C92.3114 25.5249 92.3627 25.6742 92.3627 25.8422C92.3627 25.9916 92.3254 26.1362 92.2507 26.2762C92.1761 26.4069 92.0781 26.5096 91.9567 26.5842C91.8074 26.6682 91.6627 26.7102 91.5227 26.7102C91.2894 26.7102 91.0514 26.5702 90.8087 26.2902L88.0087 22.9302L85.2087 26.2902C84.9754 26.5702 84.7374 26.7102 84.4947 26.7102C84.3641 26.7102 84.2194 26.6682 84.0607 26.5842C83.9394 26.5096 83.8414 26.4069 83.7667 26.2762C83.6921 26.1362 83.6547 25.9916 83.6547 25.8422C83.6547 25.6742 83.7061 25.5249 83.8087 25.3942L86.9167 21.6282L83.9767 18.1002C83.8274 17.9229 83.7527 17.7222 83.7527 17.4982C83.7527 17.3582 83.7854 17.2276 83.8507 17.1062C83.9161 16.9756 84.0047 16.8776 84.1167 16.8122C84.2941 16.7096 84.4574 16.6582 84.6067 16.6582C84.8587 16.6582 85.0967 16.7936 85.3207 17.0642L88.0087 20.3122L90.6967 17.0642C90.9207 16.7936 91.1587 16.6582 91.4107 16.6582C91.5787 16.6582 91.7421 16.7096 91.9007 16.8122C92.0127 16.8776 92.1014 16.9756 92.1667 17.1062C92.2321 17.2276 92.2647 17.3582 92.2647 17.4982C92.2647 17.7222 92.1901 17.9229 92.0407 18.1002L89.1007 21.6282L92.2087 25.3942Z" fill="white"/>
</svg>
