<svg width="81" height="32" viewBox="0 0 81 32" fill="none" xmlns="http://www.w3.org/2000/svg">
<rect width="81" height="32" rx="8" fill="black"/>
<path d="M18 8L12 11.75V19.25L18 23L24 19.25V11.75L18 8ZM21.4632 18.3688C21.4632 18.8094 21.0903 19.175 20.5807 19.175C20.2165 19.175 19.8009 19.0156 19.5411 18.6687L16.0779 14.2056V18.3681C16.0779 18.8188 15.7489 19.1744 15.3426 19.1744H15.2987C14.8825 19.1744 14.5541 18.7994 14.5541 18.3681V12.6312C14.5541 12.1906 14.9177 11.825 15.4199 11.825C15.7928 11.825 16.2164 11.9844 16.4762 12.3312L19.9221 16.7944V12.6312C19.9221 12.1806 20.2684 11.825 20.6667 11.825H20.71C21.1255 11.825 21.4545 12.2 21.4545 12.6312V18.3688H21.4632Z" fill="white"/>
<path d="M36.287 20.11C36.067 20.11 35.891 20.0513 35.759 19.934C35.627 19.8167 35.561 19.6553 35.561 19.45V15.303C35.561 14.3277 35.8653 13.565 36.474 13.015C37.0827 12.465 37.926 12.19 39.004 12.19C40.082 12.19 40.9253 12.465 41.534 13.015C42.1427 13.565 42.447 14.3277 42.447 15.303V19.45C42.447 19.6553 42.381 19.8167 42.249 19.934C42.117 20.0513 41.941 20.11 41.721 20.11C41.501 20.11 41.3213 20.0513 41.182 19.934C41.05 19.8093 40.984 19.648 40.984 19.45V15.27C40.984 14.6467 40.8153 14.17 40.478 13.84C40.1407 13.51 39.6493 13.345 39.004 13.345C38.3587 13.345 37.8673 13.51 37.53 13.84C37.1927 14.17 37.024 14.6467 37.024 15.27V19.45C37.024 19.648 36.9543 19.8093 36.815 19.934C36.683 20.0513 36.507 20.11 36.287 20.11ZM47.4385 20.11C46.6098 20.11 45.8912 19.9523 45.2825 19.637C44.6738 19.3217 44.2082 18.867 43.8855 18.273C43.5628 17.679 43.4015 16.975 43.4015 16.161C43.4015 15.347 43.5628 14.643 43.8855 14.049C44.2082 13.4477 44.6702 12.9893 45.2715 12.674C45.8802 12.3513 46.5952 12.19 47.4165 12.19C48.0985 12.19 48.7292 12.3073 49.3085 12.542C49.8878 12.7767 50.3168 13.0883 50.5955 13.477C50.6835 13.5943 50.7275 13.7153 50.7275 13.84C50.7275 14.0233 50.6285 14.1883 50.4305 14.335C50.3425 14.401 50.2325 14.434 50.1005 14.434C49.9905 14.434 49.8805 14.412 49.7705 14.368C49.6605 14.3167 49.5688 14.247 49.4955 14.159C49.2462 13.873 48.9565 13.6677 48.6265 13.543C48.2965 13.411 47.8932 13.345 47.4165 13.345C46.6172 13.345 45.9938 13.5943 45.5465 14.093C45.0992 14.5843 44.8755 15.2737 44.8755 16.161C44.8755 17.041 45.0992 17.7267 45.5465 18.218C46.0012 18.7093 46.6318 18.955 47.4385 18.955C48.1058 18.955 48.6265 18.8267 49.0005 18.57C49.3818 18.3133 49.5725 17.9577 49.5725 17.503V17.261C49.5725 17.107 49.5358 17.0007 49.4625 16.942C49.3965 16.8833 49.2792 16.854 49.1105 16.854H47.6695C47.4642 16.854 47.3028 16.8063 47.1855 16.711C47.0682 16.6083 47.0095 16.469 47.0095 16.293C47.0095 16.1097 47.0645 15.9703 47.1745 15.875C47.2918 15.7723 47.4568 15.721 47.6695 15.721H49.8035C50.2288 15.721 50.5405 15.8127 50.7385 15.996C50.9365 16.172 51.0355 16.4543 51.0355 16.843V17.272C51.0355 17.8293 50.8852 18.3243 50.5845 18.757C50.2838 19.1823 49.8585 19.516 49.3085 19.758C48.7658 19.9927 48.1425 20.11 47.4385 20.11ZM53.215 20.11C52.995 20.11 52.819 20.0513 52.687 19.934C52.555 19.8167 52.489 19.6553 52.489 19.45V12.85C52.489 12.6447 52.555 12.4833 52.687 12.366C52.819 12.2487 52.995 12.19 53.215 12.19C53.4276 12.19 53.6036 12.2487 53.743 12.366C53.8823 12.4833 53.952 12.6447 53.952 12.85V19.45C53.952 19.6553 53.8823 19.8167 53.743 19.934C53.6036 20.0513 53.4276 20.11 53.215 20.11ZM56.1815 20.11C55.9615 20.11 55.7855 20.0513 55.6535 19.934C55.5215 19.8167 55.4555 19.6553 55.4555 19.45V15.303C55.4555 14.3277 55.7599 13.565 56.3685 13.015C56.9772 12.465 57.8205 12.19 58.8985 12.19C59.9765 12.19 60.8199 12.465 61.4285 13.015C62.0372 13.565 62.3415 14.3277 62.3415 15.303V19.45C62.3415 19.6553 62.2755 19.8167 62.1435 19.934C62.0115 20.0513 61.8355 20.11 61.6155 20.11C61.3955 20.11 61.2159 20.0513 61.0765 19.934C60.9445 19.8093 60.8785 19.648 60.8785 19.45V15.27C60.8785 14.6467 60.7099 14.17 60.3725 13.84C60.0352 13.51 59.5439 13.345 58.8985 13.345C58.2532 13.345 57.7619 13.51 57.4245 13.84C57.0872 14.17 56.9185 14.6467 56.9185 15.27V19.45C56.9185 19.648 56.8489 19.8093 56.7095 19.934C56.5775 20.0513 56.4015 20.11 56.1815 20.11ZM70.1245 19.065C70.2051 19.1677 70.2455 19.285 70.2455 19.417C70.2455 19.5343 70.2161 19.648 70.1575 19.758C70.0988 19.8607 70.0218 19.9413 69.9265 20C69.8091 20.066 69.6955 20.099 69.5855 20.099C69.4021 20.099 69.2151 19.989 69.0245 19.769L66.8245 17.129L64.6245 19.769C64.4411 19.989 64.2541 20.099 64.0635 20.099C63.9608 20.099 63.8471 20.066 63.7225 20C63.6271 19.9413 63.5501 19.8607 63.4915 19.758C63.4328 19.648 63.4035 19.5343 63.4035 19.417C63.4035 19.285 63.4438 19.1677 63.5245 19.065L65.9665 16.106L63.6565 13.334C63.5391 13.1947 63.4805 13.037 63.4805 12.861C63.4805 12.751 63.5061 12.6483 63.5575 12.553C63.6088 12.4503 63.6785 12.3733 63.7665 12.322C63.9058 12.2413 64.0341 12.201 64.1515 12.201C64.3495 12.201 64.5365 12.3073 64.7125 12.52L66.8245 15.072L68.9365 12.52C69.1125 12.3073 69.2995 12.201 69.4975 12.201C69.6295 12.201 69.7578 12.2413 69.8825 12.322C69.9705 12.3733 70.0401 12.4503 70.0915 12.553C70.1428 12.6483 70.1685 12.751 70.1685 12.861C70.1685 13.037 70.1098 13.1947 69.9925 13.334L67.6825 16.106L70.1245 19.065Z" fill="white"/>
</svg>
