<svg width="119" height="44" viewBox="0 0 119 44" fill="none" xmlns="http://www.w3.org/2000/svg">
<rect x="0.347168" y="0.0473633" width="118.568" height="43.1158" rx="8" fill="black"/>
<path d="M23.6449 10.8264L13.8208 15.879V25.9843L23.6449 31.0369L33.4691 25.9843V15.879L23.6449 10.8264Z" fill="white"/>
<path d="M47.7957 24.9664C47.5157 24.9664 47.2917 24.8917 47.1237 24.7424C46.9557 24.5931 46.8717 24.3877 46.8717 24.1264V18.8484C46.8717 17.6071 47.259 16.6364 48.0337 15.9364C48.8084 15.2364 49.8817 14.8864 51.2537 14.8864C52.6257 14.8864 53.699 15.2364 54.4737 15.9364C55.2484 16.6364 55.6357 17.6071 55.6357 18.8484V24.1264C55.6357 24.3877 55.5517 24.5931 55.3837 24.7424C55.2157 24.8917 54.9917 24.9664 54.7117 24.9664C54.4317 24.9664 54.203 24.8917 54.0257 24.7424C53.8577 24.5837 53.7737 24.3784 53.7737 24.1264V18.8064C53.7737 18.0131 53.559 17.4064 53.1297 16.9864C52.7004 16.5664 52.075 16.3564 51.2537 16.3564C50.4324 16.3564 49.807 16.5664 49.3777 16.9864C48.9484 17.4064 48.7337 18.0131 48.7337 18.8064V24.1264C48.7337 24.3784 48.645 24.5837 48.4677 24.7424C48.2997 24.8917 48.0757 24.9664 47.7957 24.9664ZM61.0193 24.9664C60.2073 24.9664 59.4839 24.8217 58.8493 24.5324C58.2239 24.2337 57.7339 23.8137 57.3793 23.2724C57.0246 22.7311 56.8473 22.1057 56.8473 21.3964C56.8473 20.6871 57.0246 20.0617 57.3793 19.5204C57.7339 18.9791 58.2239 18.5637 58.8493 18.2744C59.4839 17.9757 60.2073 17.8264 61.0193 17.8264C61.8313 17.8264 62.5499 17.9757 63.1753 18.2744C63.8099 18.5637 64.3046 18.9791 64.6593 19.5204C65.0139 20.0617 65.1913 20.6871 65.1913 21.3964C65.1913 22.1057 65.0139 22.7311 64.6593 23.2724C64.3046 23.8137 63.8099 24.2337 63.1753 24.5324C62.5499 24.8217 61.8313 24.9664 61.0193 24.9664ZM61.0193 23.5104C61.7379 23.5104 62.3026 23.3237 62.7133 22.9504C63.1333 22.5771 63.3433 22.0591 63.3433 21.3964C63.3433 20.7337 63.1333 20.2157 62.7133 19.8424C62.3026 19.4691 61.7379 19.2824 61.0193 19.2824C60.3006 19.2824 59.7313 19.4691 59.3113 19.8424C58.9006 20.2157 58.6953 20.7337 58.6953 21.3964C58.6953 22.0591 58.9006 22.5771 59.3113 22.9504C59.7313 23.3237 60.3006 23.5104 61.0193 23.5104ZM69.9368 24.9664C69.2088 24.9664 68.5602 24.8264 67.9908 24.5464C67.4308 24.2571 66.9922 23.8417 66.6748 23.3004C66.3575 22.7591 66.1988 22.1244 66.1988 21.3964C66.1988 20.6684 66.3482 20.0384 66.6468 19.5064C66.9548 18.9651 67.3935 18.5497 67.9628 18.2604C68.5322 17.9711 69.2042 17.8264 69.9788 17.8264C70.5482 17.8264 71.0288 17.9197 71.4208 18.1064C71.8128 18.2837 72.1815 18.5544 72.5268 18.9184L72.5408 15.0404C72.5408 14.7791 72.6248 14.5737 72.7928 14.4244C72.9608 14.2751 73.1848 14.2004 73.4648 14.2004C73.7448 14.2004 73.9642 14.2751 74.1228 14.4244C74.2908 14.5644 74.3748 14.7697 74.3748 15.0404V24.1264C74.3748 24.3971 74.2908 24.6071 74.1228 24.7564C73.9642 24.8964 73.7448 24.9664 73.4648 24.9664C73.1848 24.9664 72.9608 24.8917 72.7928 24.7424C72.6248 24.5931 72.5408 24.3877 72.5408 24.1264V23.8464C71.9155 24.5931 71.0475 24.9664 69.9368 24.9664ZM70.2168 23.5104C70.9448 23.5104 71.5142 23.3237 71.9248 22.9504C72.3355 22.5771 72.5408 22.0591 72.5408 21.3964C72.5408 20.7337 72.3355 20.2157 71.9248 19.8424C71.5142 19.4691 70.9448 19.2824 70.2168 19.2824C69.5355 19.2824 69.0035 19.4691 68.6208 19.8424C68.2382 20.2157 68.0468 20.7337 68.0468 21.3964C68.0468 22.0591 68.2382 22.5771 68.6208 22.9504C69.0035 23.3237 69.5355 23.5104 70.2168 23.5104ZM79.485 24.9664C78.6824 24.9664 77.9824 24.8217 77.385 24.5324C76.7877 24.2431 76.3257 23.8371 75.999 23.3144C75.6817 22.7824 75.523 22.1617 75.523 21.4524C75.523 20.3044 75.8544 19.4131 76.517 18.7784C77.189 18.1437 78.1317 17.8264 79.345 17.8264C80.0917 17.8264 80.7497 17.9431 81.319 18.1764C81.8977 18.4097 82.3457 18.7364 82.663 19.1564C82.9897 19.5671 83.153 20.0384 83.153 20.5704C83.153 21.0184 83.0084 21.3637 82.719 21.6064C82.439 21.8491 82.0377 21.9704 81.515 21.9704H77.301C77.301 22.4931 77.483 22.8897 77.847 23.1604C78.2204 23.4217 78.7664 23.5524 79.485 23.5524C80.241 23.5524 80.885 23.3844 81.417 23.0484C81.7157 22.8617 81.949 22.7684 82.117 22.7684C82.2757 22.7684 82.4297 22.8431 82.579 22.9924C82.7377 23.1511 82.817 23.3237 82.817 23.5104C82.817 23.7344 82.7237 23.9117 82.537 24.0424C82.145 24.3411 81.6877 24.5697 81.165 24.7284C80.6424 24.8871 80.0824 24.9664 79.485 24.9664ZM80.955 20.6824C81.1137 20.6824 81.2257 20.6544 81.291 20.5984C81.3564 20.5331 81.389 20.4304 81.389 20.2904C81.389 19.9637 81.2024 19.7071 80.829 19.5204C80.465 19.3337 79.9704 19.2404 79.345 19.2404C78.7197 19.2404 78.225 19.3711 77.861 19.6324C77.5064 19.8937 77.329 20.2437 77.329 20.6824H80.955ZM87.8597 24.9664C87.113 24.9664 86.4177 24.8264 85.7737 24.5464C85.1297 24.2571 84.607 23.8557 84.2057 23.3424C84.0843 23.1837 84.0237 23.0204 84.0237 22.8524C84.0237 22.6284 84.131 22.4231 84.3457 22.2364C84.495 22.1151 84.6677 22.0544 84.8637 22.0544C85.1437 22.0544 85.391 22.1944 85.6057 22.4744C85.839 22.7917 86.1517 23.0391 86.5437 23.2164C86.945 23.3937 87.3837 23.4824 87.8597 23.4824C88.429 23.4824 88.849 23.3237 89.1197 23.0064C89.3903 22.6891 89.5257 22.2037 89.5257 21.5504V15.7264C89.5257 15.4651 89.6097 15.2597 89.7777 15.1104C89.9457 14.9611 90.1697 14.8864 90.4497 14.8864C90.7297 14.8864 90.9537 14.9657 91.1217 15.1244C91.299 15.2737 91.3877 15.4744 91.3877 15.7264V21.4944C91.3877 22.1944 91.243 22.8057 90.9537 23.3284C90.6643 23.8511 90.2537 24.2571 89.7217 24.5464C89.1897 24.8264 88.569 24.9664 87.8597 24.9664ZM97.6112 24.9664C96.6965 24.9664 95.8379 24.8171 95.0352 24.5184C94.2325 24.2104 93.5372 23.7717 92.9492 23.2024C92.8092 23.0624 92.7392 22.9037 92.7392 22.7264C92.7392 22.5211 92.8325 22.3251 93.0192 22.1384C93.1685 21.9891 93.3319 21.9144 93.5092 21.9144C93.6959 21.9144 93.9199 22.0217 94.1812 22.2364C94.6199 22.6377 95.1379 22.9504 95.7352 23.1744C96.3419 23.3891 96.9672 23.4964 97.6112 23.4964C98.2272 23.4964 98.7079 23.3937 99.0532 23.1884C99.3985 22.9737 99.5712 22.6751 99.5712 22.2924C99.5712 21.8911 99.3845 21.5691 99.0112 21.3264C98.6379 21.0744 98.0032 20.8504 97.1072 20.6544C95.6979 20.3464 94.6712 19.9404 94.0272 19.4364C93.3925 18.9324 93.0752 18.2837 93.0752 17.4904C93.0752 16.9864 93.2432 16.5384 93.5792 16.1464C93.9152 15.7451 94.3819 15.4371 94.9792 15.2224C95.5859 14.9984 96.2765 14.8864 97.0512 14.8864C97.9192 14.8864 98.6892 15.0311 99.3612 15.3204C100.043 15.6004 100.561 15.9971 100.915 16.5104C101.037 16.7064 101.097 16.8744 101.097 17.0144C101.088 17.2477 100.971 17.4484 100.747 17.6164C100.626 17.7004 100.486 17.7424 100.327 17.7424C100.038 17.7424 99.7999 17.6304 99.6132 17.4064C99.3425 17.0797 98.9785 16.8231 98.5212 16.6364C98.0732 16.4497 97.5832 16.3564 97.0512 16.3564C96.3885 16.3564 95.8705 16.4591 95.4972 16.6644C95.1332 16.8604 94.9512 17.1357 94.9512 17.4904C94.9512 17.8451 95.1285 18.1391 95.4832 18.3724C95.8472 18.5964 96.4725 18.8111 97.3592 19.0164C98.3392 19.2497 99.1279 19.5157 99.7252 19.8144C100.323 20.1037 100.757 20.4491 101.027 20.8504C101.307 21.2517 101.447 21.7324 101.447 22.2924C101.447 22.8244 101.289 23.2957 100.971 23.7064C100.654 24.1077 100.206 24.4204 99.6272 24.6444C99.0485 24.8591 98.3765 24.9664 97.6112 24.9664Z" fill="white"/>
</svg>
