<svg width="88" height="32" viewBox="0 0 88 32" fill="none" xmlns="http://www.w3.org/2000/svg">
<rect width="88" height="32" rx="8" fill="black"/>
<path d="M17.2914 8L10 11.75V19.25L17.2914 23L24.5827 19.25V11.75L17.2914 8Z" fill="white"/>
<path d="M35.287 19.11C35.067 19.11 34.891 19.0513 34.759 18.934C34.627 18.8167 34.561 18.6553 34.561 18.45V14.303C34.561 13.3277 34.8653 12.565 35.474 12.015C36.0827 11.465 36.926 11.19 38.004 11.19C39.082 11.19 39.9253 11.465 40.534 12.015C41.1427 12.565 41.447 13.3277 41.447 14.303V18.45C41.447 18.6553 41.381 18.8167 41.249 18.934C41.117 19.0513 40.941 19.11 40.721 19.11C40.501 19.11 40.3213 19.0513 40.182 18.934C40.05 18.8093 39.984 18.648 39.984 18.45V14.27C39.984 13.6467 39.8153 13.17 39.478 12.84C39.1407 12.51 38.6493 12.345 38.004 12.345C37.3587 12.345 36.8673 12.51 36.53 12.84C36.1927 13.17 36.024 13.6467 36.024 14.27V18.45C36.024 18.648 35.9543 18.8093 35.815 18.934C35.683 19.0513 35.507 19.11 35.287 19.11ZM45.6769 19.11C45.0389 19.11 44.4706 18.9963 43.9719 18.769C43.4806 18.5343 43.0956 18.2043 42.8169 17.779C42.5383 17.3537 42.3989 16.8623 42.3989 16.305C42.3989 15.7477 42.5383 15.2563 42.8169 14.831C43.0956 14.4057 43.4806 14.0793 43.9719 13.852C44.4706 13.6173 45.0389 13.5 45.6769 13.5C46.3149 13.5 46.8796 13.6173 47.3709 13.852C47.8696 14.0793 48.2583 14.4057 48.5369 14.831C48.8156 15.2563 48.9549 15.7477 48.9549 16.305C48.9549 16.8623 48.8156 17.3537 48.5369 17.779C48.2583 18.2043 47.8696 18.5343 47.3709 18.769C46.8796 18.9963 46.3149 19.11 45.6769 19.11ZM45.6769 17.966C46.2416 17.966 46.6853 17.8193 47.0079 17.526C47.3379 17.2327 47.5029 16.8257 47.5029 16.305C47.5029 15.7843 47.3379 15.3773 47.0079 15.084C46.6853 14.7907 46.2416 14.644 45.6769 14.644C45.1123 14.644 44.6649 14.7907 44.3349 15.084C44.0123 15.3773 43.8509 15.7843 43.8509 16.305C43.8509 16.8257 44.0123 17.2327 44.3349 17.526C44.6649 17.8193 45.1123 17.966 45.6769 17.966ZM52.6836 19.11C52.1116 19.11 51.6019 19 51.1546 18.78C50.7146 18.5527 50.3699 18.2263 50.1206 17.801C49.8713 17.3757 49.7466 16.877 49.7466 16.305C49.7466 15.733 49.8639 15.238 50.0986 14.82C50.3406 14.3947 50.6853 14.0683 51.1326 13.841C51.5799 13.6137 52.1079 13.5 52.7166 13.5C53.1639 13.5 53.5416 13.5733 53.8496 13.72C54.1576 13.8593 54.4473 14.072 54.7186 14.358L54.7296 11.311C54.7296 11.1057 54.7956 10.9443 54.9276 10.827C55.0596 10.7097 55.2356 10.651 55.4556 10.651C55.6756 10.651 55.8479 10.7097 55.9726 10.827C56.1046 10.937 56.1706 11.0983 56.1706 11.311V18.45C56.1706 18.6627 56.1046 18.8277 55.9726 18.945C55.8479 19.055 55.6756 19.11 55.4556 19.11C55.2356 19.11 55.0596 19.0513 54.9276 18.934C54.7956 18.8167 54.7296 18.6553 54.7296 18.45V18.23C54.2383 18.8167 53.5563 19.11 52.6836 19.11ZM52.9036 17.966C53.4756 17.966 53.9229 17.8193 54.2456 17.526C54.5683 17.2327 54.7296 16.8257 54.7296 16.305C54.7296 15.7843 54.5683 15.3773 54.2456 15.084C53.9229 14.7907 53.4756 14.644 52.9036 14.644C52.3683 14.644 51.9503 14.7907 51.6496 15.084C51.3489 15.3773 51.1986 15.7843 51.1986 16.305C51.1986 16.8257 51.3489 17.2327 51.6496 17.526C51.9503 17.8193 52.3683 17.966 52.9036 17.966ZM60.1858 19.11C59.5551 19.11 59.0051 18.9963 58.5358 18.769C58.0664 18.5417 57.7034 18.2227 57.4468 17.812C57.1974 17.394 57.0728 16.9063 57.0728 16.349C57.0728 15.447 57.3331 14.7467 57.8538 14.248C58.3818 13.7493 59.1224 13.5 60.0758 13.5C60.6624 13.5 61.1794 13.5917 61.6268 13.775C62.0814 13.9583 62.4334 14.215 62.6828 14.545C62.9394 14.8677 63.0678 15.238 63.0678 15.656C63.0678 16.008 62.9541 16.2793 62.7268 16.47C62.5068 16.6607 62.1914 16.756 61.7808 16.756H58.4698C58.4698 17.1667 58.6128 17.4783 58.8988 17.691C59.1921 17.8963 59.6211 17.999 60.1858 17.999C60.7798 17.999 61.2858 17.867 61.7038 17.603C61.9384 17.4563 62.1218 17.383 62.2538 17.383C62.3784 17.383 62.4994 17.4417 62.6168 17.559C62.7414 17.6837 62.8038 17.8193 62.8038 17.966C62.8038 18.142 62.7304 18.2813 62.5838 18.384C62.2758 18.6187 61.9164 18.7983 61.5058 18.923C61.0951 19.0477 60.6551 19.11 60.1858 19.11ZM61.3408 15.744C61.4654 15.744 61.5534 15.722 61.6048 15.678C61.6561 15.6267 61.6818 15.546 61.6818 15.436C61.6818 15.1793 61.5351 14.9777 61.2418 14.831C60.9558 14.6843 60.5671 14.611 60.0758 14.611C59.5844 14.611 59.1958 14.7137 58.9098 14.919C58.6311 15.1243 58.4918 15.3993 58.4918 15.744H61.3408ZM66.7658 19.11C66.1792 19.11 65.6328 19 65.1268 18.78C64.6208 18.5527 64.2102 18.2373 63.8948 17.834C63.7995 17.7093 63.7518 17.581 63.7518 17.449C63.7518 17.273 63.8362 17.1117 64.0048 16.965C64.1222 16.8697 64.2578 16.822 64.4118 16.822C64.6318 16.822 64.8262 16.932 64.9948 17.152C65.1782 17.4013 65.4238 17.5957 65.7318 17.735C66.0472 17.8743 66.3918 17.944 66.7658 17.944C67.2132 17.944 67.5432 17.8193 67.7558 17.57C67.9685 17.3207 68.0748 16.9393 68.0748 16.426V11.85C68.0748 11.6447 68.1408 11.4833 68.2728 11.366C68.4048 11.2487 68.5808 11.19 68.8008 11.19C69.0208 11.19 69.1968 11.2523 69.3288 11.377C69.4682 11.4943 69.5378 11.652 69.5378 11.85V16.382C69.5378 16.932 69.4242 17.4123 69.1968 17.823C68.9695 18.2337 68.6468 18.5527 68.2288 18.78C67.8108 19 67.3232 19.11 66.7658 19.11ZM74.4278 19.11C73.7091 19.11 73.0344 18.9927 72.4038 18.758C71.7731 18.516 71.2268 18.1713 70.7648 17.724C70.6548 17.614 70.5998 17.4893 70.5998 17.35C70.5998 17.1887 70.6731 17.0347 70.8197 16.888C70.9371 16.7707 71.0654 16.712 71.2048 16.712C71.3514 16.712 71.5274 16.7963 71.7328 16.965C72.0774 17.2803 72.4844 17.526 72.9538 17.702C73.4304 17.8707 73.9218 17.955 74.4278 17.955C74.9118 17.955 75.2894 17.8743 75.5608 17.713C75.8321 17.5443 75.9678 17.3097 75.9678 17.009C75.9678 16.6937 75.8211 16.4407 75.5278 16.25C75.2344 16.052 74.7358 15.876 74.0318 15.722C72.9244 15.48 72.1178 15.161 71.6118 14.765C71.1131 14.369 70.8638 13.8593 70.8638 13.236C70.8638 12.84 70.9958 12.488 71.2598 12.18C71.5238 11.8647 71.8904 11.6227 72.3598 11.454C72.8364 11.278 73.3791 11.19 73.9878 11.19C74.6698 11.19 75.2748 11.3037 75.8028 11.531C76.3381 11.751 76.7451 12.0627 77.0238 12.466C77.1191 12.62 77.1668 12.752 77.1668 12.862C77.1594 13.0453 77.0678 13.203 76.8918 13.335C76.7964 13.401 76.6864 13.434 76.5617 13.434C76.3344 13.434 76.1474 13.346 76.0008 13.17C75.7881 12.9133 75.5021 12.7117 75.1428 12.565C74.7908 12.4183 74.4058 12.345 73.9878 12.345C73.4671 12.345 73.0601 12.4257 72.7668 12.587C72.4808 12.741 72.3378 12.9573 72.3378 13.236C72.3378 13.5147 72.4771 13.7457 72.7558 13.929C73.0418 14.105 73.5331 14.2737 74.2298 14.435C74.9998 14.6183 75.6194 14.8273 76.0888 15.062C76.5581 15.2893 76.8991 15.5607 77.1118 15.876C77.3318 16.1913 77.4418 16.569 77.4418 17.009C77.4418 17.427 77.3171 17.7973 77.0678 18.12C76.8184 18.4353 76.4664 18.681 76.0118 18.857C75.5571 19.0257 75.0291 19.11 74.4278 19.11Z" fill="white"/>
</svg>
