<svg width="110" height="44" viewBox="0 0 110 44" fill="none" xmlns="http://www.w3.org/2000/svg">
<rect x="0.347168" y="0.415771" width="109.137" height="43.1158" rx="8" fill="black"/>
<path d="M27.2756 21.3025C27.2756 21.863 27.053 22.4006 26.6567 22.7971C26.2604 23.1935 25.7229 23.4164 25.1623 23.4166C24.6016 23.4166 24.0639 23.1939 23.6674 22.7974C23.2709 22.4009 23.0481 21.8632 23.0481 21.3025C23.0481 20.7419 23.2708 20.2043 23.667 19.8078C24.0633 19.4114 24.6008 19.1885 25.1614 19.1883C25.7221 19.1883 26.2599 19.411 26.6563 19.8075C27.0528 20.204 27.2756 20.7417 27.2756 21.3025ZM29.7793 11.1948C28.5066 11.1948 26.8416 12.1025 25.1576 13.674C23.4746 12.111 21.8086 11.2137 20.5368 11.2137C20.1492 11.2137 19.7965 11.3017 19.4911 11.4766C18.191 12.2264 17.8998 14.5628 18.5711 17.4948C15.6929 18.3836 13.8208 19.8047 13.8208 21.3025C13.8208 22.8058 15.7024 24.2307 18.5891 25.1129C17.9234 28.0563 18.2203 30.3965 19.5232 31.1453C19.8258 31.3221 20.1757 31.4053 20.5652 31.4053C21.8369 31.4053 23.5029 30.4977 25.1869 28.9243C26.8699 30.4882 28.536 31.3855 29.8077 31.3855C30.1953 31.3855 30.548 31.3004 30.8534 31.1255C32.1526 30.3766 32.4447 28.0402 31.7734 25.1072C34.6412 24.226 36.5133 22.802 36.5133 21.3025C36.5133 19.7991 34.6317 18.3742 31.7451 17.4901C32.4107 14.5495 32.1138 12.2075 30.8109 11.4577C30.5102 11.2837 30.1613 11.1958 29.7793 11.1948ZM29.7746 12.2254V12.2311C29.9873 12.2311 30.1585 12.2727 30.3022 12.3512C30.9319 12.7124 31.2052 14.0862 30.9924 15.8534C30.9414 16.2883 30.8582 16.7469 30.756 17.215C29.8483 16.9918 28.8593 16.8207 27.8183 16.7101C27.1943 15.8544 26.5466 15.0771 25.8942 14.3964C27.3994 12.997 28.813 12.2292 29.7755 12.2264L29.7746 12.2254ZM20.5368 12.2444C21.4937 12.2444 22.9139 13.0083 24.4229 14.4001C23.7743 15.0809 23.1276 15.8534 22.513 16.7091C21.4663 16.8197 20.4763 16.9909 19.5696 17.2178C19.4637 16.7545 19.3852 16.3063 19.3294 15.8752C19.1119 14.1089 19.3805 12.736 20.0045 12.3701C20.1842 12.285 20.3827 12.2491 20.5368 12.2444ZM25.1529 15.1282C25.5831 15.5707 26.0133 16.0662 26.4388 16.607C26.0228 16.5881 25.5973 16.5748 25.1671 16.5748C24.7321 16.5748 24.3019 16.5843 23.8812 16.607C24.2972 16.0662 24.7274 15.5716 25.1529 15.1282ZM25.1671 17.6111C25.8667 17.6111 26.5636 17.6433 27.2491 17.6991C27.633 18.2494 28.0074 18.8365 28.3677 19.4577C28.7194 20.0629 29.039 20.6775 29.3302 21.2977C29.039 21.917 28.7194 22.5364 28.3724 23.1415C28.0131 23.7655 27.6415 24.3593 27.2567 24.9096C26.5683 24.9692 25.8705 25.0023 25.1671 25.0023C24.4674 25.0023 23.7705 24.9692 23.085 24.9143C22.7011 24.364 22.3267 23.7759 21.9665 23.1557C21.6147 22.5505 21.2952 21.9359 21.0039 21.3157C21.2904 20.6945 21.6147 20.0742 21.9617 19.4681C22.321 18.8441 22.6926 18.2522 23.0775 17.7019C23.7658 17.6414 24.4636 17.6092 25.1671 17.6092V17.6111ZM21.7301 17.8513C21.5032 18.2078 21.2762 18.5727 21.0644 18.9481C20.8517 19.3169 20.6531 19.6875 20.464 20.0581C20.2135 19.4379 20.0007 18.8195 19.8249 18.2172C20.43 18.0754 21.0682 17.9487 21.7301 17.8513ZM28.5946 17.8513C29.2517 17.9487 29.8852 18.0688 30.4913 18.2172C30.3211 18.8148 30.1084 19.4294 29.8673 20.0449C29.6781 19.6762 29.4796 19.3046 29.2621 18.9349C29.0494 18.5642 28.8224 18.203 28.5955 17.8513H28.5946ZM31.4907 18.4895C31.9483 18.6314 32.3833 18.7893 32.7908 18.9604C34.4284 19.6601 35.4874 20.5753 35.4874 21.3015C35.4827 22.0277 34.4237 22.9467 32.7861 23.6417C32.389 23.8119 31.954 23.965 31.5049 24.1078C31.2401 23.202 30.8941 22.2584 30.4648 21.2902C30.8903 20.3286 31.2307 19.3897 31.4907 18.4876V18.4895ZM18.8254 18.4933C19.0883 19.401 19.4353 20.3437 19.8655 21.311C19.44 22.2726 19.0978 23.2115 18.8387 24.1135C18.3811 23.9717 17.9461 23.8128 17.5433 23.6407C15.9057 22.9439 14.8467 22.0277 14.8467 21.3015C14.8467 20.5753 15.9057 19.6544 17.5433 18.9604C17.9404 18.7902 18.3754 18.637 18.8254 18.4933ZM29.8673 22.5401C30.1178 23.1613 30.3306 23.7807 30.5064 24.382C29.9013 24.5305 29.2621 24.6562 28.6003 24.7508C28.8272 24.3962 29.0541 24.0303 29.2668 23.6559C29.4796 23.2871 29.6772 22.9108 29.8673 22.5401ZM20.464 22.559C20.6531 22.9297 20.8517 23.2994 21.0692 23.67C21.2866 24.0388 21.5088 24.4 21.7358 24.7508C21.0786 24.6543 20.4451 24.5333 19.839 24.3858C20.0092 23.7901 20.2229 23.1736 20.4631 22.5581L20.464 22.559ZM30.7646 25.3833C30.8704 25.8495 30.9537 26.2986 31.0047 26.7288C31.2222 28.495 30.9537 29.8679 30.3296 30.2348C30.1906 30.3199 30.01 30.3558 29.7973 30.3558C28.8404 30.3558 27.4202 29.5928 25.9112 28.2C26.5598 27.5193 27.2066 26.7477 27.8211 25.893C28.8678 25.7814 29.8578 25.6102 30.7646 25.3833ZM19.579 25.3928C20.4867 25.614 21.4757 25.7852 22.5168 25.8958C23.1408 26.7515 23.7885 27.5287 24.4409 28.2085C22.9328 29.6108 21.5173 30.3785 20.5548 30.3785C20.3468 30.3738 20.1709 30.3312 20.0319 30.2537C19.4022 29.8944 19.129 28.5196 19.3417 26.7524C19.3928 26.3175 19.4769 25.8599 19.579 25.3928ZM23.8906 25.9979C24.3066 26.0168 24.7321 26.0301 25.1623 26.0301C25.5973 26.0301 26.0275 26.0206 26.4482 25.9979C26.0322 26.5387 25.602 27.0333 25.1765 27.4777C24.7463 27.0333 24.3161 26.5387 23.8906 25.9979Z" fill="white"/>
<path d="M52.3314 18.814C52.3314 18.1607 52.518 17.652 52.8914 17.288C53.274 16.924 53.8014 16.742 54.4734 16.742H56.9654C58.356 16.742 59.406 17.0127 60.1154 17.554C60.8247 18.0953 61.1794 18.9027 61.1794 19.976C61.1794 20.9747 60.8807 21.754 60.2834 22.314C59.6954 22.874 58.902 23.154 57.9034 23.154L60.0314 25.268C60.1994 25.436 60.2834 25.6273 60.2834 25.842C60.2834 26.066 60.1854 26.262 59.9894 26.43C59.784 26.5887 59.5834 26.668 59.3874 26.668C59.1167 26.668 58.8694 26.5467 58.6454 26.304L55.6214 23.21H54.1934V25.842C54.1934 26.1033 54.1047 26.3087 53.9274 26.458C53.75 26.6073 53.526 26.682 53.2554 26.682C52.9754 26.682 52.7514 26.6073 52.5834 26.458C52.4154 26.3087 52.3314 26.1033 52.3314 25.842V18.814ZM56.9094 21.768C57.5254 21.768 58.006 21.7073 58.3514 21.586C58.6967 21.4647 58.9394 21.278 59.0794 21.026C59.2287 20.7647 59.3034 20.4147 59.3034 19.976C59.3034 19.3413 59.1074 18.884 58.7154 18.604C58.3327 18.324 57.7307 18.184 56.9094 18.184H54.7954C54.6087 18.184 54.4594 18.2447 54.3474 18.366C54.2447 18.4873 54.1934 18.6553 54.1934 18.87V21.768H56.9094ZM65.9391 26.682C65.1365 26.682 64.4365 26.5373 63.8391 26.248C63.2418 25.9587 62.7798 25.5527 62.4531 25.03C62.1358 24.498 61.9771 23.8773 61.9771 23.168C61.9771 22.02 62.3085 21.1287 62.9711 20.494C63.6431 19.8593 64.5858 19.542 65.7991 19.542C66.5458 19.542 67.2038 19.6587 67.7731 19.892C68.3518 20.1253 68.7998 20.452 69.1171 20.872C69.4438 21.2827 69.6071 21.754 69.6071 22.286C69.6071 22.734 69.4625 23.0793 69.1731 23.322C68.8931 23.5647 68.4918 23.686 67.9691 23.686H63.7551C63.7551 24.2087 63.9371 24.6053 64.3011 24.876C64.6745 25.1373 65.2205 25.268 65.9391 25.268C66.6951 25.268 67.3391 25.1 67.8711 24.764C68.1698 24.5773 68.4031 24.484 68.5711 24.484C68.7298 24.484 68.8838 24.5587 69.0331 24.708C69.1918 24.8667 69.2711 25.0393 69.2711 25.226C69.2711 25.45 69.1778 25.6273 68.9911 25.758C68.5991 26.0567 68.1418 26.2853 67.6191 26.444C67.0965 26.6027 66.5365 26.682 65.9391 26.682ZM67.4091 22.398C67.5678 22.398 67.6798 22.37 67.7451 22.314C67.8105 22.2487 67.8431 22.146 67.8431 22.006C67.8431 21.6793 67.6565 21.4227 67.2831 21.236C66.9191 21.0493 66.4245 20.956 65.7991 20.956C65.1738 20.956 64.6791 21.0867 64.3151 21.348C63.9605 21.6093 63.7831 21.9593 63.7831 22.398H67.4091ZM73.2023 26.682C72.6236 26.682 72.1103 26.584 71.6623 26.388C71.2236 26.192 70.8783 25.9213 70.6263 25.576C70.3836 25.2213 70.2623 24.8153 70.2623 24.358C70.2623 23.6673 70.547 23.1167 71.1163 22.706C71.695 22.2953 72.4743 22.09 73.4543 22.09C74.3036 22.09 74.985 22.272 75.4983 22.636V22.3C75.4983 21.8613 75.363 21.5253 75.0923 21.292C74.8216 21.0587 74.4296 20.942 73.9163 20.942C73.151 20.942 72.493 21.1053 71.9423 21.432C71.709 21.5627 71.5083 21.628 71.3403 21.628C71.135 21.628 70.953 21.5347 70.7943 21.348C70.6916 21.2173 70.6403 21.082 70.6403 20.942C70.6403 20.7087 70.7616 20.5033 71.0043 20.326C71.3403 20.0833 71.765 19.892 72.2783 19.752C72.7916 19.612 73.333 19.542 73.9023 19.542C74.985 19.542 75.8343 19.7893 76.4503 20.284C77.0756 20.7693 77.3883 21.4413 77.3883 22.3V25.898C77.3883 26.1407 77.3043 26.332 77.1363 26.472C76.9776 26.612 76.7583 26.682 76.4783 26.682C76.189 26.682 75.965 26.6167 75.8063 26.486C75.6476 26.3553 75.5683 26.1687 75.5683 25.926V25.772C75.0363 26.3787 74.2476 26.682 73.2023 26.682ZM73.6363 25.394C74.2243 25.394 74.6816 25.3053 75.0083 25.128C75.3443 24.9413 75.5123 24.6847 75.5123 24.358C75.5123 24.05 75.3443 23.8027 75.0083 23.616C74.6723 23.4293 74.2243 23.336 73.6643 23.336C73.1603 23.336 72.7683 23.4247 72.4883 23.602C72.2176 23.7793 72.0823 24.0313 72.0823 24.358C72.0823 24.6847 72.2176 24.9413 72.4883 25.128C72.759 25.3053 73.1416 25.394 73.6363 25.394ZM82.4134 26.682C81.1628 26.682 80.1921 26.3693 79.5014 25.744C78.8108 25.1093 78.4654 24.2273 78.4654 23.098C78.4654 21.9687 78.8108 21.096 79.5014 20.48C80.1921 19.8547 81.1628 19.542 82.4134 19.542C83.0761 19.542 83.6734 19.654 84.2054 19.878C84.7468 20.0927 85.1714 20.4007 85.4794 20.802C85.5914 20.942 85.6474 21.0913 85.6474 21.25C85.6474 21.4927 85.5214 21.7073 85.2694 21.894C85.1574 21.978 85.0174 22.02 84.8494 22.02C84.7188 22.02 84.5834 21.992 84.4434 21.936C84.3034 21.8707 84.1821 21.782 84.0794 21.67C83.8928 21.4553 83.6501 21.292 83.3514 21.18C83.0621 21.0587 82.7494 20.998 82.4134 20.998C81.7508 20.998 81.2328 21.1847 80.8594 21.558C80.4954 21.922 80.3134 22.4353 80.3134 23.098C80.3134 23.7793 80.4954 24.3067 80.8594 24.68C81.2328 25.044 81.7508 25.226 82.4134 25.226C83.1508 25.226 83.7808 24.9787 84.3034 24.484C84.5648 24.2227 84.8214 24.092 85.0734 24.092C85.2414 24.092 85.3954 24.148 85.5354 24.26C85.7594 24.4373 85.8714 24.652 85.8714 24.904C85.8714 25.0627 85.8061 25.2167 85.6754 25.366C85.2461 25.8233 84.7654 26.1593 84.2334 26.374C83.7108 26.5793 83.1041 26.682 82.4134 26.682ZM92.3702 24.736C92.5195 24.8573 92.5942 25.0067 92.5942 25.184C92.5942 25.3613 92.5288 25.5433 92.3982 25.73C92.1928 26.0287 91.9035 26.262 91.5302 26.43C91.1568 26.598 90.7368 26.682 90.2702 26.682C89.5235 26.682 88.9355 26.4813 88.5062 26.08C88.0862 25.6693 87.8762 25.1093 87.8762 24.4V21.124H87.3022C87.0222 21.124 86.7982 21.0587 86.6302 20.928C86.4622 20.7973 86.3782 20.6247 86.3782 20.41C86.3782 20.186 86.4575 20.0087 86.6162 19.878C86.7842 19.7473 87.0128 19.682 87.3022 19.682H87.8762V17.568C87.8762 17.3067 87.9602 17.1013 88.1282 16.952C88.2962 16.8027 88.5202 16.728 88.8002 16.728C89.0895 16.728 89.3135 16.8027 89.4722 16.952C89.6308 17.1013 89.7102 17.3067 89.7102 17.568V19.682H91.0542C91.3435 19.682 91.5675 19.7473 91.7262 19.878C91.8942 20.0087 91.9782 20.186 91.9782 20.41C91.9782 20.6247 91.8942 20.7973 91.7262 20.928C91.5675 21.0587 91.3435 21.124 91.0542 21.124H89.7102V24.554C89.7102 24.7593 89.7708 24.9227 89.8922 25.044C90.0228 25.1653 90.1955 25.226 90.4102 25.226C90.5782 25.226 90.7228 25.2027 90.8442 25.156C90.9748 25.1 91.1055 25.0113 91.2362 24.89C91.4788 24.6567 91.7028 24.54 91.9082 24.54C92.0575 24.54 92.2115 24.6053 92.3702 24.736Z" fill="white"/>
</svg>
