<svg width="81" height="32" viewBox="0 0 81 32" fill="none" xmlns="http://www.w3.org/2000/svg">
<rect width="81" height="32" rx="8" fill="black"/>
<path d="M19.986 15.5018C19.986 15.9178 19.8207 16.3168 19.5266 16.611C19.2325 16.9053 18.8336 17.0707 18.4175 17.0709C18.0014 17.0709 17.6023 16.9056 17.308 16.6113C17.0137 16.317 16.8484 15.9179 16.8484 15.5018C16.8484 15.0857 17.0136 14.6867 17.3078 14.3925C17.6019 14.0982 18.0008 13.9328 18.4168 13.9326C18.833 13.9326 19.2321 14.0979 19.5264 14.3922C19.8206 14.6865 19.986 15.0856 19.986 15.5018ZM21.8442 8C20.8996 8 19.6639 8.67368 18.414 9.84C17.1649 8.68 15.9284 8.01404 14.9846 8.01404C14.6968 8.01404 14.4351 8.0793 14.2084 8.20912C13.2435 8.76561 13.0274 10.4996 13.5256 12.6758C11.3895 13.3354 10 14.3902 10 15.5018C10 16.6175 11.3965 17.6751 13.5389 18.3298C13.0449 20.5144 13.2653 22.2512 14.2323 22.807C14.4568 22.9382 14.7165 23 15.0056 23C15.9495 23 17.186 22.3263 18.4358 21.1586C19.6849 22.3193 20.9214 22.9853 21.8653 22.9853C22.153 22.9853 22.4147 22.9221 22.6414 22.7923C23.6056 22.2365 23.8225 20.5025 23.3242 18.3256C25.4526 17.6716 26.8421 16.6147 26.8421 15.5018C26.8421 14.386 25.4456 13.3284 23.3032 12.6723C23.7972 10.4898 23.5768 8.75158 22.6098 8.19509C22.3867 8.06596 22.1277 8.0007 21.8442 8ZM21.8407 8.76491V8.76912C21.9986 8.76912 22.1256 8.8 22.2323 8.85825C22.6996 9.12632 22.9025 10.146 22.7446 11.4575C22.7067 11.7804 22.6449 12.1207 22.5691 12.4681C21.8954 12.3025 21.1614 12.1754 20.3888 12.0933C19.9256 11.4582 19.4449 10.8814 18.9607 10.3761C20.0779 9.33754 21.127 8.76772 21.8414 8.76561L21.8407 8.76491ZM14.9846 8.77895C15.6947 8.77895 16.7488 9.34596 17.8688 10.3789C17.3874 10.8842 16.9074 11.4575 16.4512 12.0926C15.6744 12.1747 14.9396 12.3018 14.2667 12.4702C14.1881 12.1263 14.1298 11.7937 14.0884 11.4737C13.927 10.1628 14.1263 9.14386 14.5895 8.87228C14.7228 8.80912 14.8702 8.78246 14.9846 8.77895ZM18.4105 10.9193C18.7298 11.2477 19.0491 11.6154 19.3649 12.0168C19.0561 12.0028 18.7404 11.993 18.4211 11.993C18.0982 11.993 17.7789 12 17.4667 12.0168C17.7754 11.6154 18.0947 11.2484 18.4105 10.9193ZM18.4211 12.7621C18.9404 12.7621 19.4575 12.786 19.9663 12.8274C20.2512 13.2358 20.5291 13.6716 20.7965 14.1326C21.0575 14.5818 21.2947 15.0379 21.5109 15.4982C21.2947 15.9579 21.0575 16.4175 20.8 16.8667C20.5333 17.3298 20.2575 17.7705 19.9719 18.1789C19.4611 18.2232 18.9432 18.2477 18.4211 18.2477C17.9018 18.2477 17.3846 18.2232 16.8758 18.1825C16.5909 17.774 16.313 17.3375 16.0456 16.8772C15.7846 16.4281 15.5474 15.9719 15.3312 15.5116C15.5439 15.0505 15.7846 14.5902 16.0421 14.1404C16.3088 13.6772 16.5846 13.2379 16.8702 12.8295C17.3811 12.7846 17.8989 12.7607 18.4211 12.7607V12.7621ZM15.8702 12.9404C15.7018 13.2049 15.5333 13.4758 15.3761 13.7544C15.2182 14.0281 15.0709 14.3032 14.9305 14.5782C14.7446 14.1179 14.5867 13.6589 14.4561 13.2119C14.9053 13.1067 15.3789 13.0126 15.8702 12.9404ZM20.9649 12.9404C21.4526 13.0126 21.9228 13.1018 22.3726 13.2119C22.2463 13.6554 22.0884 14.1116 21.9095 14.5684C21.7691 14.2947 21.6218 14.0189 21.4604 13.7446C21.3025 13.4695 21.134 13.2014 20.9656 12.9404H20.9649ZM23.1144 13.414C23.454 13.5193 23.7768 13.6365 24.0793 13.7635C25.2947 14.2828 26.0807 14.9621 26.0807 15.5011C26.0772 16.04 25.2912 16.7221 24.0758 17.2379C23.7811 17.3642 23.4582 17.4779 23.1249 17.5839C22.9284 16.9116 22.6716 16.2112 22.353 15.4926C22.6688 14.7789 22.9214 14.0821 23.1144 13.4126V13.414ZM13.7144 13.4168C13.9095 14.0905 14.167 14.7902 14.4863 15.5081C14.1705 16.2218 13.9165 16.9186 13.7242 17.5881C13.3846 17.4828 13.0618 17.3649 12.7628 17.2372C11.5474 16.72 10.7614 16.04 10.7614 15.5011C10.7614 14.9621 11.5474 14.2786 12.7628 13.7635C13.0575 13.6372 13.3804 13.5235 13.7144 13.4168ZM21.9095 16.4204C22.0954 16.8814 22.2533 17.3411 22.3839 17.7874C21.9347 17.8975 21.4604 17.9909 20.9691 18.0611C21.1375 17.7979 21.306 17.5263 21.4639 17.2484C21.6218 16.9747 21.7684 16.6954 21.9095 16.4204ZM14.9305 16.4344C15.0709 16.7095 15.2182 16.9839 15.3796 17.2589C15.5411 17.5326 15.706 17.8007 15.8744 18.0611C15.3867 17.9895 14.9165 17.8996 14.4667 17.7902C14.593 17.3481 14.7516 16.8905 14.9298 16.4337L14.9305 16.4344ZM22.5754 18.5305C22.654 18.8765 22.7158 19.2098 22.7537 19.5291C22.9151 20.84 22.7158 21.8589 22.2526 22.1312C22.1495 22.1944 22.0154 22.2211 21.8575 22.2211C21.1474 22.2211 20.0933 21.6547 18.9733 20.6211C19.4547 20.1158 19.9347 19.5432 20.3909 18.9088C21.1677 18.826 21.9025 18.6989 22.5754 18.5305ZM14.2737 18.5375C14.9474 18.7018 15.6814 18.8288 16.454 18.9109C16.9172 19.546 17.3979 20.1228 17.8821 20.6274C16.7628 21.6681 15.7123 22.2379 14.9979 22.2379C14.8435 22.2344 14.713 22.2028 14.6098 22.1453C14.1425 21.8786 13.9396 20.8582 14.0975 19.5467C14.1354 19.2239 14.1979 18.8842 14.2737 18.5375ZM17.4737 18.9867C17.7825 19.0007 18.0982 19.0105 18.4175 19.0105C18.7404 19.0105 19.0596 19.0035 19.3719 18.9867C19.0632 19.3881 18.7439 19.7551 18.4281 20.0849C18.1088 19.7551 17.7895 19.3881 17.4737 18.9867Z" fill="white"/>
<path d="M38.616 13.928C38.616 13.4147 38.7627 13.015 39.056 12.729C39.3567 12.443 39.771 12.3 40.299 12.3H42.257C43.3497 12.3 44.1747 12.5127 44.732 12.938C45.2893 13.3633 45.568 13.9977 45.568 14.841C45.568 15.6257 45.3333 16.238 44.864 16.678C44.402 17.118 43.7787 17.338 42.994 17.338L44.666 18.999C44.798 19.131 44.864 19.2813 44.864 19.45C44.864 19.626 44.787 19.78 44.633 19.912C44.4717 20.0367 44.314 20.099 44.16 20.099C43.9473 20.099 43.753 20.0037 43.577 19.813L41.201 17.382H40.079V19.45C40.079 19.6553 40.0093 19.8167 39.87 19.934C39.7307 20.0513 39.5547 20.11 39.342 20.11C39.122 20.11 38.946 20.0513 38.814 19.934C38.682 19.8167 38.616 19.6553 38.616 19.45V13.928ZM42.213 16.249C42.697 16.249 43.0747 16.2013 43.346 16.106C43.6173 16.0107 43.808 15.864 43.918 15.666C44.0353 15.4607 44.094 15.1857 44.094 14.841C44.094 14.3423 43.94 13.983 43.632 13.763C43.3313 13.543 42.8583 13.433 42.213 13.433H40.552C40.4053 13.433 40.288 13.4807 40.2 13.576C40.1193 13.6713 40.079 13.8033 40.079 13.972V16.249H42.213ZM49.3078 20.11C48.6772 20.11 48.1272 19.9963 47.6578 19.769C47.1885 19.5417 46.8255 19.2227 46.5688 18.812C46.3195 18.394 46.1948 17.9063 46.1948 17.349C46.1948 16.447 46.4552 15.7467 46.9758 15.248C47.5038 14.7493 48.2445 14.5 49.1978 14.5C49.7845 14.5 50.3015 14.5917 50.7488 14.775C51.2035 14.9583 51.5555 15.215 51.8048 15.545C52.0615 15.8677 52.1898 16.238 52.1898 16.656C52.1898 17.008 52.0762 17.2793 51.8488 17.47C51.6288 17.6607 51.3135 17.756 50.9028 17.756H47.5918C47.5918 18.1667 47.7348 18.4783 48.0208 18.691C48.3142 18.8963 48.7432 18.999 49.3078 18.999C49.9018 18.999 50.4078 18.867 50.8258 18.603C51.0605 18.4563 51.2438 18.383 51.3758 18.383C51.5005 18.383 51.6215 18.4417 51.7388 18.559C51.8635 18.6837 51.9258 18.8193 51.9258 18.966C51.9258 19.142 51.8525 19.2813 51.7058 19.384C51.3978 19.6187 51.0385 19.7983 50.6278 19.923C50.2172 20.0477 49.7772 20.11 49.3078 20.11ZM50.4628 16.744C50.5875 16.744 50.6755 16.722 50.7268 16.678C50.7782 16.6267 50.8038 16.546 50.8038 16.436C50.8038 16.1793 50.6572 15.9777 50.3638 15.831C50.0778 15.6843 49.6892 15.611 49.1978 15.611C48.7065 15.611 48.3178 15.7137 48.0318 15.919C47.7532 16.1243 47.6138 16.3993 47.6138 16.744H50.4628ZM55.0146 20.11C54.5599 20.11 54.1566 20.033 53.8046 19.879C53.4599 19.725 53.1886 19.5123 52.9906 19.241C52.7999 18.9623 52.7046 18.6433 52.7046 18.284C52.7046 17.7413 52.9283 17.3087 53.3756 16.986C53.8303 16.6633 54.4426 16.502 55.2126 16.502C55.8799 16.502 56.4153 16.645 56.8186 16.931V16.667C56.8186 16.3223 56.7123 16.0583 56.4996 15.875C56.2869 15.6917 55.9789 15.6 55.5756 15.6C54.9743 15.6 54.4573 15.7283 54.0246 15.985C53.8413 16.0877 53.6836 16.139 53.5516 16.139C53.3903 16.139 53.2473 16.0657 53.1226 15.919C53.0419 15.8163 53.0016 15.71 53.0016 15.6C53.0016 15.4167 53.0969 15.2553 53.2876 15.116C53.5516 14.9253 53.8853 14.775 54.2886 14.665C54.6919 14.555 55.1173 14.5 55.5646 14.5C56.4153 14.5 57.0826 14.6943 57.5666 15.083C58.0579 15.4643 58.3036 15.9923 58.3036 16.667V19.494C58.3036 19.6847 58.2376 19.835 58.1056 19.945C57.9809 20.055 57.8086 20.11 57.5886 20.11C57.3613 20.11 57.1853 20.0587 57.0606 19.956C56.9359 19.8533 56.8736 19.7067 56.8736 19.516V19.395C56.4556 19.8717 55.8359 20.11 55.0146 20.11ZM55.3556 19.098C55.8176 19.098 56.1769 19.0283 56.4336 18.889C56.6976 18.7423 56.8296 18.5407 56.8296 18.284C56.8296 18.042 56.6976 17.8477 56.4336 17.701C56.1696 17.5543 55.8176 17.481 55.3776 17.481C54.9816 17.481 54.6736 17.5507 54.4536 17.69C54.2409 17.8293 54.1346 18.0273 54.1346 18.284C54.1346 18.5407 54.2409 18.7423 54.4536 18.889C54.6663 19.0283 54.9669 19.098 55.3556 19.098ZM62.2519 20.11C61.2692 20.11 60.5066 19.8643 59.9639 19.373C59.4212 18.8743 59.1499 18.1813 59.1499 17.294C59.1499 16.4067 59.4212 15.721 59.9639 15.237C60.5066 14.7457 61.2692 14.5 62.2519 14.5C62.7726 14.5 63.2419 14.588 63.6599 14.764C64.0852 14.9327 64.4189 15.1747 64.6609 15.49C64.7489 15.6 64.7929 15.7173 64.7929 15.842C64.7929 16.0327 64.6939 16.2013 64.4959 16.348C64.4079 16.414 64.2979 16.447 64.1659 16.447C64.0632 16.447 63.9569 16.425 63.8469 16.381C63.7369 16.3297 63.6416 16.26 63.5609 16.172C63.4142 16.0033 63.2236 15.875 62.9889 15.787C62.7616 15.6917 62.5159 15.644 62.2519 15.644C61.7312 15.644 61.3242 15.7907 61.0309 16.084C60.7449 16.37 60.6019 16.7733 60.6019 17.294C60.6019 17.8293 60.7449 18.2437 61.0309 18.537C61.3242 18.823 61.7312 18.966 62.2519 18.966C62.8312 18.966 63.3262 18.7717 63.7369 18.383C63.9422 18.1777 64.1439 18.075 64.3419 18.075C64.4739 18.075 64.5949 18.119 64.7049 18.207C64.8809 18.3463 64.9689 18.515 64.9689 18.713C64.9689 18.8377 64.9176 18.9587 64.8149 19.076C64.4776 19.4353 64.0999 19.6993 63.6819 19.868C63.2712 20.0293 62.7946 20.11 62.2519 20.11ZM70.0751 18.581C70.1924 18.6763 70.2511 18.7937 70.2511 18.933C70.2511 19.0723 70.1997 19.2153 70.0971 19.362C69.9357 19.5967 69.7084 19.78 69.4151 19.912C69.1217 20.044 68.7917 20.11 68.4251 20.11C67.8384 20.11 67.3764 19.9523 67.0391 19.637C66.7091 19.3143 66.5441 18.8743 66.5441 18.317V15.743H66.0931C65.8731 15.743 65.6971 15.6917 65.5651 15.589C65.4331 15.4863 65.3671 15.3507 65.3671 15.182C65.3671 15.006 65.4294 14.8667 65.5541 14.764C65.6861 14.6613 65.8657 14.61 66.0931 14.61H66.5441V12.949C66.5441 12.7437 66.6101 12.5823 66.7421 12.465C66.8741 12.3477 67.0501 12.289 67.2701 12.289C67.4974 12.289 67.6734 12.3477 67.7981 12.465C67.9227 12.5823 67.9851 12.7437 67.9851 12.949V14.61H69.0411C69.2684 14.61 69.4444 14.6613 69.5691 14.764C69.7011 14.8667 69.7671 15.006 69.7671 15.182C69.7671 15.3507 69.7011 15.4863 69.5691 15.589C69.4444 15.6917 69.2684 15.743 69.0411 15.743H67.9851V18.438C67.9851 18.5993 68.0327 18.7277 68.1281 18.823C68.2307 18.9183 68.3664 18.966 68.5351 18.966C68.6671 18.966 68.7807 18.9477 68.8761 18.911C68.9787 18.867 69.0814 18.7973 69.1841 18.702C69.3747 18.5187 69.5507 18.427 69.7121 18.427C69.8294 18.427 69.9504 18.4783 70.0751 18.581Z" fill="white"/>
</svg>
