<svg width="96" height="32" viewBox="0 0 96 32" fill="none" xmlns="http://www.w3.org/2000/svg">
<rect width="96" height="32" rx="8" fill="black"/>
<path d="M14.543 20.11C13.7143 20.11 12.9957 19.9523 12.387 19.637C11.7783 19.3217 11.3127 18.867 10.99 18.273C10.6673 17.679 10.506 16.975 10.506 16.161C10.506 15.347 10.6673 14.643 10.99 14.049C11.3127 13.4477 11.7747 12.9893 12.376 12.674C12.9847 12.3513 13.6997 12.19 14.521 12.19C15.203 12.19 15.8337 12.3073 16.413 12.542C16.9923 12.7767 17.4213 13.0883 17.7 13.477C17.788 13.5943 17.832 13.7153 17.832 13.84C17.832 14.0233 17.733 14.1883 17.535 14.335C17.447 14.401 17.337 14.434 17.205 14.434C17.095 14.434 16.985 14.412 16.875 14.368C16.765 14.3167 16.6733 14.247 16.6 14.159C16.3507 13.873 16.061 13.6677 15.731 13.543C15.401 13.411 14.9977 13.345 14.521 13.345C13.7217 13.345 13.0983 13.5943 12.651 14.093C12.2037 14.5843 11.98 15.2737 11.98 16.161C11.98 17.041 12.2037 17.7267 12.651 18.218C13.1057 18.7093 13.7363 18.955 14.543 18.955C15.2103 18.955 15.731 18.8267 16.105 18.57C16.4863 18.3133 16.677 17.9577 16.677 17.503V17.261C16.677 17.107 16.6403 17.0007 16.567 16.942C16.501 16.8833 16.3837 16.854 16.215 16.854H14.774C14.5687 16.854 14.4073 16.8063 14.29 16.711C14.1727 16.6083 14.114 16.469 14.114 16.293C14.114 16.1097 14.169 15.9703 14.279 15.875C14.3963 15.7723 14.5613 15.721 14.774 15.721H16.908C17.3333 15.721 17.645 15.8127 17.843 15.996C18.041 16.172 18.14 16.4543 18.14 16.843V17.272C18.14 17.8293 17.9897 18.3243 17.689 18.757C17.3883 19.1823 16.963 19.516 16.413 19.758C15.8703 19.9927 15.247 20.11 14.543 20.11ZM20.0555 13.818C19.7841 13.818 19.5641 13.7447 19.3955 13.598C19.2341 13.444 19.1535 13.246 19.1535 13.004C19.1535 12.762 19.2341 12.5677 19.3955 12.421C19.5641 12.267 19.7841 12.19 20.0555 12.19C20.3268 12.19 20.5468 12.267 20.7155 12.421C20.8915 12.5677 20.9795 12.762 20.9795 13.004C20.9795 13.246 20.8915 13.444 20.7155 13.598C20.5468 13.7447 20.3268 13.818 20.0555 13.818ZM20.0665 20.11C19.8391 20.11 19.6631 20.0513 19.5385 19.934C19.4138 19.8167 19.3515 19.6553 19.3515 19.45V15.16C19.3515 14.9547 19.4138 14.7933 19.5385 14.676C19.6631 14.5587 19.8391 14.5 20.0665 14.5C20.2865 14.5 20.4625 14.5587 20.5945 14.676C20.7265 14.7933 20.7925 14.9547 20.7925 15.16V19.45C20.7925 19.6553 20.7265 19.8167 20.5945 19.934C20.4625 20.0513 20.2865 20.11 20.0665 20.11ZM26.4774 18.581C26.5947 18.6763 26.6534 18.7937 26.6534 18.933C26.6534 19.0723 26.6021 19.2153 26.4994 19.362C26.3381 19.5967 26.1107 19.78 25.8174 19.912C25.5241 20.044 25.1941 20.11 24.8274 20.11C24.2407 20.11 23.7787 19.9523 23.4414 19.637C23.1114 19.3143 22.9464 18.8743 22.9464 18.317V15.743H22.4954C22.2754 15.743 22.0994 15.6917 21.9674 15.589C21.8354 15.4863 21.7694 15.3507 21.7694 15.182C21.7694 15.006 21.8317 14.8667 21.9564 14.764C22.0884 14.6613 22.2681 14.61 22.4954 14.61H22.9464V12.949C22.9464 12.7437 23.0124 12.5823 23.1444 12.465C23.2764 12.3477 23.4524 12.289 23.6724 12.289C23.8997 12.289 24.0757 12.3477 24.2004 12.465C24.3251 12.5823 24.3874 12.7437 24.3874 12.949V14.61H25.4434C25.6707 14.61 25.8467 14.6613 25.9714 14.764C26.1034 14.8667 26.1694 15.006 26.1694 15.182C26.1694 15.3507 26.1034 15.4863 25.9714 15.589C25.8467 15.6917 25.6707 15.743 25.4434 15.743H24.3874V18.438C24.3874 18.5993 24.4351 18.7277 24.5304 18.823C24.6331 18.9183 24.7687 18.966 24.9374 18.966C25.0694 18.966 25.1831 18.9477 25.2784 18.911C25.3811 18.867 25.4837 18.7973 25.5864 18.702C25.7771 18.5187 25.9531 18.427 26.1144 18.427C26.2317 18.427 26.3527 18.4783 26.4774 18.581ZM28.2824 20.11C28.0624 20.11 27.8864 20.0513 27.7544 19.934C27.6224 19.8167 27.5564 19.6553 27.5564 19.45V12.85C27.5564 12.6447 27.6224 12.4833 27.7544 12.366C27.8864 12.2487 28.0624 12.19 28.2824 12.19C28.5024 12.19 28.6784 12.2523 28.8104 12.377C28.9498 12.4943 29.0194 12.652 29.0194 12.85V15.479H32.9684V12.85C32.9684 12.652 33.0344 12.4943 33.1664 12.377C33.3058 12.2523 33.4854 12.19 33.7054 12.19C33.9254 12.19 34.1014 12.2487 34.2334 12.366C34.3654 12.4833 34.4314 12.6447 34.4314 12.85V19.45C34.4314 19.6553 34.3654 19.8167 34.2334 19.934C34.1014 20.0513 33.9254 20.11 33.7054 20.11C33.4854 20.11 33.3058 20.0513 33.1664 19.934C33.0344 19.8093 32.9684 19.648 32.9684 19.45V16.612H29.0194V19.45C29.0194 19.648 28.9498 19.8093 28.8104 19.934C28.6784 20.0513 28.5024 20.11 28.2824 20.11ZM37.8998 20.11C37.1444 20.11 36.5541 19.8937 36.1288 19.461C35.7108 19.021 35.5018 18.4123 35.5018 17.635V15.16C35.5018 14.9547 35.5678 14.7933 35.6998 14.676C35.8318 14.5587 36.0078 14.5 36.2278 14.5C36.4551 14.5 36.6311 14.5587 36.7558 14.676C36.8804 14.7933 36.9428 14.9547 36.9428 15.16V17.635C36.9428 18.053 37.0528 18.3793 37.2728 18.614C37.5001 18.8487 37.8154 18.966 38.2188 18.966C38.7394 18.966 39.1428 18.801 39.4288 18.471C39.7221 18.141 39.8688 17.6863 39.8688 17.107V15.16C39.8688 14.9547 39.9348 14.7933 40.0668 14.676C40.1988 14.5587 40.3748 14.5 40.5948 14.5C40.8221 14.5 40.9981 14.5587 41.1228 14.676C41.2474 14.7933 41.3098 14.9547 41.3098 15.16V19.45C41.3098 19.6627 41.2474 19.8277 41.1228 19.945C41.0054 20.055 40.8368 20.11 40.6168 20.11C40.3968 20.11 40.2244 20.0513 40.0998 19.934C39.9751 19.8167 39.9128 19.6553 39.9128 19.45V19.131C39.6414 19.4683 39.3408 19.7177 39.0108 19.879C38.6881 20.033 38.3178 20.11 37.8998 20.11ZM43.0394 20.11C42.812 20.11 42.636 20.0513 42.5114 19.934C42.3867 19.8167 42.3244 19.6553 42.3244 19.45V12.311C42.3244 12.1057 42.3867 11.9443 42.5114 11.827C42.636 11.7097 42.812 11.651 43.0394 11.651C43.2594 11.651 43.4354 11.7097 43.5674 11.827C43.6994 11.9443 43.7654 12.1057 43.7654 12.311L43.7764 15.358C44.033 15.0793 44.341 14.8667 44.7004 14.72C45.0597 14.5733 45.441 14.5 45.8444 14.5C46.7537 14.5 47.465 14.7493 47.9784 15.248C48.4917 15.7393 48.7484 16.425 48.7484 17.305C48.7484 18.185 48.488 18.8743 47.9674 19.373C47.454 19.8643 46.7354 20.11 45.8114 20.11C45.3934 20.11 45.0267 20.044 44.7114 19.912C44.396 19.7727 44.0807 19.5453 43.7654 19.23V19.45C43.7654 19.6553 43.6994 19.8167 43.5674 19.934C43.4354 20.0513 43.2594 20.11 43.0394 20.11ZM45.5914 18.966C46.1267 18.966 46.5447 18.8193 46.8454 18.526C47.146 18.2327 47.2964 17.8257 47.2964 17.305C47.2964 16.7843 47.146 16.3773 46.8454 16.084C46.5447 15.7907 46.1267 15.644 45.5914 15.644C45.0194 15.644 44.572 15.7907 44.2494 16.084C43.9267 16.3773 43.7654 16.7843 43.7654 17.305C43.7654 17.8257 43.9267 18.2327 44.2494 18.526C44.572 18.8193 45.0194 18.966 45.5914 18.966Z" fill="white"/>
<path d="M53.287 20.11C53.1623 20.11 53.0633 20.0733 52.99 20C52.9167 19.9193 52.88 19.8093 52.88 19.67V13.62C52.88 13.2093 53.001 12.8867 53.243 12.652C53.4923 12.4173 53.837 12.3 54.277 12.3H56.147C58.237 12.3 59.282 13.1763 59.282 14.929C59.282 15.7357 59.0143 16.359 58.479 16.799C57.951 17.2317 57.1883 17.448 56.191 17.448H53.705V19.67C53.705 19.8093 53.6683 19.9193 53.595 20C53.5217 20.0733 53.419 20.11 53.287 20.11ZM56.191 16.755C56.9023 16.755 57.4523 16.6157 57.841 16.337C58.237 16.0583 58.435 15.589 58.435 14.929C58.435 14.2397 58.2443 13.7447 57.863 13.444C57.4817 13.136 56.928 12.982 56.202 12.982H54.288C54.112 12.982 53.969 13.0407 53.859 13.158C53.7563 13.2753 53.705 13.4293 53.705 13.62V16.755H56.191ZM62.1736 20.11C61.455 20.11 60.8903 19.9523 60.4796 19.637C60.0763 19.3217 59.8746 18.8853 59.8746 18.328C59.8746 17.778 60.0873 17.3417 60.5126 17.019C60.9453 16.6963 61.532 16.535 62.2726 16.535C62.7053 16.535 63.0866 16.5937 63.4166 16.711C63.754 16.8283 64.0143 16.986 64.1976 17.184V16.48C64.1976 16.062 64.0583 15.743 63.7796 15.523C63.5083 15.303 63.1086 15.193 62.5806 15.193C61.8986 15.193 61.3083 15.3543 60.8096 15.677C60.685 15.7503 60.5823 15.787 60.5016 15.787C60.4283 15.787 60.355 15.7577 60.2816 15.699C60.201 15.633 60.1606 15.5487 60.1606 15.446C60.1606 15.336 60.2083 15.2443 60.3036 15.171C60.5676 14.9657 60.9013 14.8043 61.3046 14.687C61.7153 14.5623 62.1333 14.5 62.5586 14.5C63.336 14.5 63.9373 14.676 64.3626 15.028C64.7953 15.38 65.0116 15.875 65.0116 16.513V19.681C65.0116 19.967 64.8796 20.11 64.6156 20.11C64.4983 20.11 64.403 20.0733 64.3296 20C64.2563 19.9193 64.2196 19.8167 64.2196 19.692V19.296C63.765 19.8387 63.083 20.11 62.1736 20.11ZM62.2726 19.439C62.8446 19.439 63.3103 19.3327 63.6696 19.12C64.029 18.9 64.2086 18.6177 64.2086 18.273C64.2086 17.9283 64.04 17.6643 63.7026 17.481C63.3726 17.2903 62.9033 17.195 62.2946 17.195C61.7813 17.195 61.3853 17.294 61.1066 17.492C60.828 17.6827 60.6886 17.9613 60.6886 18.328C60.6886 18.6873 60.8243 18.9623 61.0956 19.153C61.367 19.3437 61.7593 19.439 62.2726 19.439ZM69.3475 22.761C68.8195 22.761 68.3428 22.684 67.9175 22.53C67.4922 22.376 67.1475 22.1523 66.8835 21.859C66.8248 21.8003 66.7955 21.727 66.7955 21.639C66.7955 21.529 66.8542 21.4337 66.9715 21.353C67.0448 21.3017 67.1145 21.276 67.1805 21.276C67.2905 21.276 67.4005 21.3347 67.5105 21.452C67.6865 21.6427 67.9212 21.7967 68.2145 21.914C68.5078 22.0313 68.8598 22.09 69.2705 22.09C69.9892 22.09 70.5392 21.9177 70.9205 21.573C71.3018 21.2283 71.4925 20.7297 71.4925 20.077V19.043C71.2432 19.373 70.9168 19.6443 70.5135 19.857C70.1102 20.0623 69.6408 20.165 69.1055 20.165C68.1742 20.165 67.4555 19.9157 66.9495 19.417C66.4435 18.9183 66.1905 18.251 66.1905 17.415C66.1905 16.8503 66.3005 16.3517 66.5205 15.919C66.7478 15.479 67.0852 15.1343 67.5325 14.885C67.9798 14.6283 68.5298 14.5 69.1825 14.5C69.6665 14.5 70.1028 14.599 70.4915 14.797C70.8802 14.995 71.2138 15.2773 71.4925 15.644V14.918C71.4925 14.8007 71.5292 14.7017 71.6025 14.621C71.6832 14.5403 71.7822 14.5 71.8995 14.5C72.0168 14.5 72.1122 14.5403 72.1855 14.621C72.2588 14.6943 72.2955 14.7933 72.2955 14.918V20.077C72.2955 20.627 72.1708 21.1037 71.9215 21.507C71.6795 21.9103 71.3348 22.2183 70.8875 22.431C70.4402 22.651 69.9268 22.761 69.3475 22.761ZM69.1825 19.45C69.5785 19.45 69.9488 19.373 70.2935 19.219C70.6455 19.065 70.9315 18.8303 71.1515 18.515C71.3715 18.1923 71.4815 17.8 71.4815 17.338C71.4815 16.9273 71.3935 16.5607 71.2175 16.238C71.0415 15.9153 70.7848 15.6623 70.4475 15.479C70.1102 15.2883 69.7068 15.193 69.2375 15.193C68.5262 15.193 67.9762 15.3873 67.5875 15.776C67.1988 16.1573 67.0045 16.7037 67.0045 17.415C67.0045 18.0457 67.1878 18.5443 67.5545 18.911C67.9285 19.2703 68.4712 19.45 69.1825 19.45ZM76.4767 20.11C75.5234 20.11 74.7864 19.8643 74.2657 19.373C73.7451 18.8817 73.4847 18.185 73.4847 17.283C73.4847 16.4177 73.7487 15.7393 74.2767 15.248C74.8047 14.7493 75.5271 14.5 76.4437 14.5C77.0084 14.5 77.5107 14.5917 77.9507 14.775C78.3907 14.951 78.7317 15.204 78.9737 15.534C79.2231 15.8567 79.3477 16.227 79.3477 16.645C79.3477 16.953 79.2597 17.1913 79.0837 17.36C78.9151 17.5287 78.6804 17.613 78.3797 17.613H74.3097C74.3097 18.1777 74.5004 18.6213 74.8817 18.944C75.2631 19.2593 75.7947 19.417 76.4767 19.417C76.8947 19.417 77.2541 19.373 77.5547 19.285C77.8554 19.1897 78.1377 19.0393 78.4017 18.834C78.5411 18.7167 78.6547 18.658 78.7427 18.658C78.8087 18.658 78.8711 18.6873 78.9297 18.746C79.0324 18.834 79.0837 18.9257 79.0837 19.021C79.0837 19.0943 79.0397 19.175 78.9517 19.263C78.6511 19.549 78.2991 19.7617 77.8957 19.901C77.4924 20.0403 77.0194 20.11 76.4767 20.11ZM78.1377 16.964C78.2697 16.964 78.3687 16.9383 78.4347 16.887C78.5007 16.8283 78.5337 16.7257 78.5337 16.579C78.5337 16.315 78.4457 16.0767 78.2697 15.864C78.0937 15.6513 77.8444 15.4863 77.5217 15.369C77.2064 15.2517 76.8471 15.193 76.4437 15.193C75.7911 15.193 75.2741 15.3543 74.8927 15.677C74.5187 15.9923 74.3317 16.4213 74.3317 16.964H78.1377ZM82.9353 20.11C82.4219 20.11 81.9379 20.0147 81.4833 19.824C81.0286 19.626 80.6693 19.3547 80.4053 19.01C80.3539 18.9367 80.3283 18.8633 80.3283 18.79C80.3283 18.7167 80.3466 18.6543 80.3833 18.603C80.4273 18.5443 80.4823 18.5003 80.5483 18.471C80.6069 18.449 80.6546 18.438 80.6913 18.438C80.7573 18.438 80.8123 18.4563 80.8563 18.493C80.9076 18.5223 80.9663 18.5737 81.0323 18.647C81.5089 19.153 82.1433 19.406 82.9353 19.406C83.3166 19.406 83.6246 19.34 83.8593 19.208C84.0939 19.076 84.2113 18.8927 84.2113 18.658C84.2113 18.4893 84.1636 18.3537 84.0683 18.251C83.9803 18.141 83.8263 18.042 83.6063 17.954C83.3936 17.8587 83.0416 17.7267 82.5503 17.558C82.0736 17.3967 81.6996 17.2427 81.4283 17.096C81.1569 16.9493 80.9553 16.7843 80.8233 16.601C80.6913 16.4103 80.6253 16.1793 80.6253 15.908C80.6253 15.4827 80.8086 15.1417 81.1753 14.885C81.5493 14.6283 82.0443 14.5 82.6603 14.5C83.1149 14.5 83.5366 14.5807 83.9253 14.742C84.3139 14.896 84.6073 15.105 84.8053 15.369C84.8639 15.4497 84.8933 15.5267 84.8933 15.6C84.8933 15.71 84.8346 15.798 84.7173 15.864C84.6439 15.908 84.5706 15.93 84.4973 15.93C84.3726 15.93 84.2553 15.875 84.1453 15.765C83.9546 15.5743 83.7456 15.435 83.5183 15.347C83.2909 15.2517 83.0013 15.204 82.6493 15.204C82.2606 15.204 81.9636 15.2663 81.7583 15.391C81.5529 15.5157 81.4503 15.6917 81.4503 15.919C81.4503 16.0877 81.4906 16.2233 81.5713 16.326C81.6593 16.4213 81.7949 16.5093 81.9783 16.59C82.1689 16.6633 82.4989 16.777 82.9683 16.931C83.4963 17.107 83.9033 17.2757 84.1893 17.437C84.4826 17.591 84.6916 17.7633 84.8163 17.954C84.9483 18.1447 85.0143 18.3793 85.0143 18.658C85.0143 19.098 84.8199 19.45 84.4313 19.714C84.0499 19.978 83.5513 20.11 82.9353 20.11Z" fill="white"/>
</svg>
