<svg width="130" height="44" viewBox="0 0 130 44" fill="none" xmlns="http://www.w3.org/2000/svg">
<rect width="129.36" height="43.12" rx="8" fill="black"/>
<path d="M19.2571 26.2674C18.2024 26.2674 17.2878 26.0668 16.5131 25.6654C15.7384 25.2641 15.1458 24.6854 14.7351 23.9294C14.3244 23.1734 14.1191 22.2774 14.1191 21.2414C14.1191 20.2054 14.3244 19.3094 14.7351 18.5534C15.1458 17.7881 15.7338 17.2048 16.4991 16.8034C17.2738 16.3928 18.1838 16.1874 19.2291 16.1874C20.0971 16.1874 20.8998 16.3368 21.6371 16.6354C22.3744 16.9341 22.9204 17.3308 23.2751 17.8254C23.3871 17.9748 23.4431 18.1288 23.4431 18.2874C23.4431 18.5208 23.3171 18.7308 23.0651 18.9174C22.9531 19.0014 22.8131 19.0434 22.6451 19.0434C22.5051 19.0434 22.3651 19.0154 22.2251 18.9594C22.0851 18.8941 21.9684 18.8054 21.8751 18.6934C21.5578 18.3294 21.1891 18.0681 20.7691 17.9094C20.3491 17.7414 19.8358 17.6574 19.2291 17.6574C18.2118 17.6574 17.4184 17.9748 16.8491 18.6094C16.2798 19.2348 15.9951 20.1121 15.9951 21.2414C15.9951 22.3614 16.2798 23.2341 16.8491 23.8594C17.4278 24.4848 18.2304 24.7974 19.2571 24.7974C20.1064 24.7974 20.7691 24.6341 21.2451 24.3074C21.7304 23.9808 21.9731 23.5281 21.9731 22.9494V22.6414C21.9731 22.4454 21.9264 22.3101 21.8331 22.2354C21.7491 22.1608 21.5998 22.1234 21.3851 22.1234H19.5511C19.2898 22.1234 19.0844 22.0628 18.9351 21.9414C18.7858 21.8108 18.7111 21.6334 18.7111 21.4094C18.7111 21.1761 18.7811 20.9988 18.9211 20.8774C19.0704 20.7468 19.2804 20.6814 19.5511 20.6814H22.2671C22.8084 20.6814 23.2051 20.7981 23.4571 21.0314C23.7091 21.2554 23.8351 21.6148 23.8351 22.1094V22.6554C23.8351 23.3648 23.6438 23.9948 23.2611 24.5454C22.8784 25.0868 22.3371 25.5114 21.6371 25.8194C20.9464 26.1181 20.1531 26.2674 19.2571 26.2674ZM26.273 18.2594C25.9276 18.2594 25.6476 18.1661 25.433 17.9794C25.2276 17.7834 25.125 17.5314 25.125 17.2234C25.125 16.9154 25.2276 16.6681 25.433 16.4814C25.6476 16.2854 25.9276 16.1874 26.273 16.1874C26.6183 16.1874 26.8983 16.2854 27.113 16.4814C27.337 16.6681 27.449 16.9154 27.449 17.2234C27.449 17.5314 27.337 17.7834 27.113 17.9794C26.8983 18.1661 26.6183 18.2594 26.273 18.2594ZM26.287 26.2674C25.9976 26.2674 25.7736 26.1928 25.615 26.0434C25.4563 25.8941 25.377 25.6888 25.377 25.4274V19.9674C25.377 19.7061 25.4563 19.5008 25.615 19.3514C25.7736 19.2021 25.9976 19.1274 26.287 19.1274C26.567 19.1274 26.791 19.2021 26.959 19.3514C27.127 19.5008 27.211 19.7061 27.211 19.9674V25.4274C27.211 25.6888 27.127 25.8941 26.959 26.0434C26.791 26.1928 26.567 26.2674 26.287 26.2674ZM34.4463 24.3214C34.5957 24.4428 34.6703 24.5921 34.6703 24.7694C34.6703 24.9468 34.605 25.1288 34.4743 25.3154C34.269 25.6141 33.9797 25.8474 33.6063 26.0154C33.233 26.1834 32.813 26.2674 32.3463 26.2674C31.5997 26.2674 31.0117 26.0668 30.5823 25.6654C30.1623 25.2548 29.9523 24.6948 29.9523 23.9854V20.7094H29.3783C29.0983 20.7094 28.8743 20.6441 28.7063 20.5134C28.5383 20.3828 28.4543 20.2101 28.4543 19.9954C28.4543 19.7714 28.5337 19.5941 28.6923 19.4634C28.8603 19.3328 29.089 19.2674 29.3783 19.2674H29.9523V17.1534C29.9523 16.8921 30.0363 16.6868 30.2043 16.5374C30.3723 16.3881 30.5963 16.3134 30.8763 16.3134C31.1657 16.3134 31.3897 16.3881 31.5483 16.5374C31.707 16.6868 31.7863 16.8921 31.7863 17.1534V19.2674H33.1303C33.4197 19.2674 33.6437 19.3328 33.8023 19.4634C33.9703 19.5941 34.0543 19.7714 34.0543 19.9954C34.0543 20.2101 33.9703 20.3828 33.8023 20.5134C33.6437 20.6441 33.4197 20.7094 33.1303 20.7094H31.7863V24.1394C31.7863 24.3448 31.847 24.5081 31.9683 24.6294C32.099 24.7508 32.2717 24.8114 32.4863 24.8114C32.6543 24.8114 32.799 24.7881 32.9203 24.7414C33.051 24.6854 33.1817 24.5968 33.3123 24.4754C33.555 24.2421 33.779 24.1254 33.9843 24.1254C34.1337 24.1254 34.2877 24.1908 34.4463 24.3214ZM36.7436 26.2674C36.4636 26.2674 36.2396 26.1928 36.0716 26.0434C35.9036 25.8941 35.8196 25.6888 35.8196 25.4274V17.0274C35.8196 16.7661 35.9036 16.5608 36.0716 16.4114C36.2396 16.2621 36.4636 16.1874 36.7436 16.1874C37.0236 16.1874 37.2476 16.2668 37.4156 16.4254C37.593 16.5748 37.6816 16.7754 37.6816 17.0274V20.3734H42.7076V17.0274C42.7076 16.7754 42.7916 16.5748 42.9596 16.4254C43.137 16.2668 43.3656 16.1874 43.6456 16.1874C43.9256 16.1874 44.1496 16.2621 44.3176 16.4114C44.4856 16.5608 44.5696 16.7661 44.5696 17.0274V25.4274C44.5696 25.6888 44.4856 25.8941 44.3176 26.0434C44.1496 26.1928 43.9256 26.2674 43.6456 26.2674C43.3656 26.2674 43.137 26.1928 42.9596 26.0434C42.7916 25.8848 42.7076 25.6794 42.7076 25.4274V21.8154H37.6816V25.4274C37.6816 25.6794 37.593 25.8848 37.4156 26.0434C37.2476 26.1928 37.0236 26.2674 36.7436 26.2674ZM48.9839 26.2674C48.0226 26.2674 47.2712 25.9921 46.7299 25.4414C46.1979 24.8814 45.9319 24.1068 45.9319 23.1174V19.9674C45.9319 19.7061 46.0159 19.5008 46.1839 19.3514C46.3519 19.2021 46.5759 19.1274 46.8559 19.1274C47.1452 19.1274 47.3692 19.2021 47.5279 19.3514C47.6866 19.5008 47.7659 19.7061 47.7659 19.9674V23.1174C47.7659 23.6494 47.9059 24.0648 48.1859 24.3634C48.4752 24.6621 48.8766 24.8114 49.3899 24.8114C50.0526 24.8114 50.5659 24.6014 50.9299 24.1814C51.3032 23.7614 51.4899 23.1828 51.4899 22.4454V19.9674C51.4899 19.7061 51.5739 19.5008 51.7419 19.3514C51.9099 19.2021 52.1339 19.1274 52.4139 19.1274C52.7032 19.1274 52.9272 19.2021 53.0859 19.3514C53.2446 19.5008 53.3239 19.7061 53.3239 19.9674V25.4274C53.3239 25.6981 53.2446 25.9081 53.0859 26.0574C52.9366 26.1974 52.7219 26.2674 52.4419 26.2674C52.1619 26.2674 51.9426 26.1928 51.7839 26.0434C51.6252 25.8941 51.5459 25.6888 51.5459 25.4274V25.0214C51.2006 25.4508 50.8179 25.7681 50.3979 25.9734C49.9872 26.1694 49.5159 26.2674 48.9839 26.2674ZM55.5252 26.2674C55.2359 26.2674 55.0119 26.1928 54.8532 26.0434C54.6945 25.8941 54.6152 25.6888 54.6152 25.4274V16.3414C54.6152 16.0801 54.6945 15.8748 54.8532 15.7254C55.0119 15.5761 55.2359 15.5014 55.5252 15.5014C55.8052 15.5014 56.0292 15.5761 56.1972 15.7254C56.3652 15.8748 56.4492 16.0801 56.4492 16.3414L56.4632 20.2194C56.7899 19.8648 57.1819 19.5941 57.6392 19.4074C58.0965 19.2208 58.5819 19.1274 59.0952 19.1274C60.2525 19.1274 61.1579 19.4448 61.8112 20.0794C62.4645 20.7048 62.7912 21.5774 62.7912 22.6974C62.7912 23.8174 62.4599 24.6948 61.7972 25.3294C61.1439 25.9548 60.2292 26.2674 59.0532 26.2674C58.5212 26.2674 58.0545 26.1834 57.6532 26.0154C57.2519 25.8381 56.8505 25.5488 56.4492 25.1474V25.4274C56.4492 25.6888 56.3652 25.8941 56.1972 26.0434C56.0292 26.1928 55.8052 26.2674 55.5252 26.2674ZM58.7732 24.8114C59.4545 24.8114 59.9865 24.6248 60.3692 24.2514C60.7519 23.8781 60.9432 23.3601 60.9432 22.6974C60.9432 22.0348 60.7519 21.5168 60.3692 21.1434C59.9865 20.7701 59.4545 20.5834 58.7732 20.5834C58.0452 20.5834 57.4759 20.7701 57.0652 21.1434C56.6545 21.5168 56.4492 22.0348 56.4492 22.6974C56.4492 23.3601 56.6545 23.8781 57.0652 24.2514C57.4759 24.6248 58.0452 24.8114 58.7732 24.8114Z" fill="white"/>
<path d="M71.7078 26.2674C71.5492 26.2674 71.4232 26.2208 71.3298 26.1274C71.2365 26.0248 71.1898 25.8848 71.1898 25.7074V18.0074C71.1898 17.4848 71.3438 17.0741 71.6518 16.7754C71.9692 16.4768 72.4078 16.3274 72.9678 16.3274H75.3478C78.0078 16.3274 79.3378 17.4428 79.3378 19.6734C79.3378 20.7001 78.9972 21.4934 78.3158 22.0534C77.6438 22.6041 76.6732 22.8794 75.4038 22.8794H72.2398V25.7074C72.2398 25.8848 72.1932 26.0248 72.0998 26.1274C72.0065 26.2208 71.8758 26.2674 71.7078 26.2674ZM75.4038 21.9974C76.3092 21.9974 77.0092 21.8201 77.5038 21.4654C78.0078 21.1108 78.2598 20.5134 78.2598 19.6734C78.2598 18.7961 78.0172 18.1661 77.5318 17.7834C77.0465 17.3914 76.3418 17.1954 75.4178 17.1954H72.9818C72.7578 17.1954 72.5758 17.2701 72.4358 17.4194C72.3052 17.5688 72.2398 17.7648 72.2398 18.0074V21.9974H75.4038ZM83.0181 26.2674C82.1034 26.2674 81.3847 26.0668 80.8621 25.6654C80.3487 25.2641 80.0921 24.7088 80.0921 23.9994C80.0921 23.2994 80.3627 22.7441 80.9041 22.3334C81.4547 21.9228 82.2014 21.7174 83.1441 21.7174C83.6947 21.7174 84.1801 21.7921 84.6001 21.9414C85.0294 22.0908 85.3607 22.2914 85.5941 22.5434V21.6474C85.5941 21.1154 85.4167 20.7094 85.0621 20.4294C84.7167 20.1494 84.2081 20.0094 83.5361 20.0094C82.6681 20.0094 81.9167 20.2148 81.2821 20.6254C81.1234 20.7188 80.9927 20.7654 80.8901 20.7654C80.7967 20.7654 80.7034 20.7281 80.6101 20.6534C80.5074 20.5694 80.4561 20.4621 80.4561 20.3314C80.4561 20.1914 80.5167 20.0748 80.6381 19.9814C80.9741 19.7201 81.3987 19.5148 81.9121 19.3654C82.4347 19.2068 82.9667 19.1274 83.5081 19.1274C84.4974 19.1274 85.2627 19.3514 85.8041 19.7994C86.3547 20.2474 86.6301 20.8774 86.6301 21.6894V25.7214C86.6301 26.0854 86.4621 26.2674 86.1261 26.2674C85.9767 26.2674 85.8554 26.2208 85.7621 26.1274C85.6687 26.0248 85.6221 25.8941 85.6221 25.7354V25.2314C85.0434 25.9221 84.1754 26.2674 83.0181 26.2674ZM83.1441 25.4134C83.8721 25.4134 84.4647 25.2781 84.9221 25.0074C85.3794 24.7274 85.6081 24.3681 85.6081 23.9294C85.6081 23.4908 85.3934 23.1548 84.9641 22.9214C84.5441 22.6788 83.9467 22.5574 83.1721 22.5574C82.5187 22.5574 82.0147 22.6834 81.6601 22.9354C81.3054 23.1781 81.1281 23.5328 81.1281 23.9994C81.1281 24.4568 81.3007 24.8068 81.6461 25.0494C81.9914 25.2921 82.4907 25.4134 83.1441 25.4134ZM92.1485 29.6414C91.4765 29.6414 90.8698 29.5434 90.3285 29.3474C89.7871 29.1514 89.3485 28.8668 89.0125 28.4934C88.9378 28.4188 88.9005 28.3254 88.9005 28.2134C88.9005 28.0734 88.9751 27.9521 89.1245 27.8494C89.2178 27.7841 89.3065 27.7514 89.3905 27.7514C89.5305 27.7514 89.6705 27.8261 89.8105 27.9754C90.0345 28.2181 90.3331 28.4141 90.7065 28.5634C91.0798 28.7128 91.5278 28.7874 92.0505 28.7874C92.9651 28.7874 93.6651 28.5681 94.1505 28.1294C94.6358 27.6908 94.8785 27.0561 94.8785 26.2254V24.9094C94.5611 25.3294 94.1458 25.6748 93.6325 25.9454C93.1191 26.2068 92.5218 26.3374 91.8405 26.3374C90.6551 26.3374 89.7405 26.0201 89.0965 25.3854C88.4525 24.7508 88.1305 23.9014 88.1305 22.8374C88.1305 22.1188 88.2705 21.4841 88.5505 20.9334C88.8398 20.3734 89.2691 19.9348 89.8385 19.6174C90.4078 19.2908 91.1078 19.1274 91.9385 19.1274C92.5545 19.1274 93.1098 19.2534 93.6045 19.5054C94.0991 19.7574 94.5238 20.1168 94.8785 20.5834V19.6594C94.8785 19.5101 94.9251 19.3841 95.0185 19.2814C95.1211 19.1788 95.2471 19.1274 95.3965 19.1274C95.5458 19.1274 95.6671 19.1788 95.7605 19.2814C95.8538 19.3748 95.9005 19.5008 95.9005 19.6594V26.2254C95.9005 26.9254 95.7418 27.5321 95.4245 28.0454C95.1165 28.5588 94.6778 28.9508 94.1085 29.2214C93.5391 29.5014 92.8858 29.6414 92.1485 29.6414ZM91.9385 25.4274C92.4425 25.4274 92.9138 25.3294 93.3525 25.1334C93.8005 24.9374 94.1645 24.6388 94.4445 24.2374C94.7245 23.8268 94.8645 23.3274 94.8645 22.7394C94.8645 22.2168 94.7525 21.7501 94.5285 21.3394C94.3045 20.9288 93.9778 20.6068 93.5485 20.3734C93.1191 20.1308 92.6058 20.0094 92.0085 20.0094C91.1031 20.0094 90.4031 20.2568 89.9085 20.7514C89.4138 21.2368 89.1665 21.9321 89.1665 22.8374C89.1665 23.6401 89.3998 24.2748 89.8665 24.7414C90.3425 25.1988 91.0331 25.4274 91.9385 25.4274ZM101.222 26.2674C100.009 26.2674 99.0707 25.9548 98.408 25.3294C97.7453 24.7041 97.414 23.8174 97.414 22.6694C97.414 21.5681 97.75 20.7048 98.422 20.0794C99.094 19.4448 100.013 19.1274 101.18 19.1274C101.899 19.1274 102.538 19.2441 103.098 19.4774C103.658 19.7014 104.092 20.0234 104.4 20.4434C104.717 20.8541 104.876 21.3254 104.876 21.8574C104.876 22.2494 104.764 22.5528 104.54 22.7674C104.325 22.9821 104.027 23.0894 103.644 23.0894H98.464C98.464 23.8081 98.7067 24.3728 99.192 24.7834C99.6773 25.1848 100.354 25.3854 101.222 25.3854C101.754 25.3854 102.211 25.3294 102.594 25.2174C102.977 25.0961 103.336 24.9048 103.672 24.6434C103.849 24.4941 103.994 24.4194 104.106 24.4194C104.19 24.4194 104.269 24.4568 104.344 24.5314C104.475 24.6434 104.54 24.7601 104.54 24.8814C104.54 24.9748 104.484 25.0774 104.372 25.1894C103.989 25.5534 103.541 25.8241 103.028 26.0014C102.515 26.1788 101.913 26.2674 101.222 26.2674ZM103.336 22.2634C103.504 22.2634 103.63 22.2308 103.714 22.1654C103.798 22.0908 103.84 21.9601 103.84 21.7734C103.84 21.4374 103.728 21.1341 103.504 20.8634C103.28 20.5928 102.963 20.3828 102.552 20.2334C102.151 20.0841 101.693 20.0094 101.18 20.0094C100.349 20.0094 99.6913 20.2148 99.206 20.6254C98.73 21.0268 98.492 21.5728 98.492 22.2634H103.336ZM109.442 26.2674C108.789 26.2674 108.173 26.1461 107.594 25.9034C107.015 25.6514 106.558 25.3061 106.222 24.8674C106.157 24.7741 106.124 24.6808 106.124 24.5874C106.124 24.4941 106.147 24.4148 106.194 24.3494C106.25 24.2748 106.32 24.2188 106.404 24.1814C106.479 24.1534 106.539 24.1394 106.586 24.1394C106.67 24.1394 106.74 24.1628 106.796 24.2094C106.861 24.2468 106.936 24.3121 107.02 24.4054C107.627 25.0494 108.434 25.3714 109.442 25.3714C109.927 25.3714 110.319 25.2874 110.618 25.1194C110.917 24.9514 111.066 24.7181 111.066 24.4194C111.066 24.2048 111.005 24.0321 110.884 23.9014C110.772 23.7614 110.576 23.6354 110.296 23.5234C110.025 23.4021 109.577 23.2341 108.952 23.0194C108.345 22.8141 107.869 22.6181 107.524 22.4314C107.179 22.2448 106.922 22.0348 106.754 21.8014C106.586 21.5588 106.502 21.2648 106.502 20.9194C106.502 20.3781 106.735 19.9441 107.202 19.6174C107.678 19.2908 108.308 19.1274 109.092 19.1274C109.671 19.1274 110.207 19.2301 110.702 19.4354C111.197 19.6314 111.57 19.8974 111.822 20.2334C111.897 20.3361 111.934 20.4341 111.934 20.5274C111.934 20.6674 111.859 20.7794 111.71 20.8634C111.617 20.9194 111.523 20.9474 111.43 20.9474C111.271 20.9474 111.122 20.8774 110.982 20.7374C110.739 20.4948 110.473 20.3174 110.184 20.2054C109.895 20.0841 109.526 20.0234 109.078 20.0234C108.583 20.0234 108.205 20.1028 107.944 20.2614C107.683 20.4201 107.552 20.6441 107.552 20.9334C107.552 21.1481 107.603 21.3208 107.706 21.4514C107.818 21.5728 107.991 21.6848 108.224 21.7874C108.467 21.8808 108.887 22.0254 109.484 22.2214C110.156 22.4454 110.674 22.6601 111.038 22.8654C111.411 23.0614 111.677 23.2808 111.836 23.5234C112.004 23.7661 112.088 24.0648 112.088 24.4194C112.088 24.9794 111.841 25.4274 111.346 25.7634C110.861 26.0994 110.226 26.2674 109.442 26.2674Z" fill="white"/>
</svg>
