<svg width="96" height="32" viewBox="0 0 96 32" fill="none" xmlns="http://www.w3.org/2000/svg">
<rect width="96" height="32" rx="8" fill="black"/>
<path d="M38.5615 16.1133C38.5615 15.5762 38.6624 15.0749 38.8643 14.6094C39.0661 14.1406 39.3607 13.7337 39.748 13.3887C40.1354 13.0436 40.6107 12.7718 41.1738 12.5732C41.7402 12.3747 42.388 12.2754 43.1172 12.2754C43.3809 12.2754 43.6445 12.29 43.9082 12.3193C44.1751 12.3454 44.4372 12.3877 44.6943 12.4463C44.9548 12.5049 45.207 12.5798 45.4512 12.6709C45.6986 12.7588 45.9329 12.8646 46.1543 12.9883L45.4414 14.1602C45.3079 14.082 45.1566 14.012 44.9873 13.9502C44.818 13.8851 44.6357 13.8314 44.4404 13.7891C44.2484 13.7435 44.0482 13.7093 43.8398 13.6865C43.6348 13.6637 43.4281 13.6523 43.2197 13.6523C42.738 13.6523 42.3083 13.7142 41.9307 13.8379C41.5531 13.9583 41.234 14.1292 40.9736 14.3506C40.7132 14.5687 40.5146 14.8307 40.3779 15.1367C40.2412 15.4427 40.1729 15.778 40.1729 16.1426C40.1729 16.5202 40.2445 16.8669 40.3877 17.1826C40.5309 17.4984 40.7344 17.7702 40.998 17.998C41.2617 18.2259 41.5807 18.4049 41.9551 18.5352C42.3294 18.6621 42.7477 18.7256 43.21 18.7256C43.5778 18.7256 43.9147 18.6849 44.2207 18.6035C44.5267 18.5189 44.7936 18.4001 45.0215 18.2471C45.2493 18.0941 45.4349 17.9102 45.5781 17.6953C45.7214 17.4772 45.8158 17.2331 45.8613 16.9629H43.1953V15.6885H47.2529V15.6934L47.2578 15.6885C47.3392 16.0791 47.3636 16.46 47.3311 16.8311C47.3018 17.1989 47.2171 17.5472 47.0771 17.876C46.9404 18.2015 46.7516 18.501 46.5107 18.7744C46.2699 19.0479 45.9818 19.2839 45.6465 19.4824C45.3112 19.6777 44.9303 19.8307 44.5039 19.9414C44.0775 20.0488 43.6104 20.1025 43.1025 20.1025C42.3929 20.1025 41.7565 19.9984 41.1934 19.79C40.6335 19.5817 40.1582 19.2969 39.7676 18.9355C39.377 18.5742 39.0775 18.151 38.8691 17.666C38.6641 17.181 38.5615 16.6634 38.5615 16.1133ZM49.665 13.4521C49.5218 13.4521 49.3916 13.4326 49.2744 13.3936C49.1605 13.3512 49.0628 13.2959 48.9814 13.2275C48.9001 13.1559 48.8366 13.0745 48.791 12.9834C48.7487 12.889 48.7275 12.7897 48.7275 12.6855C48.7275 12.5781 48.7487 12.4788 48.791 12.3877C48.8366 12.2933 48.9001 12.2119 48.9814 12.1436C49.0628 12.0752 49.1605 12.0215 49.2744 11.9824C49.3916 11.9401 49.5218 11.9189 49.665 11.9189C49.8115 11.9189 49.9417 11.9401 50.0557 11.9824C50.1729 12.0215 50.2721 12.0752 50.3535 12.1436C50.4349 12.2119 50.4967 12.2933 50.5391 12.3877C50.5846 12.4788 50.6074 12.5781 50.6074 12.6855C50.6074 12.7897 50.5846 12.889 50.5391 12.9834C50.4967 13.0745 50.4349 13.1559 50.3535 13.2275C50.2721 13.2959 50.1729 13.3512 50.0557 13.3936C49.9417 13.4326 49.8115 13.4521 49.665 13.4521ZM48.9424 14.2383H50.3877V20H48.9424V14.2383ZM53.1123 15.3223H51.7207V14.2383H53.1123V12.4463H54.5576V14.2383H55.9492V15.3223H54.5576V20H53.1123V15.3223ZM57.4092 12.3682H58.957V14.3604H63.7031V12.3682H65.2559V20H63.7031V15.6836H58.957V20H57.4092V12.3682ZM67.2432 14.2334H68.6836V17.0459C68.6836 17.3128 68.7129 17.557 68.7715 17.7783C68.8301 17.9964 68.9294 18.1836 69.0693 18.3398C69.2126 18.4961 69.4014 18.6182 69.6357 18.7061C69.8734 18.7907 70.168 18.833 70.5195 18.833C70.6855 18.833 70.8532 18.8151 71.0225 18.7793C71.195 18.7435 71.3594 18.6947 71.5156 18.6328C71.6719 18.5677 71.8167 18.4912 71.9502 18.4033C72.0869 18.3154 72.2041 18.2194 72.3018 18.1152V14.2334H73.7471V20H72.3018V19.5068C71.9469 19.7184 71.5905 19.8698 71.2324 19.9609C70.8743 20.0521 70.5342 20.0977 70.2119 20.0977C69.6846 20.0977 69.2321 20.0342 68.8545 19.9072C68.4801 19.7803 68.1725 19.5964 67.9316 19.3555C67.694 19.1113 67.5199 18.8135 67.4092 18.4619C67.2985 18.1071 67.2432 17.7035 67.2432 17.251V14.2334ZM75.5439 11.8994H76.9893V14.7803C77.1162 14.6924 77.266 14.6094 77.4385 14.5312C77.611 14.4531 77.7965 14.3848 77.9951 14.3262C78.1937 14.2676 78.3988 14.222 78.6104 14.1895C78.8219 14.1536 79.0335 14.1357 79.2451 14.1357C79.7334 14.1357 80.181 14.2074 80.5879 14.3506C80.998 14.4938 81.3496 14.6956 81.6426 14.9561C81.9355 15.2165 82.1634 15.529 82.3262 15.8936C82.4922 16.2549 82.5752 16.6553 82.5752 17.0947C82.5752 17.5537 82.4889 17.9688 82.3164 18.3398C82.1439 18.7077 81.9046 19.0234 81.5986 19.2871C81.2959 19.5475 80.9346 19.7493 80.5146 19.8926C80.098 20.0326 79.6455 20.1025 79.1572 20.1025C78.9489 20.1025 78.7422 20.0895 78.5371 20.0635C78.3353 20.0374 78.14 20.0016 77.9512 19.9561C77.7656 19.9105 77.5898 19.8568 77.4238 19.7949C77.2611 19.7298 77.1162 19.6598 76.9893 19.585V20H75.5439V11.8994ZM76.9893 18.1885C77.1357 18.3057 77.2904 18.4049 77.4531 18.4863C77.6159 18.5677 77.7819 18.6344 77.9512 18.6865C78.1204 18.7386 78.2913 18.7777 78.4639 18.8037C78.6364 18.8265 78.804 18.8379 78.9668 18.8379C79.2988 18.8379 79.5934 18.7939 79.8506 18.7061C80.111 18.6149 80.3291 18.4912 80.5049 18.335C80.6839 18.1787 80.8206 17.9948 80.915 17.7832C81.0094 17.5716 81.0566 17.3421 81.0566 17.0947C81.0566 16.8636 81.0094 16.6455 80.915 16.4404C80.8239 16.2354 80.6904 16.0563 80.5146 15.9033C80.3421 15.7471 80.1322 15.625 79.8848 15.5371C79.6406 15.446 79.3656 15.4004 79.0596 15.4004C78.8643 15.4004 78.6689 15.4199 78.4736 15.459C78.2783 15.4948 78.0895 15.5469 77.9072 15.6152C77.7282 15.6836 77.5589 15.7666 77.3994 15.8643C77.2432 15.9619 77.1064 16.071 76.9893 16.1914V18.1885Z" fill="white"/>
<path d="M29.6597 15.1976L21.8004 7.33918C21.3473 6.88694 20.6138 6.88694 20.1593 7.33918L18.5311 8.97042L20.6011 11.0404C21.0848 10.8791 21.6354 10.9879 22.0179 11.3711C22.4049 11.7574 22.5114 12.3146 22.3464 12.7961L24.3399 14.7911C24.8236 14.6239 25.3801 14.7326 25.7649 15.1174C26.3056 15.6573 26.3056 16.5303 25.7649 17.0703C25.2256 17.6096 24.3541 17.6096 23.8149 17.0703C23.4106 16.6646 23.3094 16.0676 23.5119 15.5733L21.6451 13.7164V18.6101C21.7771 18.6746 21.9016 18.7623 22.0111 18.8711C22.5459 19.4118 22.5459 20.2833 22.0111 20.821C21.4718 21.3618 20.5943 21.3618 20.0543 20.821C19.5151 20.2818 19.5151 19.4118 20.0543 18.8726C20.1908 18.7376 20.3446 18.6356 20.5081 18.5681V13.6264C20.3453 13.5581 20.1901 13.4599 20.0581 13.3256C19.6493 12.9169 19.5511 12.3191 19.7611 11.8189L17.7271 9.77516L12.3375 15.1609C11.8875 15.6146 11.8875 16.3488 12.3375 16.8026L20.1976 24.6603C20.6506 25.1132 21.3841 25.1132 21.8371 24.6603L29.6597 16.8378C30.1134 16.3856 30.1134 15.6513 29.6597 15.1976Z" fill="white"/>
</svg>
