<svg width="130" height="44" viewBox="0 0 130 44" fill="none" xmlns="http://www.w3.org/2000/svg">
<rect width="129.36" height="43.12" rx="8" fill="black"/>
<path d="M51.9912 22.0337C51.9912 21.2817 52.1325 20.5799 52.415 19.9282C52.6976 19.272 53.11 18.7023 53.6523 18.2192C54.1947 17.7362 54.86 17.3556 55.6484 17.0776C56.4414 16.7996 57.3483 16.6606 58.3691 16.6606C58.7383 16.6606 59.1074 16.6812 59.4766 16.7222C59.8503 16.7586 60.2171 16.8179 60.5771 16.8999C60.9417 16.9819 61.2949 17.0868 61.6367 17.2144C61.9831 17.3374 62.3112 17.4855 62.6211 17.6587L61.623 19.2993C61.4362 19.1899 61.2243 19.092 60.9873 19.0054C60.7503 18.9142 60.4951 18.839 60.2217 18.7798C59.9528 18.716 59.6725 18.6681 59.3809 18.6362C59.0938 18.6043 58.8044 18.5884 58.5127 18.5884C57.8382 18.5884 57.2367 18.675 56.708 18.8481C56.1794 19.0168 55.7327 19.256 55.3682 19.5659C55.0036 19.8713 54.7256 20.2381 54.5342 20.6665C54.3428 21.0949 54.2471 21.5643 54.2471 22.0747C54.2471 22.6034 54.3473 23.0887 54.5479 23.5308C54.7484 23.9728 55.0332 24.3534 55.4023 24.6724C55.7715 24.9914 56.2181 25.242 56.7422 25.4243C57.2663 25.6021 57.8519 25.6909 58.499 25.6909C59.014 25.6909 59.4857 25.634 59.9141 25.52C60.3424 25.4015 60.7161 25.2352 61.0352 25.021C61.3542 24.8068 61.6139 24.5493 61.8145 24.2485C62.015 23.9432 62.1471 23.6014 62.2109 23.2231H58.4785V21.439H64.1592V21.4458L64.166 21.439C64.2799 21.9858 64.3141 22.519 64.2686 23.0386C64.2275 23.5535 64.109 24.0412 63.9131 24.5015C63.7217 24.9572 63.4574 25.3765 63.1201 25.7593C62.7829 26.1421 62.3796 26.4725 61.9102 26.7505C61.4408 27.0239 60.9076 27.2381 60.3105 27.3931C59.7135 27.5435 59.0596 27.6187 58.3486 27.6187C57.3551 27.6187 56.4642 27.4728 55.6758 27.1812C54.8919 26.8895 54.2266 26.4907 53.6797 25.9849C53.1328 25.479 52.7135 24.8866 52.4219 24.2075C52.1348 23.5285 51.9912 22.8039 51.9912 22.0337ZM67.5361 18.3081C67.3356 18.3081 67.1533 18.2808 66.9893 18.2261C66.8298 18.1668 66.693 18.0894 66.5791 17.9937C66.4652 17.8934 66.3763 17.7795 66.3125 17.6519C66.2533 17.5197 66.2236 17.3807 66.2236 17.2349C66.2236 17.0845 66.2533 16.9455 66.3125 16.8179C66.3763 16.6857 66.4652 16.5718 66.5791 16.4761C66.693 16.3804 66.8298 16.3052 66.9893 16.2505C67.1533 16.1912 67.3356 16.1616 67.5361 16.1616C67.7412 16.1616 67.9235 16.1912 68.083 16.2505C68.2471 16.3052 68.3861 16.3804 68.5 16.4761C68.6139 16.5718 68.7005 16.6857 68.7598 16.8179C68.8236 16.9455 68.8555 17.0845 68.8555 17.2349C68.8555 17.3807 68.8236 17.5197 68.7598 17.6519C68.7005 17.7795 68.6139 17.8934 68.5 17.9937C68.3861 18.0894 68.2471 18.1668 68.083 18.2261C67.9235 18.2808 67.7412 18.3081 67.5361 18.3081ZM66.5244 19.4087H68.5479V27.4751H66.5244V19.4087ZM72.3623 20.9263H70.4141V19.4087H72.3623V16.8999H74.3857V19.4087H76.334V20.9263H74.3857V27.4751H72.3623V20.9263ZM78.3779 16.7905H80.5449V19.5796H87.1895V16.7905H89.3633V27.4751H87.1895V21.4321H80.5449V27.4751H78.3779V16.7905ZM92.1455 19.4019H94.1621V23.3394C94.1621 23.7131 94.2031 24.0549 94.2852 24.3647C94.3672 24.6701 94.5062 24.9321 94.7021 25.1509C94.9027 25.3696 95.167 25.5405 95.4951 25.6636C95.8278 25.7821 96.2402 25.8413 96.7324 25.8413C96.9648 25.8413 97.1995 25.8162 97.4365 25.7661C97.6781 25.716 97.9082 25.6476 98.127 25.561C98.3457 25.4699 98.5485 25.3628 98.7354 25.2397C98.9268 25.1167 99.0908 24.9823 99.2275 24.8364V19.4019H101.251V27.4751H99.2275V26.7847C98.7308 27.0809 98.2318 27.2928 97.7305 27.4204C97.2292 27.548 96.7529 27.6118 96.3018 27.6118C95.5635 27.6118 94.93 27.5229 94.4014 27.3452C93.8773 27.1675 93.4466 26.91 93.1094 26.5728C92.7767 26.231 92.5329 25.814 92.3779 25.3218C92.223 24.825 92.1455 24.2599 92.1455 23.6265V19.4019ZM103.767 16.1343H105.79V20.1675C105.968 20.0444 106.177 19.9282 106.419 19.8188C106.66 19.7095 106.92 19.6138 107.198 19.5317C107.476 19.4497 107.763 19.3859 108.06 19.3403C108.356 19.2902 108.652 19.2651 108.948 19.2651C109.632 19.2651 110.258 19.3654 110.828 19.5659C111.402 19.7664 111.895 20.049 112.305 20.4136C112.715 20.7782 113.034 21.2157 113.262 21.7261C113.494 22.2319 113.61 22.7925 113.61 23.4077C113.61 24.0503 113.49 24.6313 113.248 25.1509C113.007 25.6659 112.672 26.1079 112.243 26.4771C111.819 26.8416 111.313 27.1242 110.726 27.3247C110.142 27.5207 109.509 27.6187 108.825 27.6187C108.534 27.6187 108.244 27.6004 107.957 27.564C107.674 27.5275 107.401 27.4774 107.137 27.4136C106.877 27.3498 106.631 27.2746 106.398 27.188C106.171 27.0968 105.968 26.9989 105.79 26.894V27.4751H103.767V16.1343ZM105.79 24.939C105.995 25.103 106.212 25.242 106.439 25.356C106.667 25.4699 106.9 25.5633 107.137 25.6362C107.374 25.7091 107.613 25.7638 107.854 25.8003C108.096 25.8322 108.331 25.8481 108.559 25.8481C109.023 25.8481 109.436 25.7866 109.796 25.6636C110.16 25.536 110.466 25.3628 110.712 25.144C110.963 24.9253 111.154 24.6678 111.286 24.3716C111.418 24.0754 111.484 23.7541 111.484 23.4077C111.484 23.0841 111.418 22.7788 111.286 22.4917C111.159 22.2046 110.972 21.9539 110.726 21.7397C110.484 21.521 110.19 21.3501 109.844 21.2271C109.502 21.0994 109.117 21.0356 108.688 21.0356C108.415 21.0356 108.142 21.063 107.868 21.1177C107.595 21.1678 107.33 21.2407 107.075 21.3364C106.825 21.4321 106.588 21.5483 106.364 21.6851C106.146 21.8218 105.954 21.9744 105.79 22.1431V24.939Z" fill="white"/>
<path d="M39.9663 20.4789L29.3759 9.88967C28.7655 9.28027 27.7771 9.28027 27.1646 9.88967L24.9705 12.0878L27.7599 14.877C28.4118 14.6598 29.1536 14.8063 29.669 15.3227C30.1905 15.8432 30.334 16.5941 30.1116 17.2429L32.7979 19.9311C33.4498 19.7058 34.1997 19.8523 34.7181 20.3707C35.4468 21.0984 35.4468 22.2747 34.7181 23.0024C33.9915 23.729 32.8171 23.729 32.0905 23.0024C31.5457 22.4556 31.4093 21.6512 31.6822 20.9852L29.1667 18.4829V25.0772C29.3446 25.1641 29.5123 25.2823 29.6599 25.4289C30.3805 26.1575 30.3805 27.3319 29.6599 28.0565C28.9332 28.7851 27.7508 28.7851 27.0231 28.0565C26.2965 27.3298 26.2965 26.1575 27.0231 25.4309C27.2071 25.249 27.4143 25.1115 27.6346 25.0206V18.3616C27.4153 18.2697 27.2061 18.1373 27.0282 17.9564C26.4774 17.4056 26.345 16.6001 26.628 15.9261L23.8871 13.1721L16.6247 20.4294C16.0183 21.0408 16.0183 22.0302 16.6247 22.6416L27.2162 33.2298C27.8266 33.8402 28.815 33.8402 29.4254 33.2298L39.9663 22.6891C40.5778 22.0797 40.5778 21.0903 39.9663 20.4789Z" fill="white"/>
</svg>
