<svg width="98" height="43" viewBox="0 0 98 43" fill="none" xmlns="http://www.w3.org/2000/svg">
<rect width="98" height="43" rx="8" fill="black"/>
<path d="M16.024 27.0212C15.3147 27.0212 14.764 26.8346 14.372 26.4612C13.98 26.0879 13.784 25.5652 13.784 24.8932V17.9212C13.784 17.6599 13.868 17.4546 14.036 17.3052C14.204 17.1559 14.428 17.0812 14.708 17.0812C14.988 17.0812 15.212 17.1606 15.38 17.3192C15.5573 17.4686 15.646 17.6692 15.646 17.9212V24.8932C15.646 25.1079 15.6973 25.2759 15.8 25.3972C15.912 25.5186 16.0613 25.5792 16.248 25.5792H20.728C21.008 25.5792 21.2227 25.6446 21.372 25.7752C21.5213 25.8966 21.596 26.0739 21.596 26.3072C21.596 26.5312 21.5167 26.7086 21.358 26.8392C21.2087 26.9606 20.9987 27.0212 20.728 27.0212H16.024ZM23.7471 19.1532C23.4017 19.1532 23.1217 19.0599 22.9071 18.8732C22.7017 18.6772 22.5991 18.4252 22.5991 18.1172C22.5991 17.8092 22.7017 17.5619 22.9071 17.3752C23.1217 17.1792 23.4017 17.0812 23.7471 17.0812C24.0924 17.0812 24.3724 17.1792 24.5871 17.3752C24.8111 17.5619 24.9231 17.8092 24.9231 18.1172C24.9231 18.4252 24.8111 18.6772 24.5871 18.8732C24.3724 19.0599 24.0924 19.1532 23.7471 19.1532ZM23.7611 27.1612C23.4717 27.1612 23.2477 27.0866 23.0891 26.9372C22.9304 26.7879 22.8511 26.5826 22.8511 26.3212V20.8612C22.8511 20.5999 22.9304 20.3946 23.0891 20.2452C23.2477 20.0959 23.4717 20.0212 23.7611 20.0212C24.0411 20.0212 24.2651 20.0959 24.4331 20.2452C24.6011 20.3946 24.6851 20.5999 24.6851 20.8612V26.3212C24.6851 26.5826 24.6011 26.7879 24.4331 26.9372C24.2651 27.0866 24.0411 27.1612 23.7611 27.1612ZM27.1185 27.1612C26.8291 27.1612 26.6051 27.0866 26.4465 26.9372C26.2878 26.7879 26.2085 26.5826 26.2085 26.3212V20.8612C26.2085 20.5906 26.2831 20.3852 26.4325 20.2452C26.5911 20.0959 26.8105 20.0212 27.0905 20.0212C27.3705 20.0212 27.5898 20.0959 27.7485 20.2452C27.9071 20.3946 27.9865 20.5999 27.9865 20.8612V21.2672C28.6491 20.4366 29.5545 20.0212 30.7025 20.0212C31.5985 20.0212 32.3031 20.3059 32.8165 20.8752C33.3391 21.4352 33.6005 22.2006 33.6005 23.1712V26.3212C33.6005 26.5826 33.5165 26.7879 33.3485 26.9372C33.1805 27.0866 32.9565 27.1612 32.6765 27.1612C32.3871 27.1612 32.1631 27.0866 32.0045 26.9372C31.8458 26.7879 31.7665 26.5826 31.7665 26.3212V23.1712C31.7665 22.6392 31.6358 22.2239 31.3745 21.9252C31.1131 21.6266 30.7491 21.4772 30.2825 21.4772C29.5731 21.4772 29.0225 21.6872 28.6305 22.1072C28.2385 22.5179 28.0425 23.0966 28.0425 23.8432V26.3212C28.0425 26.5826 27.9585 26.7879 27.7905 26.9372C27.6225 27.0866 27.3985 27.1612 27.1185 27.1612ZM35.7317 27.1612C35.4424 27.1612 35.2184 27.0866 35.0597 26.9372C34.9011 26.7879 34.8217 26.5826 34.8217 26.3212V17.2352C34.8217 16.9739 34.9011 16.7686 35.0597 16.6192C35.2184 16.4699 35.4424 16.3952 35.7317 16.3952C36.0117 16.3952 36.2357 16.4699 36.4037 16.6192C36.5717 16.7686 36.6557 16.9739 36.6557 17.2352V22.8072L40.7437 20.1752C40.9491 20.0446 41.1357 19.9792 41.3037 19.9792C41.5744 19.9792 41.7704 20.1052 41.8917 20.3572C41.9664 20.5252 42.0037 20.6652 42.0037 20.7772C42.0037 21.0199 41.8591 21.2299 41.5697 21.4072L39.3997 22.7512C40.2211 23.2459 40.8324 23.7686 41.2337 24.3192C41.6444 24.8699 41.8964 25.5186 41.9897 26.2652C41.9991 26.3026 42.0037 26.3586 42.0037 26.4332C42.0037 26.6666 41.9337 26.8486 41.7937 26.9792C41.6631 27.1006 41.4764 27.1612 41.2337 27.1612C40.9817 27.1612 40.7717 27.1099 40.6037 27.0072C40.4451 26.9046 40.3424 26.7552 40.2957 26.5592C40.1557 26.0179 39.9971 25.5792 39.8197 25.2432C39.6517 24.9072 39.4277 24.6179 39.1477 24.3752C38.8771 24.1232 38.5084 23.8666 38.0417 23.6052L36.6557 24.5572V26.3212C36.6557 26.5826 36.5717 26.7879 36.4037 26.9372C36.2357 27.0866 36.0117 27.1612 35.7317 27.1612ZM46.6144 27.1612C45.8118 27.1612 45.1118 27.0166 44.5144 26.7272C43.9171 26.4379 43.4551 26.0319 43.1284 25.5092C42.8111 24.9772 42.6524 24.3566 42.6524 23.6472C42.6524 22.4992 42.9838 21.6079 43.6464 20.9732C44.3184 20.3386 45.2611 20.0212 46.4744 20.0212C47.2211 20.0212 47.8791 20.1379 48.4484 20.3712C49.0271 20.6046 49.4751 20.9312 49.7924 21.3512C50.1191 21.7619 50.2824 22.2332 50.2824 22.7652C50.2824 23.2132 50.1378 23.5586 49.8484 23.8012C49.5684 24.0439 49.1671 24.1652 48.6444 24.1652H44.4304C44.4304 24.6879 44.6124 25.0846 44.9764 25.3552C45.3498 25.6166 45.8958 25.7472 46.6144 25.7472C47.3704 25.7472 48.0144 25.5792 48.5464 25.2432C48.8451 25.0566 49.0784 24.9632 49.2464 24.9632C49.4051 24.9632 49.5591 25.0379 49.7084 25.1872C49.8671 25.3459 49.9464 25.5186 49.9464 25.7052C49.9464 25.9292 49.8531 26.1066 49.6664 26.2372C49.2744 26.5359 48.8171 26.7646 48.2944 26.9232C47.7718 27.0819 47.2118 27.1612 46.6144 27.1612ZM48.0844 22.8772C48.2431 22.8772 48.3551 22.8492 48.4204 22.7932C48.4858 22.7279 48.5184 22.6252 48.5184 22.4852C48.5184 22.1586 48.3318 21.9019 47.9584 21.7152C47.5944 21.5286 47.0998 21.4352 46.4744 21.4352C45.8491 21.4352 45.3544 21.5659 44.9904 21.8272C44.6358 22.0886 44.4584 22.4386 44.4584 22.8772H48.0844ZM54.4022 27.1612C53.6742 27.1612 53.0255 27.0212 52.4562 26.7412C51.8962 26.4519 51.4575 26.0366 51.1402 25.4952C50.8228 24.9539 50.6642 24.3192 50.6642 23.5912C50.6642 22.8632 50.8135 22.2332 51.1122 21.7012C51.4202 21.1599 51.8588 20.7446 52.4282 20.4552C52.9975 20.1659 53.6695 20.0212 54.4442 20.0212C55.0135 20.0212 55.4942 20.1146 55.8862 20.3012C56.2782 20.4786 56.6468 20.7492 56.9922 21.1132L57.0062 17.2352C57.0062 16.9739 57.0902 16.7686 57.2582 16.6192C57.4262 16.4699 57.6502 16.3952 57.9302 16.3952C58.2102 16.3952 58.4295 16.4699 58.5882 16.6192C58.7562 16.7592 58.8402 16.9646 58.8402 17.2352V26.3212C58.8402 26.5919 58.7562 26.8019 58.5882 26.9512C58.4295 27.0912 58.2102 27.1612 57.9302 27.1612C57.6502 27.1612 57.4262 27.0866 57.2582 26.9372C57.0902 26.7879 57.0062 26.5826 57.0062 26.3212V26.0412C56.3808 26.7879 55.5128 27.1612 54.4022 27.1612ZM54.6822 25.7052C55.4102 25.7052 55.9795 25.5186 56.3902 25.1452C56.8008 24.7719 57.0062 24.2539 57.0062 23.5912C57.0062 22.9286 56.8008 22.4106 56.3902 22.0372C55.9795 21.6639 55.4102 21.4772 54.6822 21.4772C54.0008 21.4772 53.4688 21.6639 53.0862 22.0372C52.7035 22.4106 52.5122 22.9286 52.5122 23.5912C52.5122 24.2539 52.7035 24.7719 53.0862 25.1452C53.4688 25.5186 54.0008 25.7052 54.6822 25.7052Z" fill="white"/>
<rect x="63.5249" y="11" width="21.56" height="21.56" rx="2" fill="white"/>
<path d="M70.5518 18.352C70.2064 18.352 69.9264 18.2586 69.7118 18.072C69.5064 17.876 69.4038 17.624 69.4038 17.316C69.4038 17.008 69.5064 16.7606 69.7118 16.574C69.9264 16.378 70.2064 16.28 70.5518 16.28C70.8971 16.28 71.1771 16.378 71.3918 16.574C71.6158 16.7606 71.7278 17.008 71.7278 17.316C71.7278 17.624 71.6158 17.876 71.3918 18.072C71.1771 18.2586 70.8971 18.352 70.5518 18.352ZM70.5658 26.36C70.2764 26.36 70.0524 26.2853 69.8938 26.136C69.7351 25.9866 69.6558 25.7813 69.6558 25.52V20.06C69.6558 19.7986 69.7351 19.5933 69.8938 19.444C70.0524 19.2946 70.2764 19.22 70.5658 19.22C70.8458 19.22 71.0698 19.2946 71.2378 19.444C71.4058 19.5933 71.4898 19.7986 71.4898 20.06V25.52C71.4898 25.7813 71.4058 25.9866 71.2378 26.136C71.0698 26.2853 70.8458 26.36 70.5658 26.36ZM73.9231 26.36C73.6338 26.36 73.4098 26.2853 73.2511 26.136C73.0925 25.9866 73.0131 25.7813 73.0131 25.52V20.06C73.0131 19.7893 73.0878 19.584 73.2371 19.444C73.3958 19.2946 73.6151 19.22 73.8951 19.22C74.1751 19.22 74.3945 19.2946 74.5531 19.444C74.7118 19.5933 74.7911 19.7986 74.7911 20.06V20.466C75.4538 19.6353 76.3591 19.22 77.5071 19.22C78.4031 19.22 79.1078 19.5046 79.6211 20.074C80.1438 20.634 80.4051 21.3993 80.4051 22.37V25.52C80.4051 25.7813 80.3211 25.9866 80.1531 26.136C79.9851 26.2853 79.7611 26.36 79.4811 26.36C79.1918 26.36 78.9678 26.2853 78.8091 26.136C78.6505 25.9866 78.5711 25.7813 78.5711 25.52V22.37C78.5711 21.838 78.4405 21.4226 78.1791 21.124C77.9178 20.8253 77.5538 20.676 77.0871 20.676C76.3778 20.676 75.8271 20.886 75.4351 21.306C75.0431 21.7166 74.8471 22.2953 74.8471 23.042V25.52C74.8471 25.7813 74.7631 25.9866 74.5951 26.136C74.4271 26.2853 74.2031 26.36 73.9231 26.36Z" fill="black"/>
</svg>
