<svg width="84" height="32" viewBox="0 0 84 32" fill="none" xmlns="http://www.w3.org/2000/svg">
<rect width="84" height="32" rx="8" fill="black"/>
<rect x="58" y="8" width="16" height="16" rx="2" fill="white"/>
<path d="M11.084 11.3682H12.6318V17.6426H17.0703V19H11.084V11.3682ZM19.1553 12.4521C19.012 12.4521 18.8818 12.4326 18.7646 12.3936C18.6507 12.3512 18.5531 12.2959 18.4717 12.2275C18.3903 12.1559 18.3268 12.0745 18.2812 11.9834C18.2389 11.889 18.2178 11.7897 18.2178 11.6855C18.2178 11.5781 18.2389 11.4788 18.2812 11.3877C18.3268 11.2933 18.3903 11.2119 18.4717 11.1436C18.5531 11.0752 18.6507 11.0215 18.7646 10.9824C18.8818 10.9401 19.012 10.9189 19.1553 10.9189C19.3018 10.9189 19.432 10.9401 19.5459 10.9824C19.6631 11.0215 19.7624 11.0752 19.8438 11.1436C19.9251 11.2119 19.987 11.2933 20.0293 11.3877C20.0749 11.4788 20.0977 11.5781 20.0977 11.6855C20.0977 11.7897 20.0749 11.889 20.0293 11.9834C19.987 12.0745 19.9251 12.1559 19.8438 12.2275C19.7624 12.2959 19.6631 12.3512 19.5459 12.3936C19.432 12.4326 19.3018 12.4521 19.1553 12.4521ZM18.4326 13.2383H19.8779V19H18.4326V13.2383ZM21.7334 13.2383H23.1787V13.7266C23.5628 13.5085 23.929 13.3555 24.2773 13.2676C24.6289 13.1797 24.9723 13.1357 25.3076 13.1357C25.7471 13.1357 26.154 13.2008 26.5283 13.3311C26.9027 13.458 27.2266 13.6484 27.5 13.9023C27.7734 14.1562 27.9867 14.4736 28.1396 14.8545C28.2959 15.2321 28.374 15.6699 28.374 16.168V19H26.9336V16.4023C26.9336 16.0866 26.888 15.805 26.7969 15.5576C26.709 15.307 26.5804 15.097 26.4111 14.9277C26.2451 14.7552 26.0417 14.625 25.8008 14.5371C25.5632 14.446 25.2962 14.4004 25 14.4004C24.8438 14.4004 24.6826 14.4167 24.5166 14.4492C24.3538 14.4818 24.1927 14.529 24.0332 14.5908C23.877 14.6494 23.7256 14.7243 23.5791 14.8154C23.4326 14.9033 23.2992 15.0042 23.1787 15.1182V19H21.7334V13.2383ZM30.1562 10.8994H31.6016V15.6846L34.2969 13.2383H36.5088L33.4961 15.9336L36.6992 19H34.5312L32.3877 16.9248L31.6016 17.6279V19H30.1562V10.8994ZM37.3779 16.0996C37.3779 15.709 37.4577 15.3363 37.6172 14.9814C37.7767 14.6234 38.0062 14.3076 38.3057 14.0342C38.6051 13.7607 38.9714 13.5426 39.4043 13.3799C39.8405 13.2171 40.3353 13.1357 40.8887 13.1357C41.4388 13.1357 41.9336 13.2188 42.373 13.3848C42.8158 13.5475 43.1901 13.7721 43.4961 14.0586C43.8053 14.3451 44.0413 14.682 44.2041 15.0693C44.3701 15.4567 44.4531 15.8717 44.4531 16.3145C44.4531 16.3698 44.4515 16.43 44.4482 16.4951C44.4482 16.557 44.445 16.6139 44.4385 16.666H38.9893C39.0511 16.8385 39.1504 16.9964 39.2871 17.1396C39.4271 17.2829 39.6012 17.4066 39.8096 17.5107C40.0179 17.6149 40.2588 17.6963 40.5322 17.7549C40.8057 17.8102 41.1084 17.8379 41.4404 17.8379C41.7725 17.8379 42.1029 17.8037 42.4316 17.7354C42.7604 17.6637 43.0745 17.5742 43.374 17.4668L43.8623 18.5703C43.6735 18.6582 43.4814 18.7363 43.2861 18.8047C43.0941 18.8698 42.8923 18.9251 42.6807 18.9707C42.4723 19.013 42.2526 19.0456 42.0215 19.0684C41.7936 19.0911 41.5527 19.1025 41.2988 19.1025C40.651 19.1025 40.083 19.0244 39.5947 18.8682C39.1064 18.7119 38.6979 18.4987 38.3691 18.2285C38.0404 17.9583 37.793 17.641 37.627 17.2764C37.4609 16.9118 37.3779 16.5195 37.3779 16.0996ZM42.9199 15.5381C42.8678 15.3786 42.7865 15.2305 42.6758 15.0938C42.5684 14.9538 42.4333 14.8333 42.2705 14.7324C42.1077 14.6283 41.9189 14.5469 41.7041 14.4883C41.4893 14.4297 41.2533 14.4004 40.9961 14.4004C40.7227 14.4004 40.4736 14.4313 40.249 14.4932C40.0244 14.555 39.8275 14.638 39.6582 14.7422C39.4889 14.8464 39.3473 14.9668 39.2334 15.1035C39.1227 15.2402 39.0413 15.3851 38.9893 15.5381H42.9199ZM45.5664 16.1436C45.5664 15.6846 45.6527 15.2712 45.8252 14.9033C45.9977 14.5322 46.2354 14.2165 46.5381 13.9561C46.8441 13.6924 47.2054 13.4906 47.6221 13.3506C48.042 13.2074 48.4961 13.1357 48.9844 13.1357C49.1927 13.1357 49.3978 13.1488 49.5996 13.1748C49.8047 13.2008 50 13.2367 50.1855 13.2822C50.3743 13.3278 50.5501 13.3831 50.7129 13.4482C50.8789 13.5101 51.0254 13.5785 51.1523 13.6533V10.8994H52.5977V19H51.1523V18.458C51.0254 18.5459 50.8757 18.6289 50.7031 18.707C50.5306 18.7852 50.3451 18.8535 50.1465 18.9121C49.9479 18.9707 49.7412 19.0163 49.5264 19.0488C49.3148 19.0846 49.1048 19.1025 48.8965 19.1025C48.4082 19.1025 47.959 19.0309 47.5488 18.8877C47.1419 18.7445 46.792 18.5426 46.499 18.2822C46.2061 18.0218 45.9766 17.7109 45.8105 17.3496C45.6478 16.985 45.5664 16.583 45.5664 16.1436ZM47.085 16.1436C47.085 16.3747 47.1305 16.5928 47.2217 16.7979C47.3161 17.0029 47.4495 17.1836 47.6221 17.3398C47.7979 17.4928 48.0078 17.6149 48.252 17.7061C48.4993 17.7939 48.776 17.8379 49.082 17.8379C49.2773 17.8379 49.4727 17.82 49.668 17.7842C49.8633 17.7451 50.0505 17.6914 50.2295 17.623C50.4118 17.5547 50.5811 17.4717 50.7373 17.374C50.8968 17.2764 51.0352 17.1673 51.1523 17.0469V15.0498C51.0059 14.9326 50.8512 14.8333 50.6885 14.752C50.5257 14.6706 50.3597 14.6038 50.1904 14.5518C50.0212 14.4997 49.8503 14.4622 49.6777 14.4395C49.5052 14.4134 49.3376 14.4004 49.1748 14.4004C48.8428 14.4004 48.5465 14.446 48.2861 14.5371C48.029 14.625 47.8109 14.7471 47.6318 14.9033C47.4561 15.0596 47.321 15.2435 47.2266 15.4551C47.1322 15.6667 47.085 15.8962 47.085 16.1436Z" fill="white"/>
<path d="M61.665 12.4521C61.5218 12.4521 61.3916 12.4326 61.2744 12.3936C61.1605 12.3512 61.0628 12.2959 60.9814 12.2275C60.9001 12.1559 60.8366 12.0745 60.791 11.9834C60.7487 11.889 60.7275 11.7897 60.7275 11.6855C60.7275 11.5781 60.7487 11.4788 60.791 11.3877C60.8366 11.2933 60.9001 11.2119 60.9814 11.1436C61.0628 11.0752 61.1605 11.0215 61.2744 10.9824C61.3916 10.9401 61.5218 10.9189 61.665 10.9189C61.8115 10.9189 61.9417 10.9401 62.0557 10.9824C62.1729 11.0215 62.2721 11.0752 62.3535 11.1436C62.4349 11.2119 62.4967 11.2933 62.5391 11.3877C62.5846 11.4788 62.6074 11.5781 62.6074 11.6855C62.6074 11.7897 62.5846 11.889 62.5391 11.9834C62.4967 12.0745 62.4349 12.1559 62.3535 12.2275C62.2721 12.2959 62.1729 12.3512 62.0557 12.3936C61.9417 12.4326 61.8115 12.4521 61.665 12.4521ZM60.9424 13.2383H62.3877V19H60.9424V13.2383ZM64.2432 13.2383H65.6885V13.7266C66.0726 13.5085 66.4388 13.3555 66.7871 13.2676C67.1387 13.1797 67.4821 13.1357 67.8174 13.1357C68.2568 13.1357 68.6637 13.2008 69.0381 13.3311C69.4124 13.458 69.7363 13.6484 70.0098 13.9023C70.2832 14.1562 70.4964 14.4736 70.6494 14.8545C70.8057 15.2321 70.8838 15.6699 70.8838 16.168V19H69.4434V16.4023C69.4434 16.0866 69.3978 15.805 69.3066 15.5576C69.2188 15.307 69.0902 15.097 68.9209 14.9277C68.7549 14.7552 68.5514 14.625 68.3105 14.5371C68.0729 14.446 67.806 14.4004 67.5098 14.4004C67.3535 14.4004 67.1924 14.4167 67.0264 14.4492C66.8636 14.4818 66.7025 14.529 66.543 14.5908C66.3867 14.6494 66.2354 14.7243 66.0889 14.8154C65.9424 14.9033 65.8089 15.0042 65.6885 15.1182V19H64.2432V13.2383Z" fill="black"/>
</svg>
